{
.appVersion = "895";
copyright = "Copyright 2022 The Aboreto Project Authors (https://github.com/domija/Aboreto)";
customParameters = (
{
name = hheaAscender;
value = 700;
},
{
name = hheaDescender;
value = -270;
},
{
name = hheaLineGap;
value = 0;
},
{
name = preferredFamilyName;
value = Aboreto;
},
{
name = preferredSubfamilyName;
value = Regular;
},
{
name = panose;
value = (
0,
0,
0,
0,
0,
0,
0,
0,
0,
0
);
},
{
name = fsType;
value = (
);
},
{
name = typoAscender;
value = 700;
},
{
name = typoDescender;
value = -270;
},
{
name = typoLineGap;
value = 0;
},
{
name = unicodeRanges;
value = (
0,
1,
2,
31,
32
);
},
{
name = strikeoutSize;
value = 50;
},
{
name = strikeoutPosition;
value = 300;
},
{
name = subscriptXSize;
value = 650;
},
{
name = subscriptYSize;
value = 600;
},
{
name = subscriptXOffset;
value = 0;
},
{
name = subscriptYOffset;
value = 75;
},
{
name = superscriptXSize;
value = 650;
},
{
name = superscriptYSize;
value = 600;
},
{
name = superscriptXOffset;
value = 0;
},
{
name = superscriptYOffset;
value = 350;
},
{
name = blueScale;
value = 0.03963;
},
{
name = blueShift;
value = 7;
},
{
name = isFixedPitch;
value = 0;
},
{
name = license;
value = "This Font Software is licensed under the SIL Open Font License, Version 1.1. This license is available with a FAQ at: https://scripts.sil.org/OFL";
},
{
name = licenseURL;
value = "https://scripts.sil.org/OFL";
},
{
name = postscriptFontName;
value = "Aboreto-Regular";
},
{
name = postscriptFullName;
value = Aboreto;
},
{
name = versionString;
value = "Version 1.000";
},
{
name = openTypeHheaCaretOffset;
value = 0;
},
{
name = openTypeHeadFlags;
value = (
);
},
{
name = openTypeNameVersion;
value = "Version 1.000";
},
{
name = postscriptBlueFuzz;
value = 1;
},
{
name = postscriptForceBold;
value = 0;
},
{
name = postscriptWeightName;
value = Regular;
},
{
name = styleMapFamilyName;
value = Aboreto;
},
{
name = styleMapStyleName;
value = regular;
},
{
name = codePageRanges;
value = (
1252,
1250,
1254,

glyphs = (
{
glyphname = .notdef;
layers = (
{
guideLines = (
{
angle = 90;
position = "{240, 0}";
},
{
position = "{0, 350}";
}
);
layerId = "879304B0-C0BD-4EE0-9B7F-878EED11B82D";
paths = (
{
closed = 1;
nodes = (
"110 0 LINE",
"110 700 LINE",
"70 700 LINE",
"70 0 LINE"
);
},
{
closed = 1;
nodes = (
"460 0 LINE",
"460 700 LINE",
"420 700 LINE",
"420 0 LINE"
);
},
{
closed = 1;
nodes = (
"450 660 LINE",
"450 700 LINE",
"80 700 LINE",
"80 660 LINE"
);
},
{
closed = 1;
nodes = (
"450 0 LINE",
"450 40 LINE",
"80 40 LINE",
"80 0 LINE"
);
},
{
closed = 1;
nodes = (
"123 40 LINE",
"451 660 LINE",
"407 660 LINE",
"79 40 LINE"
);
},
{
closed = 1;
nodes = (
"123 660 LINE",
"79 660 LINE",
"407 40 LINE",
"451 40 LINE"
);
}
);
vertWidth = 0;
width = 530;
}
);
note = "";
},
{
color = (153, 255, 154, 255);
glyphname = A;
layers = (
{
anchors = (
{
name = bottom;
position = "{578, 0}";
},
{
name = top;
position = "{327, 765}";
}
);
layerId = "879304B0-C0BD-4EE0-9B7F-878EED11B82D";
paths = (
{
closed = 1;
nodes = (
"99 0 LINE",
"302 648 LINE",
"308 648 LINE",
"553 0 LINE",
"626 0 LINE",
"357 700 LINE",
"295 700 LINE",
"26 0 LINE"
);
},
{
closed = 1;
nodes = (
"469 328 LINE",
"469 352 LINE",
"181 352 LINE",
"181 328 LINE"
);
}
);
userData = {
com.fontlab.metricsLeft = "|V";
com.fontlab.metricsRight = "|V";
};
vertWidth = 0;
width = 658;
}
);
leftKerningGroup = A_gr;
note = "";
rightKerningGroup = A_gr;
unicode = "0041,0061";
},
{
color = (153, 255, 154, 255);
glyphname = B;
layers = (
{
guideLines = (
{
angle = 90;
position = "{130, 0}";
},
{
position = "{0, 536}";
},
{
angle = 90;
position = "{292, 0}";
},
{
position = "{0, 198}";
}
);
layerId = "879304B0-C0BD-4EE0-9B7F-878EED11B82D";
paths = (
{
closed = 1;
nodes = (
"453 0 OFFCURVE",
"547 69.0753 OFFCURVE",
"547 184.516 CURVE SMOOTH",
"547 283.871 OFFCURVE",
"478 352 OFFCURVE",
"364 367 CURVE",
"364 373 LINE",
"448.341 393 OFFCURVE",
"497 450.763 OFFCURVE {name = hr01;}",
"497 529.92 CURVE SMOOTH",
"497 636.888 OFFCURVE",
"412.413 700 OFFCURVE",
"268.965 700 CURVE SMOOTH",
"170 700 LINE",
"170 676 LINE",
"269.806 676 LINE SMOOTH",
"374.976 676 OFFCURVE",
"427 626.714 OFFCURVE",
"427 526 CURVE SMOOTH",
"427 425.286 OFFCURVE",
"374.845 376 OFFCURVE",
"269.405 376 CURVE SMOOTH",
"185 376 LINE",
"185 352 LINE",
"292 352 LINE SMOOTH",
"415 352 OFFCURVE",
"475 298.276 OFFCURVE {name = hr02;}",
"475 188 CURVE SMOOTH",
"475 78.6667 OFFCURVE",
"415 24 OFFCURVE",
"292 24 CURVE SMOOTH",
"165 24 LINE",
"165 0 LINE",
"292 0 LINE SMOOTH"
);
},
{
closed = 1;
nodes = (
"198 0 LINE",
"198 700 LINE",
"130 700 LINE",
"130 0 LINE"
);
}
);
userData = {
com.fontlab.metricsLeft = H;
com.fontlab.metricsRight = "O-10";
};
vertWidth = 0;
width = 617;
}
);
note = "";
unicode = "0042,0062";
},
{
color = (153, 255, 154, 255);
glyphname = C;
layers = (
{
anchors = (
{
name = bottom;
position = "{454, 0}";
},
{
name = top;
position = "{460, 765}";
}
);
background = {
anchors = (
{
name = bottom;
position = "{434, 0}";
},
{
name = top;
position = "{440, 765}";
}
);
guideLines = (
{
position = "{0, 678}";
},
{
position = "{0, 615}";
},
{
angle = 90;
position = "{668, 0}";
},
{
angle = 90;
position = "{583, 0}";
},
{
angle = 90;
position = "{440, 0}";
}
);
paths = (
{
closed = 1;
nodes = (
"662 86 LINE",
"612 43 OFFCURVE",
"527 8 OFFCURVE",
"440 8 CURVE SMOOTH",
"267 8 OFFCURVE",
"136 154 OFFCURVE",
"136 350 CURVE SMOOTH",
"136 546 OFFCURVE",
"267 692 OFFCURVE",
"440 692 CURVE SMOOTH",
"515 692 OFFCURVE",
"598 665 OFFCURVE",
"647 621 CURVE",
"653 621 LINE",
"658 677 LINE",
"603 700 OFFCURVE",
"514 714 OFFCURVE",
"447 714 CURVE SMOOTH",
"225 714 OFFCURVE",
"60 558 OFFCURVE",
"60 350 CURVE SMOOTH",
"60 142 OFFCURVE",
"225 -14 OFFCURVE",
"455 -14 CURVE SMOOTH",
"523 -14 OFFCURVE",
"605 0 OFFCURVE",
"662 25 CURVE",
"668 86 LINE"
);
}
);
userData = {
com.schriftgestaltung.Glyphs.backgroundWidth = 718;
};
vertWidth = 0;
};
guideLines = (
{
angle = 90;
position = "{642, 0}";
},
{
angle = 90;
position = "{682, 0}";
},
{
position = "{0, 84}";
}
);
layerId = "879304B0-C0BD-4EE0-9B7F-878EED11B82D";
paths = (
{
closed = 1;
nodes = (
"682 86 LINE",
"632 43 OFFCURVE",
"550.542 10 OFFCURVE",
"460 10 CURVE SMOOTH",
"278.912 10 OFFCURVE",
"156 144.871 OFFCURVE",
"156 350 CURVE SMOOTH",
"156 554.572 OFFCURVE",
"279.309 690 OFFCURVE",
"460 690 CURVE SMOOTH",
"540.422 690 OFFCURVE",
"619.044 664.863 OFFCURVE",
"669 619.746 CURVE",
"675 619.746 LINE",
"680 675.746 LINE",
"625 698.746 OFFCURVE",
"526.366 714 OFFCURVE",
"460 714 CURVE SMOOTH",
"245 714 OFFCURVE",
"80 558 OFFCURVE",
"80 350 CURVE SMOOTH",
"80 142 OFFCURVE",
"245 -14 OFFCURVE",
"460 -14 CURVE SMOOTH",
"524 -14 OFFCURVE",
"625 0 OFFCURVE",
"682 25 CURVE",
"688 86 LINE"
);
}
);
userData = {
com.fontlab.metricsLeft = O;
com.fontlab.metricsRight = "O-10";
};
vertWidth = 0;
width = 758;
}
);
leftKerningGroup = O_C_G_Q;
note = "";
unicode = "0043,0063";
},
{
color = (153, 255, 154, 255);
glyphname = D;
layers = (
{
anchors = (
{
name = top;
position = "{367, 765}";
}
);
guideLines = (
{
position = "{0, 621}";
},
{
position = "{0, 84}";
},
{
angle = 90;
position = "{350, 0}";
}
);
layerId = "879304B0-C0BD-4EE0-9B7F-878EED11B82D";
paths = (
{
closed = 1;
nodes = (
"350 0 LINE SMOOTH",
"581 0 OFFCURVE",
"734 141 OFFCURVE",
"734 350 CURVE SMOOTH",
"734 559 OFFCURVE",
"581 700 OFFCURVE",
"350 700 CURVE SMOOTH",
"173 700 LINE",
"173 676 LINE",
"350 676 LINE SMOOTH",
"542.937 676 OFFCURVE",
"658 555.369 OFFCURVE",
"658 350 CURVE SMOOTH",
"658 145 OFFCURVE",
"543 24 OFFCURVE",
"350 24 CURVE SMOOTH",
"165 24 LINE",
"165 0 LINE"
);
},
{
closed = 1;
nodes = (
"198 0 LINE",
"198 700 LINE",
"130 700 LINE",
"130 0 LINE"
);
}
);
userData = {
com.fontlab.metricsLeft = H;
com.fontlab.metricsRight = O;
};
vertWidth = 0;
width = 814;
}
);
note = "";
rightKerningGroup = D_O_Q;
unicode = "0044,0064";
},
{
color = (153, 255, 154, 255);
glyphname = E;
layers = (
{
anchors = (
{
name = bottom;
position = "{390, 0}";
},
{
name = top;
position = "{280, 765}";
}
);
background = {
paths = (
{
closed = 1;
nodes = (
"188 0 LINE",
"188 700 LINE",
"120 700 LINE",
"120 0 LINE"
);
},
{
closed = 1;
nodes = (
"428 0 LINE",
"428 48 LINE",
"422 48 LINE",
"204 20 LINE",
"178 20 LINE",
"178 0 LINE"
);
},
{
closed = 1;
nodes = (
"178 680 LINE",
"204 680 LINE",
"419 652 LINE",
"425 652 LINE",
"425 700 LINE",
"178 700 LINE"
);
},
{
closed = 1;
nodes = (
"204 355 LINE",
"408 342 LINE",
"414 342 LINE",
"414 388 LINE",
"408 388 LINE",
"204 375 LINE",
"178 375 LINE",
"178 355 LINE"
);
}
);
userData = {
com.schriftgestaltung.Glyphs.backgroundWidth = 567;
};
vertWidth = 0;
};
guideLines = (
{
position = "{0, 365}";
},
{
angle = 90;
position = "{401, 0}";
},
{
angle = 90;
position = "{438, 0}";
}
);
layerId = "879304B0-C0BD-4EE0-9B7F-878EED11B82D";
paths = (
{
closed = 1;
nodes = (
"198 355 LINE SMOOTH",
"206.532 355 OFFCURVE",
"227.198 354 OFFCURVE",
"260 352 CURVE SMOOTH",
"424 342 LINE",
"424 388 LINE",
"260 378 LINE SMOOTH",
"227.198 376 OFFCURVE",
"206.532 375 OFFCURVE",
"198 375 CURVE SMOOTH",
"188 375 LINE",
"188 355 LINE"
);
},
{
closed = 1;
nodes = (
"198 0 LINE",
"198 700 LINE",
"130 700 LINE",
"130 0 LINE"
);
},
{
closed = 1;
nodes = (
"188 680 LINE",
"197.914 680 LINE SMOOTH",
"208.905 680 OFFCURVE",
"229.6 678 OFFCURVE",
"260 674 CURVE SMOOTH",
"435 651 LINE",
"435 700 LINE",
"188 700 LINE"
);
},
{
closed = 1;
nodes = (
"438 0 LINE",
"438 49 LINE",
"261 26 LINE SMOOTH",
"230.6 22 OFFCURVE",
"209.6 20 OFFCURVE",
"198 20 CURVE SMOOTH",
"188 20 LINE",
"188 0 LINE"
);
}
);
userData = {
com.fontlab.metricsLeft = H;
};
vertWidth = 0;
width = 518;
}
);
note = "";
rightKerningGroup = E_gr;
unicode = "0045,0065";
},
{
color = (153, 255, 154, 255);
glyphname = F;
layers = (
{
background = {
paths = (
{
closed = 1;
nodes = (
"188 0 LINE",
"188 700 LINE",
"120 700 LINE",
"120 0 LINE"
);
},
{
closed = 1;
nodes = (
"178 680 LINE",
"204 680 LINE",
"408 652 LINE",
"414 652 LINE",
"414 700 LINE",
"178 700 LINE"
);
},
{
closed = 1;
nodes = (
"204 353 LINE",
"394 340 LINE",
"400 340 LINE",
"400 386 LINE",
"394 386 LINE",
"204 373 LINE",
"178 373 LINE",
"178 353 LINE"
);
},
{
closed = 1;
nodes = (
"188 0 LINE",
"188 700 LINE",
"120 700 LINE",
"120 0 LINE"
);
},
{
closed = 1;
nodes = (
"178 680 LINE",
"186.949 682 LINE",
"408 652 LINE",
"414 652 LINE",
"414 700 LINE",
"178 700 LINE"
);
},
{
closed = 1;
nodes = (
"204 353 LINE",
"394 340 LINE",
"400 340 LINE",
"400 386 LINE",
"394 386 LINE",
"204 373 LINE",
"178 373 LINE",
"178 353 LINE"
);
}
);
userData = {
com.schriftgestaltung.Glyphs.backgroundWidth = 479;
};
vertWidth = 0;
};
layerId = "879304B0-C0BD-4EE0-9B7F-878EED11B82D";
paths = (
{
closed = 1;
nodes = (
"198 347 LINE SMOOTH",
"208.733 347 OFFCURVE",
"229.4 346 OFFCURVE",
"260 344 CURVE SMOOTH",
"413 334 LINE",
"413 380 LINE",
"260 370 LINE SMOOTH",
"229.4 368 OFFCURVE",
"208.733 367 OFFCURVE",
"198 367 CURVE SMOOTH",
"188 367 LINE",
"188 347 LINE"
);
},
{
closed = 1;
nodes = (
"198 0 LINE",
"198 700 LINE",
"130 700 LINE",
"130 0 LINE"
);
},
{
closed = 1;
nodes = (
"188 680 LINE",
"197.914 680 LINE SMOOTH",
"207.981 680 OFFCURVE",
"228.001 677.94 OFFCURVE",
"257.974 673.82 CURVE SMOOTH",
"424 651 LINE",
"424 700 LINE",
"188 700 LINE"
);
}
);
userData = {
com.fontlab.metricsRight = "E-15";
};
vertWidth = 0;
width = 489;
}
);
note = "";
unicode = "0046,0066";
},
{
color = (153, 255, 154, 255);
glyphname = G;
layers = (
{
anchors = (
{
name = bottom;
position = "{471, 0}";
},
{
name = top;
position = "{471, 765}";
}
);
background = {
paths = (
{
closed = 1;
nodes = (
"525 328 LINE",
"687 356 LINE",
"712 356 LINE",
"712 376 LINE",
"519 376 LINE",
"519 328 LINE"
);
},
{
closed = 1;
nodes = (
"772 83.8009 LINE",
"772 376 LINE",
"704 376 LINE",
"704 58.8009 LINE"
);
},
{
closed = 1;
nodes = (
"688.679 44.5576 OFFCURVE",
"607.819 8 OFFCURVE",
"511 8 CURVE SMOOTH",
"323.116 8 OFFCURVE",
"196 146.479 OFFCURVE",
"196 350 CURVE SMOOTH",
"196 553.722 OFFCURVE",
"322.93 692 OFFCURVE",
"511 692 CURVE SMOOTH",
"594.877 692 OFFCURVE",
"672.379 665.114 OFFCURVE",
"726 619 CURVE",
"732 619 LINE",
"737 675 LINE",
"682.526 697.78 OFFCURVE",
"582.692 714 OFFCURVE",
"511 714 CURVE SMOOTH",
"288.286 714 OFFCURVE",
"120 557.335 OFFCURVE",
"120 350 CURVE SMOOTH",
"120 142.665 OFFCURVE",
"288.286 -14 OFFCURVE",
"511 -14 CURVE SMOOTH",
"619.573 -14 OFFCURVE",
"710.789 22.3553 OFFCURVE",
"772 83.8009 CURVE",
"736 103.801 LINE"
);
}
);
userData = {
com.schriftgestaltung.Glyphs.backgroundWidth = 862;
};
vertWidth = 0;
};
guideLines = (
{
angle = 90;
position = "{20, 0}";
},
{
position = "{0, 678}";
},
{
position = "{0, 629}";
},
{
position = "{0, 678}";
},
{
angle = 90;
position = "{471, 0}";
},
{
angle = 90;
position = "{681, 0}";
}
);
layerId = "879304B0-C0BD-4EE0-9B7F-878EED11B82D";
paths = (
{
closed = 1;
nodes = (
"732 84 LINE",
"732 356 LINE",
"664 356 LINE",
"664 59 LINE"
);
},
{
closed = 1;
nodes = (
"649 45 OFFCURVE",
"568 10 OFFCURVE",
"471 10 CURVE SMOOTH",
"283 10 OFFCURVE",
"156 146 OFFCURVE",
"156 350 CURVE SMOOTH",
"156 554 OFFCURVE",
"283 690 OFFCURVE",
"471 690 CURVE SMOOTH",
"555 690 OFFCURVE",
"632 665 OFFCURVE",
"686 619 CURVE",
"692 619 LINE",
"697 675 LINE",
"643 698 OFFCURVE",
"543 714 OFFCURVE",
"471 714 CURVE SMOOTH",
"248 714 OFFCURVE",
"80 557 OFFCURVE",
"80 350 CURVE SMOOTH",
"80 143 OFFCURVE",
"248 -14 OFFCURVE",
"471 -14 CURVE SMOOTH",
"580 -14 OFFCURVE",
"671 23 OFFCURVE",
"732 84 CURVE",
"696 104 LINE"
);
},
{
closed = 1;
nodes = (
"479 356 LINE",
"479 332.089 LINE",
"674 332.089 LINE",
"674 356 LINE"
);
}
);
userData = {
com.fontlab.metricsLeft = O;
com.fontlab.metricsRight = "H-30";
};
vertWidth = 0;
width = 832;
}
);
leftKerningGroup = O_C_G_Q;
note = "";
unicode = "0047,0067";
},
{
color = (153, 255, 154, 255);
glyphname = H;
layers = (
{
anchors = (
{
name = top;
position = "{408, 765}";
}
);
guideLines = (
{
angle = 90;
position = "{408, 0}";
}
);
layerId = "879304B0-C0BD-4EE0-9B7F-878EED11B82D";
paths = (
{
closed = 1;
nodes = (
"198 0 LINE",
"198 700 LINE",
"130 700 LINE",
"130 0 LINE"
);
},
{
closed = 1;
nodes = (
"686 0 LINE",
"686 700 LINE",
"618 700 LINE",
"618 0 LINE"
);
},
{
closed = 1;
nodes = (
"658 352 LINE",
"658 376 LINE",
"158 376 LINE",
"158 352 LINE"
);
}
);
vertWidth = 0;
width = 816;
}
);
note = "";
unicode = "0048,0068";
},
{
color = (153, 255, 154, 255);
glyphname = I;
layers = (
{
anchors = (
{
name = bottom;
position = "{198, 0}";
},
{
name = top;
position = "{164, 765}";
}
);
guideLines = (
{
angle = 90;
position = "{164, 0}";
}
);
layerId = "879304B0-C0BD-4EE0-9B7F-878EED11B82D";
paths = (
{
closed = 1;
nodes = (
"198 0 LINE",
"198 700 LINE",
"130 700 LINE",
"130 0 LINE"
);
}
);
userData = {
com.fontlab.metricsLeft = H;
com.fontlab.metricsRight = H;
};
vertWidth = 0;
width = 328;
}
);
note = "";
unicode = "0049,0131";
},
{
color = (153, 255, 154, 255);
glyphname = J;
layers = (
{
anchors = (
{
name = top;
position = "{164, 765}";
}
);
background = {
anchors = (
{
name = top;
position = "{154, 765}";
}
);
guideLines = (
{
angle = 90;
position = "{154, 0}";
}
);
paths = (
{
closed = 1;
nodes = (
"120 -161 OFFCURVE",
"101 -212 OFFCURVE",
"41 -224 CURVE",
"41 -230 LINE",
"61 -230 LINE SMOOTH",
"144 -230 OFFCURVE",
"188 -159 OFFCURVE",
"188 13 CURVE SMOOTH",
"188 700 LINE",
"120 700 LINE",
"120 7 LINE SMOOTH"
);
}
);
userData = {
com.schriftgestaltung.Glyphs.backgroundWidth = 308;
};
vertWidth = 0;
};
guideLines = (
{
angle = 90;
position = "{168, 0}";
},
{
position = "{0, -140}";
}
);
layerId = "879304B0-C0BD-4EE0-9B7F-878EED11B82D";
paths = (
{
closed = 1;
nodes = (
"130 -106 OFFCURVE",
"106.366 -187.211 OFFCURVE",
"53.1067 -225.112 CURVE",
"55.8509 -229.88 LINE",
"151.864 -187.39 OFFCURVE",
"198 -100 OFFCURVE",
"198 68 CURVE SMOOTH",
"198 700 LINE",
"130 700 LINE",
"130 62 LINE SMOOTH"
);
}
);
vertWidth = 0;
width = 328;
}
);
note = "";
unicode = "004A,006A";
},
{
color = (153, 255, 154, 255);
glyphname = K;
layers = (
{
anchors = (
{
name = bottom;
position = "{370, 0}";
}
);
guideLines = (
{
position = "{0, 350}";
},
{
angle = 90;
position = "{656, 0}";
}
);
layerId = "879304B0-C0BD-4EE0-9B7F-878EED11B82D";
paths = (
{
closed = 1;
nodes = (
"652 0 LINE",
"295 387 LINE",
"624 700 LINE",
"538 700 LINE",
"234 359 LINE",
"562 0 LINE"
);
},
{
closed = 1;
nodes = (
"198 0 LINE",
"198 700 LINE",
"130 700 LINE",
"130 0 LINE"
);
}
);
vertWidth = 0;
width = 672;
}
);
note = "";
rightKerningGroup = K_gr;
unicode = "004B,006B";
},
{
color = (153, 255, 154, 255);
glyphname = L;
layers = (
{
anchors = (
{
name = bottom;
position = "{277, -14}";
},
{
name = right;
position = "{320, 350}";
},
{
name = top;
position = "{164, 765}";
}
);
background = {
paths = (
{
closed = 1;
nodes = (
"188 0 LINE",
"188 700 LINE",
"120 700 LINE",
"120 0 LINE"
);
},
{
closed = 1;
nodes = (
"414 0 LINE",
"414 50 LINE",
"408 50 LINE",
"204 20 LINE",
"182 20 LINE",
"182 0 LINE"
);
}
);
userData = {
com.schriftgestaltung.Glyphs.backgroundWidth = 544;
};
vertWidth = 0;
};
guideLines = (
{
angle = 90;
position = "{424, 0}";
},
{
angle = 90;
position = "{164, 0}";
},
{
position = "{0, 350}";
}
);
layerId = "879304B0-C0BD-4EE0-9B7F-878EED11B82D";
paths = (
{
closed = 1;
nodes = (
"198 0 LINE",
"198 700 LINE",
"130 700 LINE",
"130 0 LINE"
);
},
{
closed = 1;
nodes = (
"130 0 LINE",
"198 0 LINE",
"198 700 LINE",
"130 700 LINE"
);
},
{
closed = 1;
nodes = (
"424 0 LINE",
"424 51 LINE",
"257.974 26.1797 LINE SMOOTH",
"230.416 22.0599 OFFCURVE",
"210.396 20 OFFCURVE",
"197.914 20 CURVE SMOOTH",
"188 20 LINE",
"188 0 LINE"
);
}
);
userData = {
com.fontlab.metricsLeft = H;
com.fontlab.metricsRight = "T+5";
};
vertWidth = 0;
width = 461;
}
);
note = "";
rightKerningGroup = L_gr;
unicode = "004C,006C";
},
{
color = (153, 255, 154, 255);
glyphname = M;
layers = (
{
guideLines = (
{
position = "{0, 409}";
}
);
layerId = "879304B0-C0BD-4EE0-9B7F-878EED11B82D";
paths = (
{
closed = 1;
nodes = (
"717 700 LINE",
"481 246 LINE",
"475 246 LINE",
"160 714 LINE",
"140 714 LINE",
"115 0 LINE",
"183 0 LINE",
"161 587 LINE",
"167 587 LINE",
"442 178 LINE",
"473 178 LINE",
"715 642 LINE",
"721 642 LINE",
"721 0 LINE",
"789 0 LINE",
"789 700 LINE"
);
}
);
userData = {
com.fontlab.metricsLeft = N;
com.fontlab.metricsRight = H;
};
vertWidth = 0;
width = 919;
}
);
note = "";
unicode = "004D,006D";
},
{
color = (153, 255, 154, 255);
glyphname = N;
layers = (
{
anchors = (
{
name = bottom;
position = "{411, 0}";
},
{
name = top;
position = "{411, 765}";
}
);
guideLines = (
{
angle = 90;
position = "{116, 0}";
},
{
angle = 90;
position = "{706, 0}";
},
{
angle = 90;
position = "{411, 0}";
},
{
position = "{0, 280}";
}
);
layerId = "879304B0-C0BD-4EE0-9B7F-878EED11B82D";
paths = (
{
closed = 1;
nodes = (
"183 0 LINE",
"161 594 LINE",
"167 594 LINE",
"670 -14 LINE",
"682 -14 LINE",
"707 700 LINE",
"639 700 LINE",
"661 106 LINE",
"655 106 LINE",
"152 714 LINE",
"140 714 LINE",
"115 0 LINE"
);
}
);
userData = {
com.fontlab.metricsRight = "|";
};
vertWidth = 0;
width = 822;
}
);
note = "";
unicode = "004E,006E";
},
{
color = (153, 255, 154, 255);
glyphname = O;
layers = (
{
anchors = (
{
name = top;
position = "{444, 765}";
}
);
background = {
paths = (
{
closed = 1;
nodes = (
"119 144 OFFCURVE",
"277 -14 OFFCURVE",
"483 -14 CURVE SMOOTH",
"689 -14 OFFCURVE",
"847 144 OFFCURVE",
"847 350 CURVE SMOOTH",
"847 556 OFFCURVE",
"689 714 OFFCURVE",
"483 714 CURVE SMOOTH",
"277 714 OFFCURVE",
"119 556 OFFCURVE",
"119 350 CURVE SMOOTH"
);
},
{
closed = 1;
nodes = (
"195 544 OFFCURVE",
"319 692 OFFCURVE",
"483 692 CURVE SMOOTH",
"647 692 OFFCURVE",
"771 544 OFFCURVE",
"771 350 CURVE SMOOTH",
"771 156 OFFCURVE",
"647 8 OFFCURVE",
"483 8 CURVE SMOOTH",
"319 8 OFFCURVE",
"195 156 OFFCURVE",
"195 350 CURVE SMOOTH"
);
}
);
userData = {
com.schriftgestaltung.Glyphs.backgroundWidth = 922;
};
vertWidth = 0;
};
guideLines = (
{
angle = 90;
position = "{444, 0}";
},
{
position = "{0, 84}";
},
{
position = "{0, 622}";
}
);
layerId = "879304B0-C0BD-4EE0-9B7F-878EED11B82D";
paths = (
{
closed = 1;
nodes = (
"80 144 OFFCURVE",
"238 -14 OFFCURVE",
"444 -14 CURVE SMOOTH",
"650 -14 OFFCURVE",
"808 144 OFFCURVE",
"808 350 CURVE SMOOTH",
"808 556 OFFCURVE",
"650 714 OFFCURVE",
"444 714 CURVE SMOOTH",
"238 714 OFFCURVE",
"80 556 OFFCURVE",
"80 350 CURVE SMOOTH"
);
},
{
closed = 1;
nodes = (
"156 553.014 OFFCURVE",
"272.448 690 OFFCURVE",
"444 690 CURVE SMOOTH",
"616.076 690 OFFCURVE",
"732 552.655 OFFCURVE",
"732 350 CURVE SMOOTH",
"732 147.025 OFFCURVE",
"616.357 10 OFFCURVE",
"444 10 CURVE SMOOTH",
"271.717 10 OFFCURVE",
"156 146.727 OFFCURVE",
"156 350 CURVE SMOOTH"
);
}
);
userData = {
com.fontlab.metricsRight = "|";
};
vertWidth = 0;
width = 888;
}
);
leftKerningGroup = O_C_G_Q;
note = "";
rightKerningGroup = D_O_Q;
unicode = "004F,006F";
},
{
color = (153, 255, 154, 255);
glyphname = P;
layers = (
{
guideLines = (
{
angle = 90;
position = "{255, 0}";
}
);
layerId = "879304B0-C0BD-4EE0-9B7F-878EED11B82D";
paths = (
{
closed = 1;
nodes = (
"255 310 LINE SMOOTH",
"416 310 OFFCURVE",
"510 382 OFFCURVE",
"510 505 CURVE SMOOTH",
"510 628 OFFCURVE",
"416 700 OFFCURVE",
"255 700 CURVE SMOOTH",
"161 700 LINE",
"161 676 LINE",
"255 676 LINE SMOOTH",
"376 676 OFFCURVE",
"438 619 OFFCURVE",
"438 505 CURVE SMOOTH",
"438 391 OFFCURVE",
"376 334 OFFCURVE",
"255 334 CURVE SMOOTH",
"161 334 LINE",
"161 310 LINE"
);
},
{
closed = 1;
nodes = (
"198 0 LINE",
"198 700 LINE",
"130 700 LINE",
"130 0 LINE"
);
}
);
userData = {
com.fontlab.metricsLeft = H;
com.fontlab.metricsRight = "B-10";
};
vertWidth = 0;
width = 570;
}
);
note = "";
unicode = "0050,0070";
},
{
color = (153, 255, 154, 255);
glyphname = Q;
layers = (
{
anchors = (
{
name = top;
position = "{444, 765}";
}
);
guideLines = (
{
angle = 90;
position = "{444, 0}";
},
{
angle = 90;
position = "{444, 0}";
},
{
angle = 90;
position = "{444, 0}";
},
{
position = "{0, 84}";
}
);
layerId = "879304B0-C0BD-4EE0-9B7F-878EED11B82D";
paths = (
{
closed = 1;
nodes = (
"444 -14 LINE",
"560 -14 LINE SMOOTH",
"651 -14 OFFCURVE",
"689 -72 OFFCURVE",
"724 -125 CURVE SMOOTH",
"753 -170 OFFCURVE",
"779 -211 OFFCURVE",
"857 -211 CURVE SMOOTH",
"904 -211 LINE",
"904 -205 LINE",
"852 -190 OFFCURVE",
"828 -158 OFFCURVE",
"787 -97 CURVE SMOOTH",
"736 -21 OFFCURVE",
"690 11 OFFCURVE",
"595 11 CURVE",
"595 18 LINE",
"422 2 LINE",
"419 -5 LINE"
);
},
{
closed = 1;
nodes = (
"80 144 OFFCURVE",
"238 -14 OFFCURVE",
"444 -14 CURVE SMOOTH",
"650 -14 OFFCURVE",
"808 144 OFFCURVE",
"808 350 CURVE SMOOTH",
"808 556 OFFCURVE",
"650 714 OFFCURVE",
"444 714 CURVE SMOOTH",
"238 714 OFFCURVE",
"80 556 OFFCURVE",
"80 350 CURVE SMOOTH"
);
},
{
closed = 1;
nodes = (
"156 553.014 OFFCURVE",
"272.448 690 OFFCURVE",
"444 690 CURVE SMOOTH",
"616.076 690 OFFCURVE",
"732 552.655 OFFCURVE",
"732 350 CURVE SMOOTH",
"732 147.025 OFFCURVE",
"616.357 10 OFFCURVE",
"444 10 CURVE SMOOTH",
"271.717 10 OFFCURVE",
"156 146.727 OFFCURVE",
"156 350 CURVE SMOOTH"
);
}
);
userData = {
com.fontlab.metricsLeft = O;
com.fontlab.metricsWidth = O;
};
vertWidth = 0;
width = 888;
}
);
leftKerningGroup = O_C_G_Q;
note = "";
rightKerningGroup = D_O_Q;
unicode = "0051,0071";
},
{
color = (153, 255, 154, 255);
glyphname = R;
layers = (
{
anchors = (
{
name = bottom;
position = "{368, 0}";
},
{
name = top;
position = "{285, 765}";
}
);
background = {
paths = (
{
closed = 1;
nodes = (
"120 0 LINE",
"188 0 LINE",
"188 676 LINE",
"254 676 LINE SMOOTH",
"355 676 OFFCURVE",
"405 629 OFFCURVE",
"405 535 CURVE SMOOTH",
"405 440 OFFCURVE",
"352 394 OFFCURVE",
"244 394 CURVE SMOOTH",
"238 394 LINE",
"238 376 LINE",
"244 376 LINE SMOOTH",
"393 376 OFFCURVE",
"477 435 OFFCURVE",
"477 538 CURVE SMOOTH",
"477 640 OFFCURVE",
"395 700 OFFCURVE",
"254 700 CURVE SMOOTH",
"120 700 LINE"
);
},
{
closed = 1;
nodes = (
"244 386 LINE",
"244 376 LINE",
"346 376 OFFCURVE",
"420 280 OFFCURVE",
"433 165 CURVE SMOOTH",
"439 113 OFFCURVE",
"453 -4 OFFCURVE",
"545 -4 CURVE SMOOTH",
"570 -4 LINE",
"570 2 LINE",
"528 11 OFFCURVE",
"511 102 OFFCURVE",
"501 172 CURVE SMOOTH",
"483 289 OFFCURVE",
"416 344 OFFCURVE",
"332 378 CURVE",
"332 386 LINE"
);
},
{
closed = 1;
nodes = (
"120 0 LINE",
"188 0 LINE",
"188 676 LINE",
"254 676 LINE SMOOTH",
"355 676 OFFCURVE",
"405 629 OFFCURVE",
"405 535 CURVE SMOOTH",
"405 440 OFFCURVE",
"352 394 OFFCURVE",
"244 394 CURVE SMOOTH",
"238 394 LINE",
"238 376 LINE",
"244 376 LINE SMOOTH",
"393 376 OFFCURVE",
"477 435 OFFCURVE",
"477 538 CURVE SMOOTH",
"477 640 OFFCURVE",
"395 700 OFFCURVE",
"254 700 CURVE SMOOTH",
"120 700 LINE"
);
},
{
closed = 1;
nodes = (
"244 386 LINE",
"244 376 LINE",
"345 376 OFFCURVE",
"424 297 OFFCURVE",
"443 176 CURVE SMOOTH",
"462 53 OFFCURVE",
"517 -4 OFFCURVE",
"612 -4 CURVE SMOOTH",
"650 -4 LINE",
"650 2 LINE",
"586 9 OFFCURVE",
"534 79 OFFCURVE",
"510 186 CURVE SMOOTH",
"488 285 OFFCURVE",
"435 343 OFFCURVE",
"332 378 CURVE",
"332 386 LINE"
);
}
);
userData = {
com.schriftgestaltung.Glyphs.backgroundWidth = 622;
};
vertWidth = 0;
};
guideLines = (
{
angle = 90;
position = "{264, 0}";
}
);
layerId = "879304B0-C0BD-4EE0-9B7F-878EED11B82D";
paths = (
{
closed = 1;
nodes = (
"130 0 LINE",
"198 0 LINE",
"198 676 LINE",
"264 676 LINE SMOOTH",
"365 676 OFFCURVE",
"415 627 OFFCURVE",
"415 530.043 CURVE SMOOTH",
"415 429.957 OFFCURVE",
"362 382 OFFCURVE",
"254 382 CURVE SMOOTH",
"248 382 LINE",
"248 364 LINE",
"253.788 364 LINE SMOOTH",
"345.431 364 OFFCURVE",
"409.814 311.655 OFFCURVE",
"447.686 175.223 CURVE SMOOTH",
"485.058 40.591 OFFCURVE",
"519 0 OFFCURVE",
"607 0 CURVE SMOOTH",
"648 0 LINE",
"648 6 LINE",
"586 19.5279 OFFCURVE",
"554.282 51.386 OFFCURVE",
"515.964 183.795 CURVE SMOOTH",
"488.01 280.393 OFFCURVE",
"433.364 349 OFFCURVE",
"345 367 CURVE",
"345 373 LINE",
"437 391 OFFCURVE",
"487 448.194 OFFCURVE",
"487 531.436 CURVE SMOOTH",
"487 637.569 OFFCURVE",
"405 700 OFFCURVE",
"264 700 CURVE SMOOTH",
"130 700 LINE"
);
}
);
userData = {
com.fontlab.metricsLeft = H;
};
vertWidth = 0;
width = 642;
}
);
note = "";
rightKerningGroup = R_gr;
unicode = "0052,0072";
},
{
color = (153, 255, 154, 255);
glyphname = S;
layers = (
{
anchors = (
{
name = bottom;
position = "{268, 0}";
},
{
name = top;
position = "{281, 765}";
}
);
background = {
paths = (
{
closed = 1;
nodes = (
"123 1 OFFCURVE",
"193 -14 OFFCURVE",
"251 -14 CURVE SMOOTH",
"382 -14 OFFCURVE",
"466 63 OFFCURVE",
"466 175 CURVE SMOOTH",
"466 296 OFFCURVE",
"369 350 OFFCURVE",
"279 401 CURVE SMOOTH",
"200 446 OFFCURVE",
"125 488 OFFCURVE",
"125 570 CURVE SMOOTH",
"125 643 OFFCURVE",
"183 692 OFFCURVE",
"276 692 CURVE SMOOTH",
"341 692 OFFCURVE",
"376 668 OFFCURVE",
"415 629 CURVE",
"421 629 LINE",
"426 684 LINE",
"392 701 OFFCURVE",
"332 714 OFFCURVE",
"276 714 CURVE SMOOTH",
"149 714 OFFCURVE",
"69 646 OFFCURVE",
"69 545 CURVE SMOOTH",
"69 441 OFFCURVE",
"156 391 OFFCURVE",
"242 341 CURVE SMOOTH",
"367 268 OFFCURVE",
"408 217 OFFCURVE",
"408 148 CURVE SMOOTH",
"408 64 OFFCURVE",
"348 8 OFFCURVE",
"251 8 CURVE SMOOTH",
"182 8 OFFCURVE",
"121 37 OFFCURVE",
"71 82 CURVE",
"65 82 LINE",
"59 22 LINE"
);
}
);
userData = {
com.schriftgestaltung.Glyphs.backgroundWidth = 523;
};
vertWidth = 0;
};
guideLines = (
{
angle = 90;
position = "{283, 0}";
},
{
angle = 90;
position = "{476, 0}";
},
{
angle = 90;
position = "{75, 0}";
}
);
layerId = "879304B0-C0BD-4EE0-9B7F-878EED11B82D";
paths = (
{
closed = 1;
nodes = (
"134.731 0 OFFCURVE",
"212 -14 OFFCURVE",
"266 -14 CURVE SMOOTH",
"392 -14 OFFCURVE",
"476 63 OFFCURVE",
"476 175 CURVE SMOOTH",
"476 296 OFFCURVE",
"380.088 349.906 OFFCURVE",
"291.2 401 CURVE SMOOTH",
"213.076 445.906 OFFCURVE",
"141 488 OFFCURVE",
"141 570 CURVE SMOOTH",
"141 643 OFFCURVE",
"197 690 OFFCURVE",
"283 690 CURVE SMOOTH",
"340 690 OFFCURVE",
"391 669 OFFCURVE",
"429 628 CURVE",
"435 628 LINE",
"440 684 LINE",
"406 701 OFFCURVE",
"336 714 OFFCURVE",
"283 714 CURVE SMOOTH",
"163 714 OFFCURVE",
"83 646 OFFCURVE",
"83 545 CURVE SMOOTH",
"83 442 OFFCURVE",
"169.031 391.099 OFFCURVE",
"253.959 341 CURVE SMOOTH",
"377.541 268.099 OFFCURVE",
"418 217 OFFCURVE",
"418 148 CURVE SMOOTH",
"418 64 OFFCURVE",
"357 10 OFFCURVE",
"266 10 CURVE SMOOTH",
"202 10 OFFCURVE",
"132.731 36 OFFCURVE",
"81 82 CURVE",
"75 82 LINE",
"69 22 LINE"
);
}
);
vertWidth = 0;
width = 543;
}
);
leftKerningGroup = S_gr;
note = "";
rightKerningGroup = S_gr;
unicode = "0053,0073";
},
{
color = (153, 255, 154, 255);
glyphname = T;
layers = (
{
anchors = (
{
name = bottom;
position = "{324, 0}";
},
{
name = top;
position = "{324, 765}";
}
);
background = {
paths = (
{
closed = 1;
nodes = (
"348 0 LINE",
"348 700 LINE",
"280 700 LINE",
"280 0 LINE"
);
},
{
closed = 1;
nodes = (
"338 680 LINE",
"364 680 LINE",
"600 650 LINE",
"606 650 LINE",
"606 700 LINE",
"338 700 LINE"
);
},
{
closed = 1;
nodes = (
"22 700 LINE",
"22 650 LINE",
"28 650 LINE",
"264 680 LINE",
"290 680 LINE",
"290 700 LINE"
);
}
);
userData = {
com.schriftgestaltung.Glyphs.backgroundWidth = 628;
};
vertWidth = 0;
};
layerId = "879304B0-C0BD-4EE0-9B7F-878EED11B82D";
paths = (
{
closed = 1;
nodes = (
"358 0 LINE",
"358 700 LINE",
"290 700 LINE",
"290 0 LINE"
);
},
{
closed = 1;
nodes = (
"348 680 LINE",
"358 680 LINE SMOOTH",
"367.973 680 OFFCURVE",
"388.64 678 OFFCURVE",
"420 674 CURVE SMOOTH",
"616 649 LINE",
"616 700 LINE",
"348 700 LINE"
);
},
{
closed = 1;
nodes = (
"32.4477 700 LINE",
"32.4477 649 LINE",
"228.448 674 LINE SMOOTH",
"259.808 678 OFFCURVE",
"280.475 680 OFFCURVE",
"290.448 680 CURVE SMOOTH",
"300.448 680 LINE",
"300.448 700 LINE"
);
}
);
vertWidth = 0;
width = 648;
}
);
leftKerningGroup = T_gr;
note = "";
rightKerningGroup = T_gr;
unicode = "0054,0074";
},
{
color = (153, 255, 154, 255);
glyphname = U;
layers = (
{
anchors = (
{
name = bottom;
position = "{436, 0}";
},
{
name = top;
position = "{404, 765}";
}
);
guideLines = (
{
angle = 90;
position = "{120, 0}";
},
{
position = "{0, 280}";
},
{
angle = 90;
position = "{404, 0}";
},
{
position = "{0, 424}";
}
);
layerId = "879304B0-C0BD-4EE0-9B7F-878EED11B82D";
paths = (
{
closed = 1;
nodes = (
"120 280 LINE SMOOTH",
"120 97 OFFCURVE",
"226.965 -14 OFFCURVE",
"406.626 -14 CURVE SMOOTH",
"573.824 -14 OFFCURVE",
"665.212 69.9922 OFFCURVE",
"671 230 CURVE SMOOTH",
"688 700 LINE",
"620 700 LINE",
"637 230 LINE SMOOTH",
"641.411 108.057 OFFCURVE",
"550 22 OFFCURVE",
"415 22 CURVE SMOOTH",
"271 22 OFFCURVE",
"188 117 OFFCURVE",
"188 278 CURVE SMOOTH",
"188 700 LINE",
"120 700 LINE"
);
}
);
userData = {
com.fontlab.metricsRight = "N-5";
};
vertWidth = 0;
width = 798;
}
);
leftKerningGroup = U_gr;
note = "";
rightKerningGroup = U_gr;
unicode = "0055,0075";
},
{
color = (153, 255, 154, 255);
glyphname = V;
layers = (
{
guideLines = (
{
position = "{0, 44}";
}
);
layerId = "879304B0-C0BD-4EE0-9B7F-878EED11B82D";
paths = (
{
closed = 1;
nodes = (
"350 -14 LINE",
"372 -14 LINE",
"690 700 LINE",
"615 700 LINE",
"386 78 LINE",
"380 78 LINE",
"107 700 LINE",
"32 700 LINE"
);
}
);
vertWidth = 0;
width = 716;
}
);
leftKerningGroup = W_gr;
note = "";
rightKerningGroup = W_gr;
unicode = "0056,0076";
},
{
color = (153, 255, 154, 255);
glyphname = W;
layers = (
{
anchors = (
{
name = top;
position = "{493, 765}";
}
);
background = {
userData = {
com.schriftgestaltung.Glyphs.backgroundWidth = 1015;
};
vertWidth = 0;
};
guideLines = (
{
angle = 90;
position = "{465, 0}";
},
{
angle = 90;
position = "{530, 0}";
}
);
layerId = "879304B0-C0BD-4EE0-9B7F-878EED11B82D";
paths = (
{
closed = 1;
nodes = (
"320 -14 LINE",
"342 -14 LINE",
"545 489 LINE",
"523 501 LINE",
"356 88 LINE",
"350 88 LINE",
"105 700 LINE",
"32 700 LINE"
);
},
{
closed = 1;
nodes = (
"717 -14 LINE",
"739 -14 LINE",
"1027 700 LINE",
"954 700 LINE",
"752 90 LINE",
"746 90 LINE",
"502 700 LINE",
"429 700 LINE"
);
}
);
userData = {
com.fontlab.metricsLeft = V;
com.fontlab.metricsRight = V;
};
vertWidth = 0;
width = 1053;
}
);
leftKerningGroup = W_gr;
note = "";
rightKerningGroup = W_gr;
unicode = "0057,0077";
},
{
color = (153, 255, 154, 255);
glyphname = X;
layers = (
{
guideLines = (
{
position = "{0, 7967}";
},
{
angle = 90;
position = "{32, 0}";
}
);
layerId = "879304B0-C0BD-4EE0-9B7F-878EED11B82D";
paths = (
{
closed = 1;
nodes = (
"606 0 LINE",
"132 700 LINE",
"52 700 LINE",
"526 0 LINE"
);
},
{
closed = 1;
nodes = (
"112 0 LINE",
"312 341 LINE",
"297 359 LINE",
"32 0 LINE"
);
},
{
closed = 1;
nodes = (
"328 397 LINE",
"343 379 LINE",
"586 700 LINE",
"506 700 LINE"
);
},
{
closed = 1;
nodes = (
"313 323 LINE",
"313 331 LINE",
"297 331 LINE",
"297 323 LINE"
);
},
{
closed = 1;
nodes = (
"342 401 LINE",
"342 409 LINE",
"326 409 LINE",
"326 401 LINE"
);
}
);
userData = {
com.fontlab.metricsLeft = V;
com.fontlab.metricsRight = V;
};
vertWidth = 0;
width = 632;
}
);
note = "";
unicode = "0058,0078";
},
{
color = (153, 255, 154, 255);
glyphname = Y;
layers = (
{
anchors = (
{
name = top;
position = "{312, 765}";
}
);
guideLines = (
{
position = "{0, 349}";
},
{
angle = 90;
position = "{312, 0}";
}
);
layerId = "879304B0-C0BD-4EE0-9B7F-878EED11B82D";
paths = (
{
closed = 1;
nodes = (
"352 0 LINE",
"352 310 LINE",
"591 700 LINE",
"515 700 LINE",
"337 334 LINE",
"331 334 LINE",
"108 700 LINE",
"32 700 LINE",
"280 296 LINE",
"280 0 LINE"
);
}
);
userData = {
com.fontlab.metricsLeft = V;
com.fontlab.metricsRight = V;
};
vertWidth = 0;
width = 617;
}
);
leftKerningGroup = Y_gr;
note = "";
rightKerningGroup = Y_gr;
unicode = "0059,0079";
},
{
color = (153, 255, 154, 255);
glyphname = Z;
layers = (
{
anchors = (
{
name = top;
position = "{328, 765}";
}
);
background = {
paths = (
{
closed = 1;
nodes = (
"115 20 LINE",
"565 680 LINE",
"485 680 LINE",
"35 20 LINE"
);
},
{
closed = 1;
nodes = (
"565 0 LINE",
"565 50 LINE",
"559 50 LINE",
"131 20 LINE",
"35 20 LINE",
"35 0 LINE"
);
},
{
closed = 1;
nodes = (
"62 700 LINE",
"62 652 LINE",
"68 652 LINE",
"469 680 LINE",
"565 680 LINE",
"565 700 LINE"
);
}
);
userData = {
com.schriftgestaltung.Glyphs.backgroundWidth = 611;
};
vertWidth = 0;
};
guideLines = (
{
angle = 90;
position = "{45, 0}";
},
{
angle = 90;
position = "{575, 0}";
},
{
angle = 90;
position = "{324, 0}";
}
);
layerId = "879304B0-C0BD-4EE0-9B7F-878EED11B82D";
paths = (
{
closed = 1;
nodes = (
"125 20 LINE",
"571 680 LINE",
"491 680 LINE",
"45 20 LINE"
);
},
{
closed = 1;
nodes = (
"71 651 LINE",
"418 676 LINE SMOOTH",
"455.924 678.732 OFFCURVE",
"480.257 680.066 OFFCURVE",
"491 680 CURVE",
"571 680 LINE",
"571 700 LINE",
"71 700 LINE"
);
},
{
closed = 1;
nodes = (
"575 51 LINE",
"198 24 LINE SMOOTH",
"160.667 21.3333 OFFCURVE",
"136.333 20 OFFCURVE",
"125 20 CURVE SMOOTH",
"45 20 LINE",
"45 0 LINE",
"575 0 LINE"
);
}
);
vertWidth = 0;
width = 631;
}
);
leftKerningGroup = Z_gr;
note = "";
rightKerningGroup = Z_gr;
unicode = "005A,007A";
},
{
color = (153, 255, 154, 255);
glyphname = zero;
layers = (
{
guideLines = (
{
angle = 90;
position = "{321, 0}";
},
{
position = "{0, 615}";
}
);
layerId = "879304B0-C0BD-4EE0-9B7F-878EED11B82D";
paths = (
{
closed = 1;
nodes = (
"80 131 OFFCURVE",
"176 -14 OFFCURVE",
"321 -14 CURVE SMOOTH",
"466 -14 OFFCURVE",
"562 131 OFFCURVE",
"562 350 CURVE SMOOTH",
"562 569 OFFCURVE",
"466 714 OFFCURVE",
"321 714 CURVE SMOOTH",
"176 714 OFFCURVE",
"80 569 OFFCURVE",
"80 350 CURVE SMOOTH"
);
},
{
closed = 1;
nodes = (
"154 566.871 OFFCURVE",
"215.194 690 OFFCURVE",
"321 690 CURVE SMOOTH",
"426.822 690 OFFCURVE",
"488 566.67 OFFCURVE",
"488 350 CURVE SMOOTH",
"488 133 OFFCURVE",
"427 10 OFFCURVE",
"321 10 CURVE SMOOTH",
"215 10 OFFCURVE",
"154 133 OFFCURVE",
"154 350 CURVE SMOOTH"
);
}
);
userData = {
com.fontlab.metricsLeft = O;
com.fontlab.metricsRight = "|";
};
vertWidth = 0;
width = 642;
}
);
note = "";
unicode = 0030;
},
{
color = (153, 255, 154, 255);
glyphname = one;
layers = (
{
layerId = "879304B0-C0BD-4EE0-9B7F-878EED11B82D";
paths = (
{
closed = 1;
nodes = (
"259 0 LINE",
"259 714 LINE",
"239 714 LINE",
"38 590 LINE",
"46 574 LINE",
"191 642 LINE",
"191 0 LINE"
);
}
);
userData = {
com.fontlab.metricsRight = H;
};
vertWidth = 0;
width = 389;
}
);
note = "";
unicode = 0031;
},
{
color = (153, 255, 154, 255);
glyphname = two;
layers = (
{
background = {
guideLines = (
{
angle = 90;
position = "{494, 0}";
},
{
angle = 90;
position = "{2, 0}";
}
);
userData = {
com.schriftgestaltung.Glyphs.backgroundWidth = 508;
};
vertWidth = 0;
};
guideLines = (
{
angle = 90;
position = "{478, 0}";
},
{
angle = 90;
position = "{46, 0}";
}
);
layerId = "879304B0-C0BD-4EE0-9B7F-878EED11B82D";
paths = (
{
closed = 1;
nodes = (
"476 0 LINE",
"476 60 LINE",
"110 60 LINE",
"332 315 LINE SMOOTH",
"424.161 420.86 OFFCURVE",
"457 489 OFFCURVE",
"457 551 CURVE SMOOTH",
"457 650 OFFCURVE",
"374 714 OFFCURVE",
"252 714 CURVE SMOOTH",
"190 714 OFFCURVE",
"126 697 OFFCURVE",
"80 671 CURVE",
"85 617 LINE",
"91 617 LINE",
"136 662 OFFCURVE",
"197 690 OFFCURVE",
"252 690 CURVE SMOOTH",
"330 690 OFFCURVE",
"383 634 OFFCURVE",
"383 545 CURVE SMOOTH",
"383 482 OFFCURVE",
"355.923 418.06 OFFCURVE",
"297 342 CURVE SMOOTH",
"46 18 LINE",
"46 0 LINE"
);
}
);
vertWidth = 0;
width = 536;
}
);
note = "";
unicode = 0032;
},
{
color = (153, 255, 154, 255);
glyphname = three;
layers = (
{
guideLines = (
{
angle = 90;
position = "{50, 0}";
},
{
angle = 90;
position = "{458, 0}";
},
{
position = "{0, 350}";
},
{
position = "{0, 190}";
},
{
angle = 90;
position = "{213, 0}";
},
{
position = "{0, -56}";
},
{
position = "{0, 384}";
}
);
layerId = "879304B0-C0BD-4EE0-9B7F-878EED11B82D";
paths = (
{
closed = 1;
nodes = (
"311 372 OFFCURVE",
"384 301 OFFCURVE",
"384 190 CURVE SMOOTH",
"384 80 OFFCURVE",
"321 10 OFFCURVE",
"224 10 CURVE SMOOTH",
"165 10 OFFCURVE",
"105 35 OFFCURVE",
"56 82 CURVE",
"50 82 LINE",
"56 22 LINE",
"102 0 OFFCURVE",
"166 -14 OFFCURVE",
"224 -14 CURVE SMOOTH",
"364 -14 OFFCURVE",
"458 66 OFFCURVE",
"458 187 CURVE SMOOTH",
"458 288 OFFCURVE",
"391 361 OFFCURVE",
"278 382 CURVE",
"278 388 LINE",
"374 411 OFFCURVE",
"426 469 OFFCURVE {name = hr01;}",
"426 549 CURVE SMOOTH",
"426 648 OFFCURVE",
"346 714 OFFCURVE",
"224 714 CURVE SMOOTH",
"167 714 OFFCURVE",
"104 700 OFFCURVE",
"61 680 CURVE",
"66 627 LINE",
"72 627 LINE",
"111 666 OFFCURVE",
"172 690 OFFCURVE",
"224 690 CURVE SMOOTH",
"302 690 OFFCURVE",
"354 633 OFFCURVE",
"354 544 CURVE SMOOTH",
"354 447 OFFCURVE",
"292 396 OFFCURVE",
"192 396 CURVE SMOOTH",
"174 396 LINE",
"174 372 LINE",
"196 372 LINE SMOOTH"
);
}
);
userData = {
com.fontlab.metricsRight = "B+5";
};
vertWidth = 0;
width = 533;
}
);
note = "";
unicode = 0033;
},
{
color = (153, 255, 154, 255);
glyphname = four;
layers = (
{
layerId = "879304B0-C0BD-4EE0-9B7F-878EED11B82D";
paths = (
{
closed = 1;
nodes = (
"534 196 LINE",
"534 220 LINE",
"64 220 LINE",
"376 700 LINE",
"300 700 LINE",
"34 216 LINE",
"34 196 LINE"
);
},
{
closed = 1;
nodes = (
"412 0 LINE",
"412 430 LINE",
"346 430 LINE",
"346 0 LINE"
);
}
);
userData = {
com.fontlab.metricsRight = "|";
};
vertWidth = 0;
width = 568;
}
);
note = "";
unicode = 0034;
},
{
color = (153, 255, 154, 255);
glyphname = five;
layers = (
{
guideLines = (
{
position = "{0, 350}";
},
{
position = "{0, -11}";
},
{
angle = 90;
position = "{456, 0}";
},
{
angle = 90;
position = "{61, 0}";
}
);
layerId = "879304B0-C0BD-4EE0-9B7F-878EED11B82D";
paths = (
{
closed = 1;
nodes = (
"55 82 LINE",
"61 22 LINE",
"125 1 OFFCURVE",
"188 -14 OFFCURVE",
"241 -14 CURVE SMOOTH",
"369 -14 OFFCURVE",
"456 74 OFFCURVE",
"456 205 CURVE SMOOTH",
"456 329 OFFCURVE",
"377 419 OFFCURVE",
"240 445 CURVE SMOOTH",
"119 468 LINE",
"95 406 LINE",
"222 382 LINE SMOOTH",
"333 361 OFFCURVE",
"398 284 OFFCURVE",
"398 181 CURVE SMOOTH",
"398 78 OFFCURVE",
"334 10 OFFCURVE",
"240 10 CURVE SMOOTH",
"176 10 OFFCURVE",
"113 40 OFFCURVE",
"61 82 CURVE"
);
},
{
closed = 1;
nodes = (
"120 406 LINE",
"147 683 LINE",
"124 700 LINE",
"95 406 LINE"
);
},
{
closed = 1;
nodes = (
"428 640 LINE",
"428 700 LINE",
"124 700 LINE",
"124 640 LINE"
);
}
);
userData = {
com.fontlab.metricsRight = "three-10";
};
vertWidth = 0;
width = 521;
}
);
note = "";
unicode = 0035;
},
{
color = (153, 255, 154, 255);
glyphname = six;
layers = (
{
guideLines = (
{
position = "{0, 298}";
},
{
position = "{0, 42}";
},
{
angle = 90;
position = "{527, 0}";
}
);
layerId = "879304B0-C0BD-4EE0-9B7F-878EED11B82D";
paths = (
{
closed = 1;
nodes = (
"440 -14 OFFCURVE",
"527 72 OFFCURVE",
"527 200 CURVE SMOOTH",
"527 323 OFFCURVE",
"449 405 OFFCURVE",
"334 405 CURVE SMOOTH",
"290 405 OFFCURVE",
"247 393 OFFCURVE",
"203 368 CURVE",
"212 352 LINE",
"243 368 OFFCURVE",
"278 377 OFFCURVE",
"309 377 CURVE SMOOTH",
"397 377 OFFCURVE",
"453 305 OFFCURVE",
"453 192 CURVE SMOOTH",
"453 82 OFFCURVE",
"396 10 OFFCURVE",
"312 10 CURVE SMOOTH",
"212 10 OFFCURVE",
"148 115 OFFCURVE",
"148 284 CURVE SMOOTH",
"148 519 OFFCURVE",
"274 675 OFFCURVE",
"444 696 CURVE",
"442 714 LINE",
"228 695 OFFCURVE",
"74 516 OFFCURVE",
"74 279 CURVE SMOOTH",
"74 98 OFFCURVE",
"165 -14 OFFCURVE",
"312 -14 CURVE SMOOTH"
);
}
);
userData = {
com.fontlab.metricsLeft = "zero-6";
com.fontlab.metricsRight = "|-12";
};
vertWidth = 0;
width = 589;
}
);
note = "";
unicode = 0036;
},
{
color = (153, 255, 154, 255);
glyphname = seven;
layers = (
{
guideLines = (
{
angle = 90;
position = "{247, 0}";
}
);
layerId = "879304B0-C0BD-4EE0-9B7F-878EED11B82D";
paths = (
{
closed = 1;
nodes = (
"420 640 LINE",
"121 0 LINE",
"195 0 LINE",
"464 680 LINE",
"464 700 LINE",
"34 700 LINE",
"34 640 LINE"
);
}
);
vertWidth = 0;
width = 514;
}
);
note = "";
unicode = 0037;
},
{
color = (153, 255, 154, 255);
glyphname = eight;
layers = (
{
background = {
userData = {
com.schriftgestaltung.Glyphs.backgroundWidth = 550;
};
vertWidth = 0;
};
guideLines = (
{
angle = 90;
position = "{126, 0}";
},
{
position = "{0, 255}";
},
{
angle = 90;
position = "{444, 0}";
},
{
position = "{0, 170}";
},
{
position = "{0, 150}";
},
{
position = "{0, 551}";
},
{
position = "{0, 622}";
},
{
angle = 90;
position = "{264, 0}";
}
);
layerId = "879304B0-C0BD-4EE0-9B7F-878EED11B82D";
paths = (
{
closed = 1;
nodes = (
"295 356 LINE",
"197 323 OFFCURVE",
"140 252 OFFCURVE",
"140 161 CURVE SMOOTH",
"140 67 OFFCURVE",
"201 10 OFFCURVE",
"300 10 CURVE SMOOTH",
"397 10 OFFCURVE",
"463 64 OFFCURVE",
"463 148 CURVE SMOOTH",
"463 219 OFFCURVE",
"418 268 OFFCURVE",
"271.756 351.255 CURVE SMOOTH",
"151 420 OFFCURVE",
"103 474 OFFCURVE {name = hr01;}",
"103 551 CURVE SMOOTH",
"103 649 OFFCURVE",
"182 714 OFFCURVE",
"300 714 CURVE SMOOTH",
"417 714 OFFCURVE",
"497 652 OFFCURVE",
"497 562 CURVE SMOOTH",
"497 479 OFFCURVE",
"430 408 OFFCURVE",
"317 369 CURVE",
"304 384 LINE",
"383 410 OFFCURVE",
"434 473 OFFCURVE",
"434 558 CURVE SMOOTH",
"434 642 OFFCURVE",
"383 690 OFFCURVE",
"300 690 CURVE SMOOTH",
"219 690 OFFCURVE",
"163 644 OFFCURVE",
"163 573 CURVE SMOOTH",
"163 503 OFFCURVE",
"216 464 OFFCURVE",
"337 396 CURVE SMOOTH",
"484 312 OFFCURVE",
"525 245 OFFCURVE {name = hr02;}",
"525 169 CURVE SMOOTH",
"525 59 OFFCURVE",
"436 -14 OFFCURVE",
"300 -14 CURVE SMOOTH",
"164 -14 OFFCURVE",
"75 54 OFFCURVE",
"75 157 CURVE SMOOTH",
"75 256 OFFCURVE",
"157 340 OFFCURVE",
"282 371 CURVE"
);
}
);
userData = {
com.fontlab.metricsLeft = "|";
com.fontlab.metricsRight = three;
};
vertWidth = 0;
width = 600;
}
);
note = "";
unicode = 0038;
},
{
color = (153, 255, 154, 255);
glyphname = nine;
layers = (
{
guideLines = (
{
angle = 90;
position = "{248, 0}";
}
);
layerId = "879304B0-C0BD-4EE0-9B7F-878EED11B82D";
paths = (
{
closed = 1;
nodes = (
"378 5 OFFCURVE",
"512 204 OFFCURVE",
"512 421 CURVE SMOOTH",
"512 602 OFFCURVE",
"422 714 OFFCURVE",
"276 714 CURVE SMOOTH",
"148 714 OFFCURVE",
"62 630 OFFCURVE",
"62 505 CURVE SMOOTH",
"62 385 OFFCURVE",
"139 305 OFFCURVE",
"253 305 CURVE SMOOTH",
"297 305 OFFCURVE",
"339 317 OFFCURVE",
"383 342 CURVE",
"374 358 LINE",
"343 342 OFFCURVE",
"309 333 OFFCURVE",
"278 333 CURVE SMOOTH",
"191 333 OFFCURVE",
"136 403 OFFCURVE",
"136 513 CURVE SMOOTH",
"136 620 OFFCURVE",
"192 690 OFFCURVE",
"276 690 CURVE SMOOTH",
"375 690 OFFCURVE",
"438 585 OFFCURVE",
"438 416 CURVE SMOOTH",
"438 201 OFFCURVE",
"332 25 OFFCURVE",
"162 4 CURVE",
"164 -14 LINE"
);
}
);
userData = {
com.fontlab.metricsLeft = "|six";
com.fontlab.metricsRight = "|six ";
};
vertWidth = 0;
width = 586;
}
);
note = "";
unicode = 0039;
},
{
color = (255, 255, 153, 255);
glyphname = period;
layers = (
{
guideLines = (
{
angle = 90;
position = "{100, 0}";
},
{
position = "{0, 31}";
}
);
layerId = "879304B0-C0BD-4EE0-9B7F-878EED11B82D";
paths = (
{
closed = 1;
nodes = (
"80 12 OFFCURVE",
"102 -10 OFFCURVE",
"132 -10 CURVE SMOOTH",
"162 -10 OFFCURVE",
"184 12 OFFCURVE",
"184 42 CURVE SMOOTH",
"184 72 OFFCURVE",
"162 94 OFFCURVE",
"132 94 CURVE SMOOTH",
"102 94 OFFCURVE",
"80 72 OFFCURVE",
"80 42 CURVE SMOOTH"
);
}
);
vertWidth = 0;
width = 264;
}
);
leftKerningGroup = Periods_gr;
note = "";
rightKerningGroup = Periods_gr;
unicode = 002E;
},
{
color = (255, 255, 153, 255);
glyphname = comma;
layers = (
{
background = {
paths = (
{
closed = 1;
nodes = (
"-726 60 LINE",
"-703 37 LINE SMOOTH",
"-685 19 OFFCURVE",
"-677 3 OFFCURVE",
"-677 -17 CURVE SMOOTH",
"-677 -49 OFFCURVE",
"-698 -86 OFFCURVE",
"-738 -126 CURVE",
"-726 -140 LINE",
"-650 -82 OFFCURVE",
"-611 -26 OFFCURVE",
"-611 24 CURVE SMOOTH",
"-611 52 OFFCURVE",
"-623 75 OFFCURVE",
"-648 100 CURVE SMOOTH",
"-667 119 LINE",
"-673 119 LINE",
"-726 66 LINE"
);
},
{
closed = 1;
nodes = (
"-569 4 OFFCURVE",
"-527 11 OFFCURVE",
"-527 -29 CURVE SMOOTH",
"-527 -59 OFFCURVE",
"-552 -97 OFFCURVE",
"-591 -129 CURVE",
"-579 -143 LINE",
"-515 -97 OFFCURVE",
"-471 -26 OFFCURVE",
"-471 34 CURVE SMOOTH",
"-471 71 OFFCURVE",
"-488 92 OFFCURVE",
"-519 92 CURVE SMOOTH",
"-549 92 OFFCURVE",
"-569 73 OFFCURVE",
"-569 45 CURVE SMOOTH"
);
}
);
userData = {
com.schriftgestaltung.Glyphs.backgroundWidth = 250;
};
vertWidth = 0;
};
guideLines = (
{
angle = 90;
position = "{80, 0}";
}
);
layerId = "879304B0-C0BD-4EE0-9B7F-878EED11B82D";
paths = (
{
closed = 1;
nodes = (
"75 73 OFFCURVE",
"97 94 OFFCURVE",
"129 94 CURVE SMOOTH",
"166 94 OFFCURVE",
"186 65 OFFCURVE",
"186 15 CURVE SMOOTH",
"186 -50 OFFCURVE",
"152 -109 OFFCURVE",
"93 -149 CURVE",
"83 -134 LINE",
"128 -100 OFFCURVE",
"153 -51 OFFCURVE {name = hr01;}",
"156 12 CURVE",
"147 -2 OFFCURVE",
"135 -7 OFFCURVE",
"121 -7 CURVE SMOOTH",
"93 -7 OFFCURVE",
"75 14 OFFCURVE",
"75 42 CURVE SMOOTH"
);
}
);
userData = {
com.fontlab.metricsWidth = period;
};
vertWidth = 0;
width = 264;
}
);
leftKerningGroup = Periods_gr;
note = "";
rightKerningGroup = Periods_gr;
unicode = 002C;
},
{
color = (255, 255, 153, 255);
glyphname = question;
layers = (
{
background = {
paths = (
{
closed = 1;
nodes = (
"117 50 LINE",
"174 -7 LINE",
"180 -7 LINE",
"237 50 LINE",
"237 56 LINE",
"180 113 LINE",
"174 113 LINE",
"117 56 LINE"
);
},
{
closed = 1;
nodes = (
"211 362 LINE",
"305 396 OFFCURVE",
"384 476 OFFCURVE",
"384 564 CURVE SMOOTH",
"384 640 OFFCURVE",
"335 714 OFFCURVE",
"203 714 CURVE SMOOTH",
"143 714 OFFCURVE",
"79 697 OFFCURVE",
"39 671 CURVE",
"44 617 LINE",
"50 617 LINE",
"96 663 OFFCURVE",
"151 692 OFFCURVE",
"202 692 CURVE SMOOTH",
"279 692 OFFCURVE",
"315 623 OFFCURVE",
"315 562 CURVE SMOOTH",
"315 484 OFFCURVE",
"254 401 OFFCURVE",
"169 379 CURVE",
"169 188 LINE",
"189 188 LINE"
);
}
);
userData = {
com.schriftgestaltung.Glyphs.backgroundWidth = 468;
};
vertWidth = 0;
};
guideLines = (
{
position = "{0, 302}";
},
{
position = "{0, 312}";
},
{
angle = 90;
position = "{239, 0}";
},
{
angle = 90;
position = "{190, 0}";
}
);
layerId = "879304B0-C0BD-4EE0-9B7F-878EED11B82D";
paths = (
{
closed = 1;
nodes = (
"377 419 OFFCURVE",
"418 489 OFFCURVE",
"418 557 CURVE SMOOTH",
"418 651 OFFCURVE",
"340 714 OFFCURVE",
"223 714 CURVE SMOOTH",
"168 714 OFFCURVE",
"106 700 OFFCURVE",
"60 678 CURVE",
"65 624 LINE",
"71 624 LINE",
"113 666 OFFCURVE",
"173 690 OFFCURVE",
"223 690 CURVE SMOOTH",
"296 690 OFFCURVE",
"344 636 OFFCURVE",
"344 552 CURVE SMOOTH",
"344 493 OFFCURVE",
"321 442 OFFCURVE",
"274 401 CURVE SMOOTH",
"174 312 LINE",
"180 173 LINE",
"200 173 LINE",
"207 308 LINE",
"310 375 LINE SMOOTH"
);
},
{
closed = 1;
nodes = (
"138 12 OFFCURVE",
"160 -10 OFFCURVE",
"190 -10 CURVE SMOOTH",
"220 -10 OFFCURVE",
"242 12 OFFCURVE",
"242 42 CURVE SMOOTH",
"242 72 OFFCURVE",
"220 94 OFFCURVE",
"190 94 CURVE SMOOTH",
"160 94 OFFCURVE",
"138 72 OFFCURVE",
"138 42 CURVE SMOOTH"
);
}
);
userData = {
com.fontlab.metricsRight = B;
};
vertWidth = 0;
width = 488;
}
);
note = "";
unicode = 003F;
},
{
color = (255, 255, 153, 255);
glyphname = exclam;
layers = (
{
guideLines = (
{
angle = 90;
position = "{165, 0}";
},
{
angle = 90;
position = "{130, 0}";
}
);
layerId = "879304B0-C0BD-4EE0-9B7F-878EED11B82D";
paths = (
{
closed = 1;
nodes = (
"175 173 LINE",
"207 700 LINE",
"123 700 LINE",
"155 173 LINE"
);
},
{
closed = 1;
nodes = (
"113 12 OFFCURVE",
"135 -10 OFFCURVE",
"165 -10 CURVE SMOOTH",
"195 -10 OFFCURVE",
"217 12 OFFCURVE",
"217 42 CURVE SMOOTH",
"217 72 OFFCURVE",
"195 94 OFFCURVE",
"165 94 CURVE SMOOTH",
"135 94 OFFCURVE",
"113 72 OFFCURVE",
"113 42 CURVE SMOOTH"
);
}
);
vertWidth = 0;
width = 330;
}
);
note = "";
unicode = 0021;
},
{
color = (255, 255, 153, 255);
glyphname = parenleft;
layers = (
{
guideLines = (
{
position = "{0, 350}";
},
{
position = "{0, -71}";
},
{
position = "{0, 771}";
}
);
layerId = "879304B0-C0BD-4EE0-9B7F-878EED11B82D";
paths = (
{
closed = 1;
nodes = (
"90 189 OFFCURVE",
"162 26 OFFCURVE",
"281 -82 CURVE",
"295 -71 LINE",
"210 36 OFFCURVE",
"158 195 OFFCURVE",
"158 350 CURVE SMOOTH",
"158 505 OFFCURVE",
"210 664 OFFCURVE",
"295 771 CURVE",
"281 782 LINE",
"162 674 OFFCURVE",
"90 511 OFFCURVE",
"90 350 CURVE SMOOTH"
);
}
);
vertWidth = 0;
width = 341;
}
);
note = "";
unicode = 0028;
},
{
color = (255, 255, 153, 255);
glyphname = bracketleft;
layers = (
{
guideLines = (
{
position = "{0, 770}";
},
{
position = "{0, -70}";
}
);
layerId = "879304B0-C0BD-4EE0-9B7F-878EED11B82D";
paths = (
{
closed = 1;
nodes = (
"192 -68 LINE",
"192 768 LINE",
"130 768 LINE",
"130 -68 LINE"
);
},
{
closed = 1;
nodes = (
"317 -68 LINE",
"317 -50 LINE",
"146 -50 LINE",
"146 -68 LINE"
);
},
{
closed = 1;
nodes = (
"317 750 LINE",
"317 768 LINE",
"146 768 LINE",
"146 750 LINE"
);
}
);
userData = {
com.fontlab.metricsLeft = H;
};
vertWidth = 0;
width = 372;
}
);
note = "";
unicode = 005B;
},
{
color = (255, 255, 153, 255);
glyphname = braceleft;
layers = (
{
guideLines = (
{
position = "{0, -82}";
},
{
position = "{0, 781}";
},
{
position = "{0, 350}";
}
);
layerId = "879304B0-C0BD-4EE0-9B7F-878EED11B82D";
paths = (
{
closed = 1;
nodes = (
"130 389 OFFCURVE",
"95 368 OFFCURVE",
"52 368 CURVE SMOOTH",
"42 368 LINE",
"42 350 LINE",
"52 350 LINE SMOOTH",
"95 350 OFFCURVE",
"130 327 OFFCURVE",
"130 246 CURVE SMOOTH",
"130 220 OFFCURVE",
"126 195 OFFCURVE",
"122 172 CURVE SMOOTH",
"116 133 OFFCURVE",
"114 118 OFFCURVE {name = hr01;}",
"114 101 CURVE SMOOTH",
"114 9 OFFCURVE",
"181 -42 OFFCURVE",
"253 -83 CURVE",
"264 -69 LINE",
"212 -33 OFFCURVE",
"174 -3 OFFCURVE",
"174 76 CURVE SMOOTH",
"174 93 OFFCURVE",
"176 108 OFFCURVE",
"182 146 CURVE SMOOTH",
"188 185 OFFCURVE",
"190 202 OFFCURVE {name = hr02;}",
"190 220 CURVE SMOOTH",
"190 296 OFFCURVE",
"152 339 OFFCURVE",
"111 356 CURVE",
"111 362 LINE",
"152 379 OFFCURVE",
"190 418 OFFCURVE",
"190 492 CURVE SMOOTH",
"190 515 OFFCURVE",
"186 540 OFFCURVE",
"182 562 CURVE SMOOTH",
"176 598 OFFCURVE",
"174 613 OFFCURVE {name = hr03;}",
"174 630 CURVE SMOOTH",
"174 699 OFFCURVE",
"213 734 OFFCURVE",
"264 767 CURVE",
"253 781 LINE",
"182 743 OFFCURVE",
"114 686 OFFCURVE",
"114 605 CURVE SMOOTH",
"114 590 OFFCURVE",
"116 575 OFFCURVE",
"122 540 CURVE SMOOTH",
"128 502 OFFCURVE",
"130 486 OFFCURVE {name = hr04;}",
"130 468 CURVE SMOOTH"
);
}
);
vertWidth = 0;
width = 316;
}
);
note = "";
unicode = 007B;
},
{
color = (255, 255, 153, 255);
glyphname = hyphen;
layers = (
{
guideLines = (
{
position = "{0, 377}";
}
);
layerId = "879304B0-C0BD-4EE0-9B7F-878EED11B82D";
paths = (
{
closed = 1;
nodes = (
"290 335 LINE",
"290 379 LINE",
"40 379 LINE",
"40 335 LINE"
);
}
);
vertWidth = 0;
width = 330;
}
);
leftKerningGroup = hyphen_gr;
note = "";
rightKerningGroup = hyphen_gr;
unicode = "002D,2010";
},
{
color = (255, 255, 153, 255);
glyphname = endash;
layers = (
{
guideLines = (
{
position = "{0, 357}";
}
);
layerId = "879304B0-C0BD-4EE0-9B7F-878EED11B82D";
paths = (
{
closed = 1;
nodes = (
"540 342 LINE",
"540 372 LINE",
"40 372 LINE",
"40 342 LINE"
);
}
);
userData = {
com.fontlab.metricsLeft = hyphen;
com.fontlab.metricsRight = "|";
};
vertWidth = 0;
width = 580;
}
);
leftKerningGroup = hyphen_gr;
note = "";
rightKerningGroup = hyphen_gr;
unicode = 2013;
},
{
color = (255, 255, 153, 255);
glyphname = emdash;
layers = (
{
guideLines = (
{
position = "{0, 357}";
}
);
layerId = "879304B0-C0BD-4EE0-9B7F-878EED11B82D";
paths = (
{
closed = 1;
nodes = (
"1040 342 LINE",
"1040 372 LINE",
"40 372 LINE",
"40 342 LINE"
);
}
);
userData = {
com.fontlab.metricsLeft = hyphen;
com.fontlab.metricsRight = "|";
};
vertWidth = 0;
width = 1080;
}
);
leftKerningGroup = hyphen_gr;
note = "";
rightKerningGroup = hyphen_gr;
unicode = 2014;
},
{
color = (255, 255, 153, 255);
glyphname = guilsinglleft;
layers = (
{
guideLines = (
{
position = "{0, 350}";
}
);
layerId = "879304B0-C0BD-4EE0-9B7F-878EED11B82D";
paths = (
{
closed = 1;
nodes = (
"258 166 LINE",
"132 350 LINE",
"258 534 LINE",
"245 546 LINE",
"60 358 LINE",
"60 342 LINE",
"245 154 LINE"
);
}
);
vertWidth = 0;
width = 318;
}
);
leftKerningGroup = guilLEFT_gr;
note = "";
rightKerningGroup = guilLEFT_gr;
unicode = 2039;
},
{
color = (255, 255, 153, 255);
glyphname = quotesingle;
layers = (
{
guideLines = (
{
position = "{0, 467}";
},
{
position = "{0, 684}";
},
{
angle = 90;
position = "{114, 0}";
},
{
position = "{0, 652}";
},
{
position = "{0, 663}";
}
);
layerId = "879304B0-C0BD-4EE0-9B7F-878EED11B82D";
paths = (
{
closed = 1;
nodes = (
"152 647 OFFCURVE",
"153 655 OFFCURVE",
"153 663 CURVE SMOOTH",
"153 686 OFFCURVE",
"145 710 OFFCURVE",
"114 710 CURVE SMOOTH",
"83 710 OFFCURVE",
"75 686 OFFCURVE",
"75 663 CURVE SMOOTH",
"75 655 OFFCURVE",
"75.8375 646.975 OFFCURVE",
"77 640 CURVE SMOOTH",
"105 472 LINE",
"123 472 LINE",
"151 640 LINE SMOOTH"
);
}
);
userData = {
com.fontlab.metricsLeft = quoteright;
com.fontlab.metricsRight = "|";
};
vertWidth = 0;
width = 228;
}
);
leftKerningGroup = quote_straight_gr;
note = "";
rightKerningGroup = quote_straight_gr;
unicode = 0027;
},
{
color = (255, 255, 153, 255);
glyphname = minute;
layers = (
{
layerId = "879304B0-C0BD-4EE0-9B7F-878EED11B82D";
paths = (
{
closed = 1;
nodes = (
"145 653 OFFCURVE",
"147 664 OFFCURVE",
"147 674 CURVE SMOOTH",
"147 697 OFFCURVE",
"135 710 OFFCURVE",
"112 710 CURVE SMOOTH",
"82 710 OFFCURVE",
"66 688 OFFCURVE",
"66 640 CURVE SMOOTH",
"66 472 LINE",
"84 472 LINE",
"141 640 LINE SMOOTH"
);
}
);
vertWidth = 0;
width = 193;
}
);
note = "";
unicode = 2032;
},
{
color = (255, 255, 153, 255);
glyphname = degree;
layers = (
{
layerId = "879304B0-C0BD-4EE0-9B7F-878EED11B82D";
paths = (
{
closed = 1;
nodes = (
"45 503 OFFCURVE",
"100 448 OFFCURVE",
"176 448 CURVE SMOOTH",
"252 448 OFFCURVE",
"307 503 OFFCURVE",
"307 579 CURVE SMOOTH",
"307 655 OFFCURVE",
"252 710 OFFCURVE",
"176 710 CURVE SMOOTH",
"100 710 OFFCURVE",
"45 655 OFFCURVE",
"45 579 CURVE SMOOTH"
);
},
{
closed = 1;
nodes = (
"77 639 OFFCURVE",
"119 682 OFFCURVE",
"176 682 CURVE SMOOTH",
"233 682 OFFCURVE",
"275 639 OFFCURVE",
"275 579 CURVE SMOOTH",
"275 519 OFFCURVE",
"233 476 OFFCURVE",
"176 476 CURVE SMOOTH",
"119 476 OFFCURVE",
"77 519 OFFCURVE",
"77 579 CURVE SMOOTH"
);
}
);
userData = {
com.fontlab.metricsRight = "|";
};
vertWidth = 0;
width = 352;
}
);
note = "";
unicode = 00B0;
},
{
color = (255, 255, 153, 255);
glyphname = asterisk;
layers = (
{
layerId = "879304B0-C0BD-4EE0-9B7F-878EED11B82D";
paths = (
{
closed = 1;
nodes = (
"202 360 LINE",
"254 360 LINE",
"234 550 LINE",
"222 550 LINE"
);
},
{
closed = 1;
nodes = (
"50 477 LINE",
"76 432 LINE",
"231 545 LINE",
"225 555 LINE"
);
},
{
closed = 1;
nodes = (
"76 668 LINE",
"50 623 LINE",
"225 545 LINE",
"231 555 LINE"
);
},
{
closed = 1;
nodes = (
"254 740 LINE",
"202 740 LINE",
"222 550 LINE",
"234 550 LINE"
);
},
{
closed = 1;
nodes = (
"406 623 LINE",
"380 668 LINE",
"225 555 LINE",
"231 545 LINE"
);
},
{
closed = 1;
nodes = (
"380 432 LINE",
"406 477 LINE",
"231 555 LINE",
"225 545 LINE"
);
}
);
userData = {
com.fontlab.metricsRight = "|";
};
vertWidth = 0;
width = 456;
}
);
note = "";
unicode = 002A;
},
{
color = (255, 255, 153, 255);
glyphname = slash;
layers = (
{
layerId = "879304B0-C0BD-4EE0-9B7F-878EED11B82D";
paths = (
{
closed = 1;
nodes = (
"84 0 LINE",
"312 700 LINE",
"278 700 LINE",
"50 0 LINE"
);
}
);
userData = {
com.fontlab.metricsRight = "|";
};
vertWidth = 0;
width = 362;
}
);
note = "";
unicode = 002F;
},
{
color = (255, 255, 153, 255);
glyphname = bar;
layers = (
{
guideLines = (
{
position = "{0, 768}";
}
);
layerId = "879304B0-C0BD-4EE0-9B7F-878EED11B82D";
paths = (
{
closed = 1;
nodes = (
"162 -68 LINE",
"162 768 LINE",
"130 768 LINE",
"130 -68 LINE"
);
}
);
userData = {
com.fontlab.metricsLeft = H;
com.fontlab.metricsRight = H;
};
vertWidth = 0;
width = 292;
}
);
note = "";
unicode = 007C;
},
{
color = (255, 255, 153, 255);
glyphname = brokenbar;
layers = (
{
guideLines = (
{
position = "{0, 768}";
}
);
layerId = "879304B0-C0BD-4EE0-9B7F-878EED11B82D";
paths = (
{
closed = 1;
nodes = (
"160 436 LINE",
"160 768 LINE",
"130 768 LINE",
"130 436 LINE"
);
},
{
closed = 1;
nodes = (
"130 264 LINE",
"130 -68 LINE",
"160 -68 LINE",
"160 264 LINE"
);
}
);
userData = {
com.fontlab.metricsLeft = H;
com.fontlab.metricsRight = H;
};
vertWidth = 0;
width = 290;
}
);
note = "";
unicode = 00A6;
},
{
color = (255, 255, 153, 255);
glyphname = percent;
layers = (
{
guideLines = (
{
angle = 90;
position = "{223, 0}";
}
);
layerId = "879304B0-C0BD-4EE0-9B7F-878EED11B82D";
paths = (
{
closed = 1;
nodes = (
"205 0 LINE",
"597 700 LINE",
"565 700 LINE",
"173 0 LINE"
);
},
{
closed = 1;
nodes = (
"44 418 OFFCURVE",
"103 345 OFFCURVE",
"190 345 CURVE SMOOTH",
"277 345 OFFCURVE",
"336 418 OFFCURVE",
"336 527 CURVE SMOOTH",
"336 636 OFFCURVE",
"277 709 OFFCURVE {name = hr01;}",
"190 709 CURVE SMOOTH",
"103 709 OFFCURVE",
"44 636 OFFCURVE",
"44 527 CURVE SMOOTH"
);
},
{
closed = 1;
nodes = (
"102 630.45 OFFCURVE",
"134.534 689 OFFCURVE",
"190 689 CURVE SMOOTH",
"245 689 OFFCURVE",
"278 630.185 OFFCURVE",
"278 527 CURVE SMOOTH",
"278 423.815 OFFCURVE",
"245 365 OFFCURVE",
"190 365 CURVE SMOOTH",
"135 365 OFFCURVE",
"102 423.815 OFFCURVE",
"102 527 CURVE SMOOTH"
);
},
{
closed = 1;
nodes = (
"434 63 OFFCURVE",
"493 -10 OFFCURVE",
"580 -10 CURVE SMOOTH",
"667 -10 OFFCURVE",
"726 63 OFFCURVE",
"726 172 CURVE SMOOTH",
"726 281 OFFCURVE",
"667 354 OFFCURVE",
"580 354 CURVE SMOOTH",
"493 354 OFFCURVE {name = hr02;}",
"434 281 OFFCURVE",
"434 172 CURVE SMOOTH"
);
},
{
closed = 1;
nodes = (
"492 275.185 OFFCURVE",
"525 334 OFFCURVE",
"580 334 CURVE SMOOTH",
"635 334 OFFCURVE",
"668 275.185 OFFCURVE",
"668 172 CURVE SMOOTH",
"668 68.8148 OFFCURVE",
"635 10 OFFCURVE",
"580 10 CURVE SMOOTH",
"525 10 OFFCURVE",
"492 68.8148 OFFCURVE",
"492 172 CURVE SMOOTH"
);
}
);
vertWidth = 0;
width = 770;
}
);
note = "";
unicode = 0025;
},
{
color = (255, 255, 153, 255);
glyphname = perthousand;
layers = (
{
guideLines = (
{
angle = 90;
position = "{241, 0}";
},
{
angle = 90;
position = "{223, 0}";
}
);
layerId = "879304B0-C0BD-4EE0-9B7F-878EED11B82D";
paths = (
{
closed = 1;
nodes = (
"205 0 LINE",
"597 700 LINE",
"565 700 LINE",
"173 0 LINE"
);
},
{
closed = 1;
nodes = (
"44 418 OFFCURVE",
"103 345 OFFCURVE",
"190 345 CURVE SMOOTH",
"277 345 OFFCURVE",
"336 418 OFFCURVE",
"336 527 CURVE SMOOTH",
"336 636 OFFCURVE",
"277 709 OFFCURVE {name = hr01;}",
"190 709 CURVE SMOOTH",
"103 709 OFFCURVE",
"44 636 OFFCURVE",
"44 527 CURVE SMOOTH"
);
},
{
closed = 1;
nodes = (
"102 630.185 OFFCURVE",
"135 689 OFFCURVE",
"190 689 CURVE SMOOTH",
"245 689 OFFCURVE",
"278 630.185 OFFCURVE",
"278 527 CURVE SMOOTH",
"278 423.815 OFFCURVE",
"245 365 OFFCURVE",
"190 365 CURVE SMOOTH",
"135 365 OFFCURVE",
"102 423.815 OFFCURVE",
"102 527 CURVE SMOOTH"
);
},
{
closed = 1;
nodes = (
"434 63 OFFCURVE",
"493 -10 OFFCURVE",
"580 -10 CURVE SMOOTH",
"667 -10 OFFCURVE",
"726 63 OFFCURVE",
"726 172 CURVE SMOOTH",
"726 281 OFFCURVE",
"667 354 OFFCURVE",
"580 354 CURVE SMOOTH",
"493 354 OFFCURVE {name = hr02;}",
"434 281 OFFCURVE",
"434 172 CURVE SMOOTH"
);
},
{
closed = 1;
nodes = (
"492 275.185 OFFCURVE",
"525 334 OFFCURVE",
"580 334 CURVE SMOOTH",
"635 334 OFFCURVE",
"668 275.185 OFFCURVE",
"668 172 CURVE SMOOTH",
"668 68.8148 OFFCURVE",
"635 10 OFFCURVE",
"580 10 CURVE SMOOTH",
"525 10 OFFCURVE",
"492 68.8148 OFFCURVE",
"492 172 CURVE SMOOTH"
);
},
{
closed = 1;
nodes = (
"797 63 OFFCURVE",
"856 -10 OFFCURVE",
"943 -10 CURVE SMOOTH",
"1030 -10 OFFCURVE",
"1089 63 OFFCURVE",
"1089 172 CURVE SMOOTH",
"1089 281 OFFCURVE",
"1030 354 OFFCURVE",
"943 354 CURVE SMOOTH",
"856 354 OFFCURVE",
"797 281 OFFCURVE",
"797 172 CURVE SMOOTH"
);
},
{
closed = 1;
nodes = (
"855 275.185 OFFCURVE",
"888 334 OFFCURVE",
"943 334 CURVE SMOOTH",
"998 334 OFFCURVE",
"1031 275.185 OFFCURVE",
"1031 172 CURVE SMOOTH",
"1031 68.8148 OFFCURVE",
"998 10 OFFCURVE",
"943 10 CURVE SMOOTH",
"888 10 OFFCURVE",
"855 68.8148 OFFCURVE",
"855 172 CURVE SMOOTH"
);
}
);
userData = {
com.fontlab.metricsLeft = percent;
com.fontlab.metricsRight = percent;
};
vertWidth = 0;
width = 1133;
}
);
note = "";
unicode = 2030;
},
{
color = (255, 255, 153, 255);
glyphname = ampersand;
layers = (
{
guideLines = (
{
angle = 90;
position = "{540, 0}";
},
{
angle = 90;
position = "{70, 0}";
},
{
angle = 90;
position = "{540, 0}";
},
{
position = "{0, 350}";
},
{
angle = 90;
position = "{286, 0}";
}
);
layerId = "879304B0-C0BD-4EE0-9B7F-878EED11B82D";
paths = (
{
closed = 1;
nodes = (
"441 25 OFFCURVE",
"379 -14 OFFCURVE",
"287 -14 CURVE SMOOTH",
"157 -14 OFFCURVE",
"70 62 OFFCURVE",
"70 174 CURVE SMOOTH",
"70 272 OFFCURVE",
"134 348 OFFCURVE",
"250 388 CURVE",
"263 374 LINE",
"178 336 OFFCURVE",
"135 272 OFFCURVE",
"135 182 CURVE SMOOTH",
"135 79 OFFCURVE",
"201 10 OFFCURVE",
"299 10 CURVE SMOOTH",
"374 10 OFFCURVE",
"433 52 OFFCURVE",
"487 144 CURVE",
"499 120 LINE"
);
},
{
closed = 1;
nodes = (
"223 390 LINE SMOOTH",
"161.634 456.665 OFFCURVE",
"137 507 OFFCURVE",
"137 564 CURVE SMOOTH",
"137 654 OFFCURVE",
"200 714 OFFCURVE",
"293 714 CURVE SMOOTH",
"383 714 OFFCURVE",
"444 659 OFFCURVE",
"444 577 CURVE SMOOTH",
"444 496 OFFCURVE",
"382 424 OFFCURVE",
"287 382 CURVE",
"273 395 LINE",
"345 433 OFFCURVE",
"381 492 OFFCURVE",
"381 570 CURVE SMOOTH",
"381 646 OFFCURVE",
"348 690 OFFCURVE",
"293 690 CURVE SMOOTH",
"238 690 OFFCURVE",
"197 645 OFFCURVE",
"197 579 CURVE SMOOTH",
"197 533 OFFCURVE",
"218 491 OFFCURVE",
"268 437 CURVE SMOOTH",
"671 0 LINE",
"582 0 LINE"
);
},
{
closed = 1;
nodes = (
"643 366 LINE",
"517 156 LINE",
"500 166 LINE",
"575 366 LINE"
);
}
);
userData = {
com.fontlab.metricsLeft = "|B";
};
vertWidth = 0;
width = 697;
}
);
note = "";
unicode = 0026;
},
{
color = (255, 255, 153, 255);
glyphname = at;
layers = (
{
guideLines = (
{
angle = 90;
position = "{911, 0}";
},
{
position = "{0, 148}";
},
{
position = "{0, 350}";
},
{
angle = 90;
position = "{568, 0}";
}
);
layerId = "879304B0-C0BD-4EE0-9B7F-878EED11B82D";
paths = (
{
closed = 1;
nodes = (
"419 583 OFFCURVE",
"305 460 OFFCURVE",
"305 319 CURVE SMOOTH",
"305 215 OFFCURVE",
"366 148 OFFCURVE",
"458 148 CURVE SMOOTH",
"523 148 OFFCURVE",
"574.21 182.104 OFFCURVE",
"601.21 247.104 CURVE",
"607.21 247.104 LINE",
"614.21 181.104 OFFCURVE",
"652 148 OFFCURVE",
"716 148 CURVE SMOOTH",
"831 148 OFFCURVE",
"911 259 OFFCURVE",
"911 417 CURVE SMOOTH",
"911 634 OFFCURVE",
"761 777 OFFCURVE",
"534 777 CURVE SMOOTH",
"276 777 OFFCURVE",
"90 591 OFFCURVE",
"90 334 CURVE SMOOTH",
"90 84 OFFCURVE",
"266 -77 OFFCURVE",
"539 -77 CURVE SMOOTH",
"681 -77 OFFCURVE",
"786 -33 OFFCURVE",
"887 68 CURVE",
"875 81 LINE",
"776 -7 OFFCURVE",
"676 -47 OFFCURVE",
"552 -47 CURVE SMOOTH",
"310 -47 OFFCURVE",
"150 107 OFFCURVE",
"150 340 CURVE SMOOTH",
"150 579.12 OFFCURVE",
"312.124 753 OFFCURVE",
"532 753 CURVE SMOOTH",
"726 753 OFFCURVE",
"859 613 OFFCURVE",
"859 404 CURVE SMOOTH",
"859 269 OFFCURVE",
"803 177 OFFCURVE",
"724 177 CURVE SMOOTH",
"674 177 OFFCURVE",
"645 212 OFFCURVE",
"645 275 CURVE SMOOTH",
"645 288 OFFCURVE",
"646 301 OFFCURVE",
"649 318 CURVE SMOOTH",
"689 541 LINE",
"638 546 LINE",
"597 318 LINE SMOOTH",
"581 230 OFFCURVE",
"537 180 OFFCURVE {name = hr01;}",
"477 180 CURVE SMOOTH",
"409 180 OFFCURVE",
"362 242 OFFCURVE",
"362 333 CURVE SMOOTH",
"362 455 OFFCURVE",
"451 559 OFFCURVE",
"558 559 CURVE SMOOTH",
"593 559 OFFCURVE",
"626 550 OFFCURVE",
"653 529 CURVE",
"689 541 LINE",
"656 567 OFFCURVE",
"605 583 OFFCURVE",
"555 583 CURVE SMOOTH"
);
}
);
userData = {
com.fontlab.metricsLeft = "O+10";
com.fontlab.metricsRight = "O+10";
};
vertWidth = 0;
width = 1001;
}
);
note = "";
unicode = 0040;
},
{
color = (255, 153, 253, 255);
glyphname = AE;
layers = (
{
anchors = (
{
name = bottom;
position = "{687, 0}";
},
{
name = top;
position = "{517, 765}";
}
);
guideLines = (
{
position = "{0, 364}";
},
{
angle = 90.0022;
position = "{626, 0}";
},
{
angle = 90;
position = "{735, 0}";
},
{
angle = 90;
position = "{581, 0}";
},
{
position = "{0, 365}";
},
{
angle = 90;
position = "{698, 0}";
},
{
angle = 90;
position = "{735, 0}";
}
);
layerId = "879304B0-C0BD-4EE0-9B7F-878EED11B82D";
paths = (
{
closed = 1;
nodes = (
"86 0 LINE",
"421 646 LINE",
"428 646 LINE",
"479 700 LINE",
"424 700 LINE",
"10 0 LINE"
);
},
{
closed = 1;
nodes = (
"459 298 LINE",
"459 322 LINE",
"211 322 LINE",
"211 298 LINE"
);
},
{
closed = 1;
nodes = (
"495 355 LINE SMOOTH",
"503.532 355 OFFCURVE",
"524.198 354 OFFCURVE",
"557 352 CURVE SMOOTH",
"721 342 LINE",
"721 388 LINE",
"557 378 LINE SMOOTH",
"524.198 376 OFFCURVE",
"503.532 375 OFFCURVE",
"495 375 CURVE SMOOTH",
"485 375 LINE",
"485 355 LINE"
);
},
{
closed = 1;
nodes = (
"495 0 LINE",
"495 700 LINE",
"427 700 LINE",
"427 0 LINE"
);
},
{
closed = 1;
nodes = (
"485 680 LINE",
"494.914 680 LINE SMOOTH",
"505.905 680 OFFCURVE",
"526.6 678 OFFCURVE",
"557 674 CURVE SMOOTH",
"732 651 LINE",
"732 700 LINE",
"485 700 LINE"
);
},
{
closed = 1;
nodes = (
"735 0 LINE",
"735 49 LINE",
"558 26 LINE SMOOTH",
"527.6 22 OFFCURVE",
"506.6 20 OFFCURVE",
"495 20 CURVE SMOOTH",
"485 20 LINE",
"485 0 LINE"
);
}
);
userData = {
com.fontlab.metricsRight = E;
};
vertWidth = 0;
width = 815;
}
);
leftKerningGroup = AE_gr;
note = "";
unicode = "00C6,00E6";
},
{
color = (255, 153, 253, 255);
glyphname = Eth;
layers = (
{
anchors = (
{
name = top;
position = "{367, 765}";
}
);
components = (
{
name = D;
}
);
guideLines = (
{
position = "{0, 350}";
}
);
layerId = "879304B0-C0BD-4EE0-9B7F-878EED11B82D";
paths = (
{
closed = 1;
nodes = (
"372 352 LINE",
"372 376 LINE",
"38 376 LINE",
"38 352 LINE"
);
}
);
userData = {
com.fontlab.metricsLeft = "D-92";
com.fontlab.metricsRight = D;
};
vertWidth = 0;
width = 814;
}
);
note = "";
unicode = "00D0,00F0";
},
{
color = (255, 153, 253, 255);
glyphname = Hbar;
layers = (
{
components = (
{
name = H;
}
);
layerId = "879304B0-C0BD-4EE0-9B7F-878EED11B82D";
paths = (
{
closed = 1;
nodes = (
"778 552 LINE",
"778 576 LINE",
"38 576 LINE",
"38 552 LINE"
);
}
);
userData = {
com.fontlab.metricsLeft = "H-92";
com.fontlab.metricsRight = "H-92";
};
vertWidth = 0;
width = 816;
}
);
note = "";
unicode = "0126,0127";
},
{
color = (255, 153, 253, 255);
glyphname = Lslash;
layers = (
{
anchors = (
{
name = bottom;
position = "{277, -14}";
},
{
name = right;
position = "{280, 350}";
},
{
name = top;
position = "{164, 765}";
}
);
components = (
{
name = L;
}
);
guideLines = (
{
angle = 90;
position = "{424, 0}";
},
{
angle = 90;
position = "{424, 0}";
},
{
angle = 90;
position = "{38, 0}";
},
{
angle = 90;
position = "{372, 0}";
},
{
position = "{0, 350}";
}
);
layerId = "879304B0-C0BD-4EE0-9B7F-878EED11B82D";
paths = (
{
closed = 1;
nodes = (
"162 351 LINE",
"154 374 LINE",
"38 332 LINE",
"46 309 LINE"
);
},
{
closed = 1;
nodes = (
"347 413 LINE",
"339 436 LINE",
"181 379 LINE",
"189 356 LINE"
);
}
);
userData = {
com.fontlab.metricsLeft = "L-92";
com.fontlab.metricsRight = L;
};
vertWidth = 0;
width = 461;
}
);
note = "";
rightKerningGroup = L_gr;
unicode = "0141,0142";
},
{
color = (255, 153, 253, 255);
glyphname = Eng;
layers = (
{
anchors = (
{
name = bottom;
position = "{411, 0}";
},
{
name = top;
position = "{673, 765}";
}
);
background = {
paths = (
{
closed = 1;
nodes = (
"607.178 -106 OFFCURVE",
"585.178 -189 OFFCURVE",
"528.178 -221 CURVE",
"530.178 -227 LINE",
"630.178 -195 OFFCURVE",
"675.178 -100 OFFCURVE",
"675.178 68 CURVE",
"607.178 62 LINE"
);
},
{
closed = 1;
nodes = (
"173 0 LINE",
"151 594 LINE",
"157 594 LINE",
"634.118 17.2847 LINE",
"675.178 68 LINE",
"697 700 LINE",
"629 700 LINE",
"651 106 LINE",
"645 106 LINE",
"142 714 LINE",
"130 714 LINE",
"105 0 LINE"
);
}
);
userData = {
com.schriftgestaltung.Glyphs.backgroundWidth = 802;
};
vertWidth = 0;
};
guideLines = (
{
angle = 90;
position = "{677, 0}";
},
{
angle = 90;
position = "{116, 0}";
},
{
angle = 90;
position = "{706, 0}";
},
{
angle = 90;
position = "{411, 0}";
},
{
position = "{0, 410}";
},
{
position = "{0, -140}";
}
);
layerId = "879304B0-C0BD-4EE0-9B7F-878EED11B82D";
paths = (
{
closed = 1;
nodes = (
"616 -106 OFFCURVE",
"595 -189 OFFCURVE",
"538 -221 CURVE",
"540 -227 LINE",
"644 -195 OFFCURVE",
"679 -100 OFFCURVE",
"685 68 CURVE",
"616 62 LINE"
);
},
{
closed = 1;
nodes = (
"183 0 LINE",
"161 594 LINE",
"167 594 LINE",
"644 17 LINE",
"685 68 LINE",
"707 700 LINE",
"639 700 LINE",
"661 106 LINE",
"655 106 LINE",
"152 714 LINE",
"140 714 LINE",
"115 0 LINE"
);
}
);
userData = {
com.fontlab.metricsLeft = N;
com.fontlab.metricsRight = N;
};
vertWidth = 0;
width = 822;
}
);
note = "";
unicode = "014A,014B";
},
{
color = (255, 153, 253, 255);
glyphname = Nhookleft;
layers = (
{
layerId = "879304B0-C0BD-4EE0-9B7F-878EED11B82D";
paths = (
{
closed = 1;
nodes = (
"111.101 -112.473 OFFCURVE",
"101.08 -175.832 OFFCURVE",
"38 -221 CURVE",
"40 -227 LINE",
"148.83 -192.55 OFFCURVE",
"186.744 -72.8848 OFFCURVE",
"181.462 63.9487 CURVE SMOOTH",
"161 594 LINE",
"167 594 LINE",
"670 -14 LINE",
"682 -14 LINE",
"707 700 LINE",
"639 700 LINE",
"661 106 LINE",
"655 106 LINE",
"152 714 LINE",
"140 714 LINE",
"117.3 64.8 LINE SMOOTH"
);
}
);
vertWidth = 0;
width = 780;
}
);
note = "";
unicode = "019D,0272";
},
{
color = (255, 153, 253, 255);
glyphname = Oogonek;
layers = (
{
anchors = (
{
name = top;
position = "{400, 765}";
}
);
components = (
{
name = O;
transform = "{1, 0, 0, 1, 0.75, 0}";
}
);
guideLines = (
{
angle = 90;
position = "{400, 0}";
}
);
layerId = "879304B0-C0BD-4EE0-9B7F-878EED11B82D";
paths = (
{
closed = 1;
nodes = (
"518 -164 LINE",
"504 -174 OFFCURVE",
"487 -180 OFFCURVE",
"473 -180 CURVE SMOOTH",
"444 -180 OFFCURVE",
"426 -157.684 OFFCURVE",
"426 -114.731 CURVE SMOOTH",
"426 -87.9459 OFFCURVE",
"433 -53.5418 OFFCURVE",
"471 -9.54179 CURVE",
"470 0.45821 LINE",
"463 0.45821 LINE",
"387.801 -50.2335 OFFCURVE",
"366 -91.2367 OFFCURVE",
"366 -134.903 CURVE SMOOTH",
"366 -187.823 OFFCURVE",
"398 -220 OFFCURVE",
"447 -220 CURVE SMOOTH",
"478 -220 OFFCURVE",
"503 -207 OFFCURVE",
"529 -178 CURVE"
);
}
);
userData = {
com.fontlab.metricsLeft = O;
com.fontlab.metricsRight = O;
};
vertWidth = 0;
width = 889;
}
);
leftKerningGroup = O_C_G_Q;
note = "";
rightKerningGroup = D_O_Q;
unicode = "01EA,01EB";
},
{
color = (255, 153, 253, 255);
glyphname = Oslash;
layers = (
{
anchors = (
{
name = top;
position = "{444, 765}";
}
);
components = (
{
name = O;
}
);
guideLines = (
{
angle = 90;
position = "{444, 0}";
},
{
position = "{0, 350}";
},
{
angle = 90;
position = "{35, 0}";
},
{
angle = 90;
position = "{763, 0}";
}
);
layerId = "879304B0-C0BD-4EE0-9B7F-878EED11B82D";
paths = (
{
closed = 1;
nodes = (
"213 -75 LINE",
"691 754 LINE",
"669 766 LINE",
"191 -63 LINE"
);
}
);
userData = {
com.fontlab.metricsLeft = O;
com.fontlab.metricsRight = O;
};
vertWidth = 0;
width = 888;
}
);
leftKerningGroup = O_C_G_Q;
note = "";
rightKerningGroup = D_O_Q;
unicode = "00D8,00F8";
},
{
color = (255, 153, 253, 255);
glyphname = OE;
layers = (
{
background = {
guideLines = (
{
angle = 90;
position = "{102, 0}";
},
{
angle = 90;
position = "{211, 0}";
},
{
angle = 90;
position = "{57, 0}";
},
{
position = "{0, 615}";
}
);
paths = (
{
closed = 1;
nodes = (
"603 355 LINE SMOOTH",
"611.532 355 OFFCURVE",
"632.198 354 OFFCURVE",
"665 352 CURVE SMOOTH",
"829 342 LINE",
"829 388 LINE",
"665 378 LINE SMOOTH",
"632.198 376 OFFCURVE",
"611.532 375 OFFCURVE",
"603 375 CURVE SMOOTH",
"593 375 LINE",
"593 355 LINE"
);
},
{
closed = 1;
nodes = (
"603 0 LINE",
"603 700 LINE",
"535 700 LINE",
"535 0 LINE"
);
},
{
closed = 1;
nodes = (
"593 680 LINE",
"602.914 680 LINE SMOOTH",
"613.905 680 OFFCURVE",
"634.6 678 OFFCURVE",
"665 674 CURVE SMOOTH",
"840 651 LINE",
"840 700 LINE",
"593 700 LINE"
);
},
{
closed = 1;
nodes = (
"843 0 LINE",
"843 49 LINE",
"666 26 LINE SMOOTH",
"635.6 22 OFFCURVE",
"614.6 20 OFFCURVE",
"603 20 CURVE SMOOTH",
"593 20 LINE",
"593 0 LINE"
);
},
{
closed = 1;
nodes = (
"136 536 OFFCURVE",
"247 678 OFFCURVE",
"415 678 CURVE SMOOTH",
"534 678 LINE",
"534 700 LINE",
"403 700 LINE SMOOTH",
"209 700 OFFCURVE",
"60 548 OFFCURVE",
"60 350 CURVE SMOOTH",
"60 152 OFFCURVE",
"209 0 OFFCURVE",
"403 0 CURVE SMOOTH",
"557 0 LINE",
"557 22 LINE",
"415 22 LINE SMOOTH",
"247 22 OFFCURVE",
"136 164 OFFCURVE",
"136 350 CURVE SMOOTH"
);
}
);
userData = {
com.schriftgestaltung.Glyphs.backgroundWidth = 913;
};
vertWidth = 0;
};
components = (
{
name = E;
transform = "{1, 0, 0, 1, 415, 0}";
}
);
guideLines = (
{
angle = 90;
position = "{452, 0}";
},
{
position = "{0, 350}";
}
);
layerId = "879304B0-C0BD-4EE0-9B7F-878EED11B82D";
paths = (
{
closed = 1;
nodes = (
"80 142.634 OFFCURVE",
"236.45 -10 OFFCURVE {name = hr01;}",
"449 -10 CURVE SMOOTH",
"495 -10 OFFCURVE",
"546 -2.7083 OFFCURVE",
"593 11 CURVE",
"589 30 LINE",
"542.226 18.7742 OFFCURVE",
"492.667 12 OFFCURVE",
"452 12 CURVE SMOOTH",
"271.535 12 OFFCURVE",
"156 143.634 OFFCURVE",
"156 350 CURVE SMOOTH",
"156 555.557 OFFCURVE",
"272.115 688 OFFCURVE {name = hr02;}",
"452 688 CURVE SMOOTH",
"492.667 688 OFFCURVE",
"542.226 681.226 OFFCURVE",
"589 670 CURVE",
"593 689 LINE",
"546 702.708 OFFCURVE",
"495 710 OFFCURVE",
"449 710 CURVE SMOOTH",
"236.45 710 OFFCURVE",
"80 557.366 OFFCURVE",
"80 350 CURVE SMOOTH"
);
}
);
userData = {
com.fontlab.metricsLeft = O;
com.fontlab.metricsRight = E;
};
vertWidth = 0;
width = 933;
}
);
leftKerningGroup = O_C_G_Q;
note = "";
unicode = "0152,0153";
},
{
color = (255, 153, 253, 255);
glyphname = Germandbls;
layers = (
{
background = {
paths = (
{
closed = 1;
nodes = (
"178 0 LINE",
"178 426 LINE SMOOTH",
"178 587 OFFCURVE",
"258 692 OFFCURVE",
"380 692 CURVE SMOOTH",
"442.132 692 OFFCURVE",
"495.081 665.284 OFFCURVE",
"518.25 621.769 CURVE",
"346 381 LINE",
"355 363 LINE",
"386 363 LINE SMOOTH",
"516 363 OFFCURVE",
"585 299 OFFCURVE",
"585 181 CURVE SMOOTH",
"585 79 OFFCURVE",
"527 8 OFFCURVE",
"441 8 CURVE SMOOTH",
"392 8 OFFCURVE",
"331 31 OFFCURVE",
"289 79 CURVE",
"283 79 LINE",
"277 22 LINE",
"320 0 OFFCURVE",
"386 -14 OFFCURVE",
"441 -14 CURVE SMOOTH",
"572 -14 OFFCURVE",
"659 66 OFFCURVE",
"659 181 CURVE SMOOTH",
"659 300.869 OFFCURVE",
"570.305 377.296 OFFCURVE",
"427.355 384.449 CURVE",
"589 610 LINE",
"589 610.565 LINE",
"576.158 615.419 LINE",
"589 617 LINE",
"550 679 OFFCURVE",
"472 714 OFFCURVE",
"380 714 CURVE SMOOTH",
"215 714 OFFCURVE",
"110 601 OFFCURVE",
"110 420 CURVE SMOOTH",
"110 0 LINE"
);
}
);
userData = {
com.schriftgestaltung.Glyphs.backgroundWidth = 719;
};
vertWidth = 0;
};
guideLines = (
{
position = "{0, 621}";
}
);
layerId = "879304B0-C0BD-4EE0-9B7F-878EED11B82D";
paths = (
{
closed = 1;
nodes = (
"188 0 LINE",
"188 426 LINE SMOOTH",
"188 587 OFFCURVE",
"268 692 OFFCURVE",
"390 692 CURVE SMOOTH",
"452.148 692 OFFCURVE",
"505.167 664.092 OFFCURVE",
"528.282 621.815 CURVE",
"356 381 LINE",
"365 363 LINE",
"396 363 LINE SMOOTH",
"526 363 OFFCURVE",
"595 299 OFFCURVE",
"595 181 CURVE SMOOTH",
"595 79 OFFCURVE",
"537 8 OFFCURVE {name = hr01;}",
"451 8 CURVE SMOOTH",
"402 8 OFFCURVE",
"341 31 OFFCURVE",
"299 79 CURVE",
"293 79 LINE",
"287 22 LINE",
"330 0 OFFCURVE {name = hr02;}",
"396 -14 OFFCURVE {name = hr03;}",
"451 -14 CURVE SMOOTH",
"582 -14 OFFCURVE",
"669 66 OFFCURVE",
"669 181 CURVE SMOOTH",
"669 300.874 OFFCURVE",
"580.298 377.302 OFFCURVE",
"437.338 384.45 CURVE",
"605.539 619.56 LINE",
"605.764 619.875 LINE",
"605.693 619.981 OFFCURVE",
"605.621 620.088 OFFCURVE",
"605.549 620.194 CURVE",
"565.712 679.276 OFFCURVE",
"481.701 714 OFFCURVE",
"390 714 CURVE SMOOTH",
"225 714 OFFCURVE",
"120 601 OFFCURVE",
"120 420 CURVE SMOOTH",
"120 0 LINE {name = hr04;}"
);
}
);
userData = {
com.fontlab.metricsLeft = U;
com.fontlab.metricsRight = B;
};
vertWidth = 0;
width = 739;
}
);
note = "";
unicode = "1E9E,00DF";
},
{
color = (255, 153, 253, 255);
glyphname = Tbar;
layers = (
{
components = (
{
name = T;
}
);
guideLines = (
{
angle = 90;
position = "{324, 0}";
}
);
layerId = "879304B0-C0BD-4EE0-9B7F-878EED11B82D";
paths = (
{
closed = 1;
nodes = (
"491 352 LINE",
"491 376 LINE",
"157 376 LINE",
"157 352 LINE"
);
}
);
userData = {
com.fontlab.metricsLeft = T;
com.fontlab.metricsRight = T;
};
vertWidth = 0;
width = 648;
}
);
leftKerningGroup = T_gr;
note = "";
rightKerningGroup = T_gr;
unicode = "0166,0167";
},
{
color = (153, 255, 154, 255);
glyphname = Thorn;
layers = (
{
layerId = "879304B0-C0BD-4EE0-9B7F-878EED11B82D";
paths = (
{
closed = 1;
nodes = (
"255 164 LINE SMOOTH",
"416 164 OFFCURVE",
"510 236 OFFCURVE",
"510 359 CURVE SMOOTH",
"510 482 OFFCURVE",
"416 554 OFFCURVE",
"255 554 CURVE SMOOTH",
"161 554 LINE",
"161 530 LINE",
"255 530 LINE SMOOTH",
"376 530 OFFCURVE",
"438 473 OFFCURVE",
"438 359 CURVE SMOOTH",
"438 245 OFFCURVE",
"376 188 OFFCURVE",
"255 188 CURVE SMOOTH",
"161 188 LINE",
"161 164 LINE"
);
},
{
closed = 1;
nodes = (
"198 0 LINE",
"198 700 LINE",
"130 700 LINE",
"130 0 LINE"
);
}
);
userData = {
com.fontlab.metricsLeft = H;
com.fontlab.metricsRight = P;
};
vertWidth = 0;
width = 570;
}
);
note = "";
unicode = "00DE,00FE";
},
{
color = (255, 153, 253, 255);
glyphname = Uogonek;
layers = (
{
background = {
paths = (
{
closed = 1;
nodes = (
"120 280 LINE SMOOTH",
"120 97 OFFCURVE",
"226.965 -14 OFFCURVE",
"406.626 -14 CURVE SMOOTH",
"573.824 -14 OFFCURVE",
"665.212 69.9922 OFFCURVE",
"671 230 CURVE SMOOTH",
"688 700 LINE",
"620 700 LINE",
"637 230 LINE SMOOTH",
"641.411 108.057 OFFCURVE",
"550 22 OFFCURVE",
"415 22 CURVE SMOOTH",
"271 22 OFFCURVE",
"188 117 OFFCURVE",
"188 278 CURVE SMOOTH",
"188 700 LINE",
"120 700 LINE"
);
},
{
closed = 1;
nodes = (
"558 -164 LINE",
"544 -174 OFFCURVE",
"527 -180 OFFCURVE",
"513 -180 CURVE SMOOTH",
"484 -180 OFFCURVE",
"466 -156 OFFCURVE",
"466 -118 CURVE SMOOTH",
"466 -81 OFFCURVE",
"483 -44 OFFCURVE",
"521 0 CURVE",
"519 10 LINE {name = hr01;}",
"510 10 LINE",
"437 -42 OFFCURVE",
"406 -85 OFFCURVE",
"406 -135 CURVE SMOOTH",
"406 -186 OFFCURVE",
"438 -220 OFFCURVE",
"487 -220 CURVE SMOOTH",
"518 -220 OFFCURVE",
"543 -207 OFFCURVE",
"569 -178 CURVE"
);
}
);
userData = {
com.schriftgestaltung.Glyphs.backgroundWidth = 750;
};
vertWidth = 0;
};
components = (
{
name = U;
}
);
layerId = "879304B0-C0BD-4EE0-9B7F-878EED11B82D";
paths = (
{
closed = 1;
nodes = (
"485 -164 LINE",
"471 -174 OFFCURVE",
"454 -180 OFFCURVE",
"440 -180 CURVE SMOOTH",
"411 -180 OFFCURVE",
"393 -157.684 OFFCURVE",
"393 -114.731 CURVE SMOOTH",
"393 -87.9459 OFFCURVE",
"400 -53.5418 OFFCURVE",
"438 -9.54179 CURVE",
"437 0.45821 LINE",
"430 0.45821 LINE",
"354.801 -50.2335 OFFCURVE",
"333 -91.2367 OFFCURVE",
"333 -134.903 CURVE SMOOTH",
"333 -187.823 OFFCURVE",
"365 -220 OFFCURVE",
"414 -220 CURVE SMOOTH",
"445 -220 OFFCURVE",
"470 -207 OFFCURVE",
"496 -178 CURVE"
);
}
);
userData = {
com.fontlab.metricsLeft = U;
com.fontlab.metricsRight = U;
com.fontlab.recipe = "U+ogonek";
};
vertWidth = 0;
width = 798;
}
);
leftKerningGroup = U_gr;
note = "";
rightKerningGroup = U_gr;
unicode = "0172,0173";
},
{
color = (255, 153, 253, 255);
glyphname = Schwa;
layers = (
{
layerId = "879304B0-C0BD-4EE0-9B7F-878EED11B82D";
paths = (
{
closed = 1;
nodes = (
"575.242 -15 OFFCURVE",
"719 144.346 OFFCURVE",
"719 355.97 CURVE SMOOTH",
"719 569.36 OFFCURVE",
"574.545 714 OFFCURVE",
"360.428 714 CURVE SMOOTH",
"287.424 714 OFFCURVE",
"186.727 698.724 OFFCURVE",
"131 676 CURVE",
"136 620 LINE",
"142 620 LINE",
"204.416 666.568 OFFCURVE",
"283.762 690 OFFCURVE",
"359.975 690 CURVE SMOOTH",
"535.108 690 OFFCURVE",
"643 563.448 OFFCURVE",
"643 355.97 CURVE SMOOTH",
"643 147.707 OFFCURVE",
"538.576 9 OFFCURVE",
"384.016 9 CURVE SMOOTH",
"234.181 9 OFFCURVE",
"140 133.209 OFFCURVE",
"140 334 CURVE SMOOTH",
"140 345 LINE",
"64 345 LINE",
"64 334.783 LINE SMOOTH",
"64 133.172 OFFCURVE",
"199.691 -15 OFFCURVE",
"384.321 -15 CURVE SMOOTH"
);
},
{
closed = 1;
nodes = (
"692 321 LINE",
"692 345 LINE",
"107 345 LINE",
"107 321 LINE"
);
}
);
vertWidth = 0;
width = 789;
}
);
note = "";
rightKerningGroup = D_O_Q;
unicode = "018F,0259";
},
{
color = (255, 153, 253, 255);
glyphname = acute;
layers = (
{
anchors = (
{
name = _top;
position = "{130, 755}";
}
);
layerId = "879304B0-C0BD-4EE0-9B7F-878EED11B82D";
paths = (
{
closed = 1;
nodes = (
"84 753 LINE",
"258 881 LINE",
"258 887 LINE",
"168 887 LINE",
"71 765 LINE"
);
}
);
vertWidth = 0;
width = 285;
}
);
note = "";
unicode = 00B4;
},
{
color = (255, 153, 253, 255);
glyphname = hungarumlaut;
layers = (
{
anchors = (
{
name = _top;
position = "{190, 755}";
}
);
layerId = "879304B0-C0BD-4EE0-9B7F-878EED11B82D";
paths = (
{
closed = 1;
nodes = (
"84 753 LINE",
"238 883 LINE",
"238 889 LINE",
"157 889 LINE",
"71 765 LINE"
);
},
{
closed = 1;
nodes = (
"244 753 LINE",
"398 883 LINE",
"398 889 LINE",
"317 889 LINE",
"231 765 LINE"
);
}
);
userData = {
com.fontlab.metricsLeft = acute;
com.fontlab.metricsRight = acute;
};
vertWidth = 0;
width = 425;
}
);
note = "";
unicode = 02DD;
},
{
color = (255, 153, 253, 255);
glyphname = caron;
layers = (
{
anchors = (
{
name = _top;
position = "{204, 755}";
}
);
guideLines = (
{
position = "{0, 907}";
},
{
position = "{0, 895}";
},
{
angle = 90;
position = "{204, 0}";
}
);
layerId = "879304B0-C0BD-4EE0-9B7F-878EED11B82D";
paths = (
{
closed = 1;
nodes = (
"217 765 LINE",
"338 895 LINE",
"325 907 LINE",
"204 827 LINE",
"83 907 LINE",
"70 895 LINE",
"191 765 LINE"
);
}
);
vertWidth = 0;
width = 408;
}
);
note = "";
unicode = 02C7;
},
{
color = (255, 153, 253, 255);
glyphname = caron.salt;
layers = (
{
anchors = (
{
name = _right;
position = "{73, 290}";
}
);
guideLines = (
{
position = "{0, 350}";
},
{
angle = 90;
position = "{73, 0}";
}
);
layerId = "879304B0-C0BD-4EE0-9B7F-878EED11B82D";
paths = (
{
closed = 1;
nodes = (
"73 697 OFFCURVE",
"88 710 OFFCURVE",
"109 710 CURVE SMOOTH",
"137 710 OFFCURVE",
"153 690 OFFCURVE",
"153 656 CURVE SMOOTH",
"153 614 OFFCURVE",
"129 560 OFFCURVE",
"89 515 CURVE",
"75 526 LINE",
"90 546 OFFCURVE",
"98 572 OFFCURVE {name = hr01;}",
"98 599 CURVE SMOOTH",
"98 620 OFFCURVE",
"93 634 OFFCURVE",
"82 652 CURVE SMOOTH",
"77 660 OFFCURVE",
"73 667 OFFCURVE {name = hr02;}",
"73 677 CURVE SMOOTH"
);
}
);
vertWidth = 0;
width = 223;
}
);
note = "";
},
{
color = (255, 153, 253, 255);
glyphname = breve;
layers = (
{
anchors = (
{
name = _top;
position = "{199, 755}";
}
);
guideLines = (
{
angle = 90;
position = "{199, 0}";
},
{
position = "{0, 896}";
},
{
position = "{0, 845}";
},
{
position = "{0, 816}";
},
{
position = "{0, 902}";
},
{
position = "{0, 814}";
}
);
layerId = "879304B0-C0BD-4EE0-9B7F-878EED11B82D";
paths = (
{
closed = 1;
nodes = (
"263 767 OFFCURVE",
"310 814 OFFCURVE",
"328 896 CURVE",
"311 902 LINE",
"278 845 OFFCURVE",
"249 825 OFFCURVE",
"199 825 CURVE SMOOTH",
"149 825 OFFCURVE",
"120 845 OFFCURVE",
"87 902 CURVE",
"70 896 LINE",
"88 814 OFFCURVE",
"135 767 OFFCURVE",
"199 767 CURVE SMOOTH"
);
}
);
vertWidth = 0;
width = 398;
}
);
note = "";
unicode = 02D8;
},
{
color = (255, 153, 253, 255);
glyphname = macron;
layers = (
{
anchors = (
{
name = _top;
position = "{184, 755}";
}
);
guideLines = (
{
angle = 90;
position = "{184, 0}";
},
{
position = "{0, 836}";
}
);
layerId = "879304B0-C0BD-4EE0-9B7F-878EED11B82D";
paths = (
{
closed = 1;
nodes = (
"318 808 LINE",
"318 848 LINE",
"50 848 LINE",
"50 808 LINE"
);
}
);
vertWidth = 0;
width = 368;
}
);
note = "";
unicode = 00AF;
},
{
color = (255, 153, 253, 255);
glyphname = tilde;
layers = (
{
anchors = (
{
name = _top;
position = "{202, 755}";
}
);
guideLines = (
{
position = "{0, 781}";
},
{
position = "{0, 907}";
},
{
position = "{0, 892}";
},
{
angle = 90;
position = "{202, 0}";
}
);
layerId = "879304B0-C0BD-4EE0-9B7F-878EED11B82D";
paths = (
{
closed = 1;
nodes = (
"190 877 OFFCURVE",
"168 890 OFFCURVE",
"140 890 CURVE SMOOTH",
"103 890 OFFCURVE",
"77 867 OFFCURVE",
"42 798 CURVE",
"57 788 LINE",
"85 826 OFFCURVE",
"105 836 OFFCURVE",
"126 836 CURVE SMOOTH",
"150 836 OFFCURVE",
"172 822 OFFCURVE",
"192 809 CURVE SMOOTH",
"214 795 OFFCURVE",
"236 782 OFFCURVE {name = hr01;}",
"264 782 CURVE SMOOTH",
"301 782 OFFCURVE",
"327 805 OFFCURVE",
"362 874 CURVE",
"347 884 LINE",
"319 846 OFFCURVE",
"299 836 OFFCURVE",
"278 836 CURVE SMOOTH",
"254 836 OFFCURVE",
"232 850 OFFCURVE",
"212 863 CURVE SMOOTH"
);
}
);
vertWidth = 0;
width = 404;
}
);
note = "";
unicode = 02DC;
},
{
color = (255, 153, 253, 255);
glyphname = dotaccent;
layers = (
{
anchors = (
{
name = _top;
position = "{118, 755}";
}
);
guideLines = (
{
angle = 90;
position = "{118, 0}";
},
{
position = "{0, 835}";
}
);
layerId = "879304B0-C0BD-4EE0-9B7F-878EED11B82D";
paths = (
{
closed = 1;
nodes = (
"70 807 OFFCURVE",
"90 787 OFFCURVE",
"118 787 CURVE SMOOTH",
"146 787 OFFCURVE",
"166 807 OFFCURVE",
"166 835 CURVE SMOOTH",
"166 863 OFFCURVE",
"146 883 OFFCURVE",
"118 883 CURVE SMOOTH",
"90 883 OFFCURVE",
"70 863 OFFCURVE",
"70 835 CURVE SMOOTH"
);
}
);
vertWidth = 0;
width = 236;
}
);
note = "";
unicode = 02D9;
},
{
color = (255, 153, 253, 255);
glyphname = dieresis;
layers = (
{
anchors = (
{
name = _top;
position = "{218, 755}";
}
);
guideLines = (
{
angle = 90;
position = "{115, 0}";
},
{
position = "{0, 835}";
},
{
angle = 90;
position = "{317, 0}";
},
{
angle = 90;
position = "{219, 0}";
}
);
layerId = "879304B0-C0BD-4EE0-9B7F-878EED11B82D";
paths = (
{
closed = 1;
nodes = (
"276 809 OFFCURVE",
"295 790 OFFCURVE",
"321 790 CURVE SMOOTH",
"347 790 OFFCURVE",
"366 809 OFFCURVE",
"366 835 CURVE SMOOTH",
"366 861 OFFCURVE",
"347 880 OFFCURVE",
"321 880 CURVE SMOOTH",
"295 880 OFFCURVE",
"276 861 OFFCURVE",
"276 835 CURVE SMOOTH"
);
},
{
closed = 1;
nodes = (
"70 809 OFFCURVE",
"89 790 OFFCURVE",
"115 790 CURVE SMOOTH",
"141 790 OFFCURVE",
"160 809 OFFCURVE",
"160 835 CURVE SMOOTH",
"160 861 OFFCURVE",
"141 880 OFFCURVE",
"115 880 CURVE SMOOTH",
"89 880 OFFCURVE",
"70 861 OFFCURVE",
"70 835 CURVE SMOOTH"
);
}
);
vertWidth = 0;
width = 436;
}
);
note = "";
unicode = 00A8;
},
{
color = (255, 153, 253, 255);
glyphname = ring;
layers = (
{
anchors = (
{
name = _top;
position = "{154, 755}";
}
);
guideLines = (
{
position = "{0, 830}";
},
{
angle = 90;
position = "{154, 0}";
}
);
layerId = "879304B0-C0BD-4EE0-9B7F-878EED11B82D";
paths = (
{
closed = 1;
nodes = (
"60 774 OFFCURVE",
"99 737 OFFCURVE",
"154 737 CURVE SMOOTH",
"209 737 OFFCURVE",
"248 774 OFFCURVE",
"248 825 CURVE SMOOTH",
"248 876 OFFCURVE",
"209 913 OFFCURVE",
"154 913 CURVE SMOOTH",
"99 913 OFFCURVE",
"60 876 OFFCURVE",
"60 825 CURVE SMOOTH"
);
},
{
closed = 1;
nodes = (
"181 895 OFFCURVE",
"202 866 OFFCURVE",
"202 825 CURVE SMOOTH",
"202 784 OFFCURVE",
"181 755 OFFCURVE",
"154 755 CURVE SMOOTH",
"126 755 OFFCURVE",
"106 784 OFFCURVE",
"106 825 CURVE SMOOTH",
"106 866 OFFCURVE",
"126 895 OFFCURVE",
"154 895 CURVE SMOOTH"
);
}
);
userData = {
com.fontlab.metricsLeft = "=60";
com.fontlab.metricsRight = "=60";
};
vertWidth = 0;
width = 308;
}
);
note = "";
unicode = 02DA;
},
{
color = (255, 153, 253, 255);
glyphname = cedilla;
layers = (
{
anchors = (
{
name = _bottom;
position = "{134, 0}";
}
);
guideLines = (
{
position = "{0, -220}";
},
{
angle = 90;
position = "{140, 0}";
}
);
layerId = "879304B0-C0BD-4EE0-9B7F-878EED11B82D";
paths = (
{
closed = 1;
nodes = (
"138 -84 OFFCURVE",
"161 -107 OFFCURVE",
"161 -142 CURVE SMOOTH",
"161 -175 OFFCURVE",
"140 -196 OFFCURVE",
"105 -196 CURVE SMOOTH",
"92 -196 OFFCURVE",
"74 -193 OFFCURVE",
"56 -187 CURVE",
"51 -204 LINE",
"88 -216 OFFCURVE",
"105 -220 OFFCURVE",
"125 -220 CURVE SMOOTH",
"184 -220 OFFCURVE",
"221 -187 OFFCURVE",
"221 -136 CURVE SMOOTH",
"221 -90 OFFCURVE",
"190 -64 OFFCURVE",
"127 -52 CURVE",
"149 4 LINE",
"127 4 LINE",
"95 -76 LINE"
);
}
);
vertWidth = 0;
width = 285;
}
);
note = "";
unicode = 00B8;
},
{
color = (255, 153, 253, 255);
glyphname = ogonek;
layers = (
{
anchors = (
{
name = _bottom;
position = "{185, 0}";
}
);
guideLines = (
{
angle = 90;
position = "{185, 0}";
},
{
position = "{0, -220}";
}
);
layerId = "879304B0-C0BD-4EE0-9B7F-878EED11B82D";
paths = (
{
closed = 1;
nodes = (
"222 -164 LINE",
"208 -174 OFFCURVE",
"191 -180 OFFCURVE",
"177 -180 CURVE SMOOTH",
"148 -180 OFFCURVE",
"130 -156 OFFCURVE",
"130 -118 CURVE SMOOTH",
"130 -81 OFFCURVE",
"147 -44 OFFCURVE",
"185 0 CURVE",
"183 10 LINE",
"174 10 LINE",
"101 -42 OFFCURVE",
"70 -85 OFFCURVE",
"70 -135 CURVE SMOOTH",
"70 -186 OFFCURVE",
"102 -220 OFFCURVE",
"151 -220 CURVE SMOOTH",
"182 -220 OFFCURVE",
"207 -207 OFFCURVE",
"233 -178 CURVE"
);
}
);
vertWidth = 0;
width = 265;
}
);
note = "";
unicode = 02DB;
},
{
color = (255, 153, 253, 255);
glyphname = commaaccentcomb;
layers = (
{
anchors = (
{
name = _bottom;
position = "{119, 0}";
}
);
guideLines = (
{
angle = 90;
position = "{119, 0}";
},
{
angle = 90;
position = "{71, 0}";
}
);
layerId = "879304B0-C0BD-4EE0-9B7F-878EED11B82D";
paths = (
{
closed = 1;
nodes = (
"70.5242 -73.3736 OFFCURVE",
"90.8676 -53.9549 OFFCURVE",
"118.609 -53.9549 CURVE SMOOTH",
"150.048 -53.9549 OFFCURVE",
"167.618 -78.9218 OFFCURVE",
"167.618 -124.232 CURVE SMOOTH",
"167.618 -174.166 OFFCURVE",
"146.35 -213.003 OFFCURVE",
"88.0935 -255.54 CURVE",
"76.9971 -241.669 LINE",
"126.006 -201.907 OFFCURVE",
"138.027 -174.166 OFFCURVE {name = hr01;}",
"138.027 -130.705 CURVE",
"131.554 -139.027 OFFCURVE",
"123.232 -142.726 OFFCURVE",
"112.136 -142.726 CURVE SMOOTH",
"87.1688 -142.726 OFFCURVE",
"70.5242 -124.232 OFFCURVE {name = hr02;}",
"70.5242 -100.19 CURVE SMOOTH"
);
}
);
vertWidth = 0;
width = 238;
}
);
note = "";
unicode = 0326;
},
{
color = (255, 255, 153, 255);
glyphname = section;
layers = (
{
guideLines = (
{
position = "{0, 441}";
},
{
position = "{0, 689}";
}
);
layerId = "879304B0-C0BD-4EE0-9B7F-878EED11B82D";
paths = (
{
closed = 1;
nodes = (
"373 187 OFFCURVE",
"430 246 OFFCURVE",
"430 323 CURVE SMOOTH",
"430 387 OFFCURVE",
"391 425 OFFCURVE",
"281 468 CURVE SMOOTH",
"183 505 OFFCURVE",
"152 536 OFFCURVE",
"152 589 CURVE SMOOTH",
"152 652 OFFCURVE",
"195 692 OFFCURVE",
"259 692 CURVE SMOOTH",
"302 692 OFFCURVE",
"341 674 OFFCURVE",
"377 639 CURVE",
"383 639 LINE",
"387 689 LINE",
"349 704 OFFCURVE",
"300 714 OFFCURVE",
"259 714 CURVE SMOOTH",
"163 714 OFFCURVE",
"100 658 OFFCURVE",
"100 574 CURVE SMOOTH",
"100 482 OFFCURVE",
"176 452 OFFCURVE",
"247 425 CURVE SMOOTH",
"345 386 OFFCURVE",
"378 350 OFFCURVE",
"378 302 CURVE SMOOTH",
"378 244 OFFCURVE",
"331 196 OFFCURVE",
"266 183 CURVE",
"280 171 LINE"
);
},
{
closed = 1;
nodes = (
"148 -74 OFFCURVE",
"208 -84 OFFCURVE",
"247 -84 CURVE SMOOTH",
"341 -84 OFFCURVE",
"404 -27 OFFCURVE {name = hr01;}",
"404 59 CURVE SMOOTH",
"404 127 OFFCURVE",
"365 170 OFFCURVE",
"255 215 CURVE SMOOTH",
"157 255 OFFCURVE",
"126 288 OFFCURVE",
"126 338 CURVE SMOOTH",
"126 395 OFFCURVE",
"166 440 OFFCURVE",
"239 461 CURVE",
"226 471 LINE",
"129 450 OFFCURVE",
"74 398 OFFCURVE",
"74 320 CURVE SMOOTH",
"74 227 OFFCURVE",
"150 195 OFFCURVE",
"221 166 CURVE SMOOTH",
"319 126 OFFCURVE",
"352 93 OFFCURVE",
"352 38 CURVE SMOOTH",
"352 -23 OFFCURVE",
"309 -62 OFFCURVE",
"247 -62 CURVE SMOOTH",
"201 -62 OFFCURVE",
"152 -42 OFFCURVE {name = hr02;}",
"109 -3 CURVE",
"103 -3 LINE",
"98 -57 LINE"
);
}
);
vertWidth = 0;
width = 504;
}
);
note = "";
unicode = 00A7;
},
{
color = (255, 255, 153, 255);
glyphname = numbersign;
layers = (
{
guideLines = (
{
angle = 90;
position = "{232, 0}";
}
);
layerId = "879304B0-C0BD-4EE0-9B7F-878EED11B82D";
paths = (
{
closed = 1;
nodes = (
"136 0 LINE",
"260 700 LINE",
"235 700 LINE",
"111 0 LINE"
);
},
{
closed = 1;
nodes = (
"518 203 LINE",
"518 259 LINE",
"35 259 LINE",
"35 203 LINE"
);
},
{
closed = 1;
nodes = (
"563 455 LINE",
"563 511 LINE {name = hr01;}",
"80 511 LINE",
"80 455 LINE"
);
},
{
closed = 1;
nodes = (
"360 0 LINE",
"484 700 LINE {name = hr02;}",
"459 700 LINE",
"335 0 LINE"
);
}
);
userData = {
com.fontlab.metricsRight = "|";
};
vertWidth = 0;
width = 598;
}
);
note = "";
unicode = 0023;
},
{
color = (255, 255, 153, 255);
glyphname = dagger;
layers = (
{
guideLines = (
{
angle = 90;
position = "{236, 0}";
}
);
layerId = "879304B0-C0BD-4EE0-9B7F-878EED11B82D";
paths = (
{
closed = 1;
nodes = (
"245 -47 LINE",
"270 409 LINE",
"244 526 LINE",
"228 526 LINE",
"202 409 LINE",
"227 -47 LINE"
);
},
{
closed = 1;
nodes = (
"227 526 LINE",
"245 526 LINE",
"270 730 LINE",
"202 730 LINE"
);
},
{
closed = 1;
nodes = (
"427 493 LINE",
"427 561 LINE",
"239 536 LINE",
"239 518 LINE"
);
},
{
closed = 1;
nodes = (
"233 518 LINE",
"233 536 LINE",
"45 561 LINE",
"45 493 LINE"
);
}
);
userData = {
com.fontlab.metricsRight = "|";
};
vertWidth = 0;
width = 472;
}
);
note = "";
unicode = 2020;
},
{
color = (255, 255, 153, 255);
glyphname = daggerdbl;
layers = (
{
guideLines = (
{
position = "{0, 345}";
}
);
layerId = "879304B0-C0BD-4EE0-9B7F-878EED11B82D";
paths = (
{
closed = 1;
nodes = (
"245 526 LINE",
"227 526 LINE",
"202 347 LINE",
"227 168 LINE",
"245 168 LINE",
"270 347 LINE"
);
},
{
closed = 1;
nodes = (
"227 526 LINE",
"245 526 LINE",
"270 730 LINE",
"202 730 LINE"
);
},
{
closed = 1;
nodes = (
"427 493 LINE",
"427 561 LINE",
"239 536 LINE",
"239 518 LINE"
);
},
{
closed = 1;
nodes = (
"233 518 LINE",
"233 536 LINE",
"45 561 LINE",
"45 493 LINE"
);
},
{
closed = 1;
nodes = (
"270 -36 LINE",
"245 168 LINE",
"227 168 LINE",
"202 -36 LINE"
);
},
{
closed = 1;
nodes = (
"239 158 LINE",
"427 108 LINE",
"427 176 LINE",
"239 176 LINE"
);
},
{
closed = 1;
nodes = (
"45 108 LINE",
"233 158 LINE",
"233 176 LINE",
"45 176 LINE"
);
}
);
userData = {
com.fontlab.metricsWidth = dagger;
};
vertWidth = 0;
width = 472;
}
);
note = "";
unicode = 2021;
},
{
color = (255, 255, 153, 255);
glyphname = bullet;
layers = (
{
guideLines = (
{
position = "{0, 350}";
}
);
layerId = "879304B0-C0BD-4EE0-9B7F-878EED11B82D";
paths = (
{
closed = 1;
nodes = (
"90 295 OFFCURVE",
"138 247 OFFCURVE",
"206 247 CURVE SMOOTH",
"274 247 OFFCURVE",
"322 295 OFFCURVE",
"322 363 CURVE SMOOTH",
"322 431 OFFCURVE",
"274 479 OFFCURVE",
"206 479 CURVE SMOOTH",
"138 479 OFFCURVE",
"90 431 OFFCURVE",
"90 363 CURVE SMOOTH"
);
}
);
userData = {
com.fontlab.metricsRight = "|";
};
vertWidth = 0;
width = 412;
}
);
note = "";
unicode = 2022;
},
{
color = (255, 255, 153, 255);
glyphname = paragraph;
layers = (
{
layerId = "879304B0-C0BD-4EE0-9B7F-878EED11B82D";
paths = (
{
closed = 1;
nodes = (
"339 -94 LINE",
"339 700 LINE",
"289 700 LINE",
"289 -94 LINE"
);
},
{
closed = 1;
nodes = (
"483 -94 LINE",
"483 700 LINE",
"433 700 LINE",
"433 -94 LINE"
);
},
{
closed = 1;
nodes = (
"577 676 LINE",
"577 700 LINE",
"299 700 LINE",
"299 676 LINE"
);
},
{
closed = 1;
nodes = (
"75 401 OFFCURVE",
"155 327 OFFCURVE",
"277 327 CURVE SMOOTH",
"301 327 LINE",
"301 700 LINE",
"277 700 LINE SMOOTH",
"156 700 OFFCURVE",
"75 626 OFFCURVE",
"75 514 CURVE SMOOTH"
);
}
);
userData = {
com.fontlab.metricsLeft = "|P+15";
};
vertWidth = 0;
width = 629;
}
);
note = "";
unicode = 00B6;
},
{
color = (255, 255, 153, 255);
glyphname = ordfeminine;
layers = (
{
layerId = "879304B0-C0BD-4EE0-9B7F-878EED11B82D";
paths = (
{
closed = 1;
nodes = (
"88 348 LINE",
"182 669 LINE",
"185 669 LINE",
"312 348 LINE",
"366 348 LINE",
"224 700 LINE",
"176 700 LINE",
"34 348 LINE"
);
},
{
closed = 1;
nodes = (
"268 498 LINE",
"268 515 LINE",
"120 515 LINE",
"120 498 LINE"
);
}
);
userData = {
com.fontlab.metricsRight = "|";
};
vertWidth = 0;
width = 400;
}
);
note = "";
unicode = 00AA;
},
{
color = (255, 255, 153, 255);
glyphname = ordmasculine;
layers = (
{
guideLines = (
{
position = "{0, 524}";
},
{
angle = 90;
position = "{236, 0}";
}
);
layerId = "879304B0-C0BD-4EE0-9B7F-878EED11B82D";
paths = (
{
closed = 1;
nodes = (
"50 418 OFFCURVE",
"130 338 OFFCURVE",
"236 338 CURVE SMOOTH",
"342 338 OFFCURVE",
"422 418 OFFCURVE",
"422 524 CURVE SMOOTH",
"422 630 OFFCURVE",
"342 710 OFFCURVE",
"236 710 CURVE SMOOTH",
"130 710 OFFCURVE",
"50 630 OFFCURVE",
"50 524 CURVE SMOOTH"
);
},
{
closed = 1;
nodes = (
"106 625.519 OFFCURVE",
"157.707 693 OFFCURVE",
"236 693 CURVE SMOOTH",
"313.864 693 OFFCURVE",
"366 626 OFFCURVE",
"366 524 CURVE SMOOTH",
"366 422 OFFCURVE",
"313.864 355 OFFCURVE",
"236 355 CURVE SMOOTH",
"158.136 355 OFFCURVE",
"106 422 OFFCURVE",
"106 524 CURVE SMOOTH"
);
}
);
userData = {
com.fontlab.metricsRight = "|";
};
vertWidth = 0;
width = 472;
}
);
note = "";
unicode = 00BA;
},
{
color = (255, 255, 153, 255);
glyphname = trademark;
layers = (
{
guideLines = (
{
position = "{0, 348}";
}
);
layerId = "879304B0-C0BD-4EE0-9B7F-878EED11B82D";
paths = (
{
closed = 1;
nodes = (
"692 700 LINE",
"580.586 481.568 LINE",
"577.586 481.568 LINE",
"421 710 LINE",
"405 710 LINE",
"385 348 LINE",
"435 348 LINE",
"418 629 LINE",
"421 629 LINE",
"555 435 LINE",
"576 435 LINE",
"691 661 LINE",
"694 661 LINE",
"694 348 LINE",
"744 348 LINE",
"744 700 LINE"
);
},
{
closed = 1;
nodes = (
"204 348 LINE",
"204 700 LINE",
"154 700 LINE",
"154 348 LINE"
);
},
{
closed = 1;
nodes = (
"191 688 LINE",
"204 688 LINE",
"325 666 LINE",
"328 666 LINE",
"328 700 LINE",
"191 700 LINE"
);
},
{
closed = 1;
nodes = (
"30 700 LINE",
"30 666 LINE",
"33 666 LINE",
"154 688 LINE",
"166 688 LINE",
"166 700 LINE"
);
}
);
vertWidth = 0;
width = 838;
}
);
note = "";
unicode = 2122;
},
{
color = (255, 255, 153, 255);
glyphname = registered;
layers = (
{
guideLines = (
{
position = "{0, 583}";
}
);
layerId = "879304B0-C0BD-4EE0-9B7F-878EED11B82D";
paths = (
{
closed = 1;
nodes = (
"50 414 OFFCURVE",
"126 338 OFFCURVE",
"236 338 CURVE SMOOTH",
"346 338 OFFCURVE",
"422 414 OFFCURVE",
"422 524 CURVE SMOOTH",
"422 634 OFFCURVE",
"346 710 OFFCURVE",
"236 710 CURVE SMOOTH",
"126 710 OFFCURVE",
"50 634 OFFCURVE",
"50 524 CURVE SMOOTH"
);
},
{
closed = 1;
nodes = (
"76 622 OFFCURVE",
"142 690 OFFCURVE",
"236 690 CURVE SMOOTH",
"330 690 OFFCURVE",
"396 622 OFFCURVE",
"396 524 CURVE SMOOTH",
"396 426 OFFCURVE",
"330 358 OFFCURVE",
"236 358 CURVE SMOOTH",
"142 358 OFFCURVE",
"76 426 OFFCURVE",
"76 524 CURVE SMOOTH"
);
},
{
closed = 1;
nodes = (
"171 424 LINE",
"203 424 LINE",
"203 618 LINE",
"222 618 LINE SMOOTH",
"252 618 OFFCURVE {name = hr02;}",
"266 606 OFFCURVE",
"266 575 CURVE SMOOTH",
"266 545 OFFCURVE",
"252 535 OFFCURVE",
"220 535 CURVE SMOOTH",
"218 535 LINE",
"218 527 LINE",
"220 527 LINE SMOOTH",
"245 527 OFFCURVE",
"253 515 OFFCURVE",
"265 477 CURVE SMOOTH",
"273 452 OFFCURVE",
"285 424 OFFCURVE",
"325 424 CURVE SMOOTH",
"334 424 LINE {name = hr03;}",
"334 426 LINE",
"319 430 OFFCURVE",
"311 442 OFFCURVE",
"300 474 CURVE SMOOTH",
"287 511 OFFCURVE",
"277 523 OFFCURVE",
"256 529 CURVE",
"256 531 LINE",
"285 536 OFFCURVE",
"299 552 OFFCURVE",
"299 575 CURVE SMOOTH",
"299 609 OFFCURVE",
"270 628 OFFCURVE",
"222 628 CURVE SMOOTH",
"171 628 LINE"
);
}
);
userData = {
com.fontlab.metricsLeft = ordmasculine;
com.fontlab.metricsRight = "|";
};
vertWidth = 0;
width = 472;
}
);
note = "";
unicode = 00AE;
},
{
color = (255, 255, 153, 255);
glyphname = copyright;
layers = (
{
guideLines = (
{
angle = 90;
position = "{589, 0}";
}
);
layerId = "879304B0-C0BD-4EE0-9B7F-878EED11B82D";
paths = (
{
closed = 1;
nodes = (
"80 139 OFFCURVE",
"233 -14 OFFCURVE",
"444 -14 CURVE SMOOTH",
"655 -14 OFFCURVE",
"808 139 OFFCURVE",
"808 350 CURVE SMOOTH",
"808 561 OFFCURVE",
"655 714 OFFCURVE",
"444 714 CURVE SMOOTH",
"233 714 OFFCURVE",
"80 561 OFFCURVE",
"80 350 CURVE SMOOTH"
);
},
{
closed = 1;
nodes = (
"108 546.649 OFFCURVE",
"249.665 690 OFFCURVE",
"444 690 CURVE SMOOTH",
"637.841 690 OFFCURVE",
"780 546.149 OFFCURVE",
"780 350 CURVE SMOOTH",
"780 153.851 OFFCURVE",
"637.841 10 OFFCURVE",
"444 10 CURVE SMOOTH",
"250.159 10 OFFCURVE",
"108 153.851 OFFCURVE",
"108 350 CURVE SMOOTH"
);
},
{
closed = 1;
nodes = (
"590 209 LINE",
"555 179 OFFCURVE",
"515 159 OFFCURVE",
"461 159 CURVE SMOOTH",
"359 159 OFFCURVE {name = hr02;}",
"299 231 OFFCURVE",
"299 352 CURVE SMOOTH",
"299 473.419 OFFCURVE",
"358.802 545 OFFCURVE",
"461 545 CURVE SMOOTH",
"512 545 OFFCURVE",
"549 527 OFFCURVE",
"582 497 CURVE",
"586 497 LINE",
"589 537 LINE",
"547 554 OFFCURVE",
"500.692 563 OFFCURVE",
"461 563 CURVE SMOOTH",
"336 563 OFFCURVE",
"241 472 OFFCURVE",
"241 352 CURVE SMOOTH",
"241 232 OFFCURVE",
"336 141 OFFCURVE",
"461 141 CURVE SMOOTH",
"504 141 OFFCURVE",
"561 152 OFFCURVE",
"590 166 CURVE",
"594 209 LINE"
);
}
);
userData = {
com.fontlab.metricsLeft = O;
com.fontlab.metricsRight = O;
};
vertWidth = 0;
width = 888;
}
);
note = "";
unicode = 00A9;
},
{
color = (255, 255, 153, 255);
glyphname = soundcopyright;
layers = (
{
guideLines = (
{
position = "{0, 563}";
},
{
position = "{0, 141}";
}
);
layerId = "879304B0-C0BD-4EE0-9B7F-878EED11B82D";
paths = (
{
closed = 1;
nodes = (
"80 139 OFFCURVE",
"233 -14 OFFCURVE",
"444 -14 CURVE SMOOTH",
"655 -14 OFFCURVE",
"808 139 OFFCURVE",
"808 350 CURVE SMOOTH",
"808 561 OFFCURVE",
"655 714 OFFCURVE",
"444 714 CURVE SMOOTH",
"233 714 OFFCURVE",
"80 561 OFFCURVE",
"80 350 CURVE SMOOTH"
);
},
{
closed = 1;
nodes = (
"108 546.649 OFFCURVE",
"249.665 690 OFFCURVE",
"444 690 CURVE SMOOTH",
"637.841 690 OFFCURVE",
"780 546.149 OFFCURVE",
"780 350 CURVE SMOOTH",
"780 153.851 OFFCURVE",
"637.841 10 OFFCURVE",
"444 10 CURVE SMOOTH",
"250.159 10 OFFCURVE",
"108 153.851 OFFCURVE",
"108 350 CURVE SMOOTH"
);
},
{
closed = 1;
nodes = (
"441 329 LINE SMOOTH",
"536.252 329 OFFCURVE {name = hr03;}",
"593 371.188 OFFCURVE",
"593 442 CURVE SMOOTH",
"593 512.812 OFFCURVE",
"536.252 555 OFFCURVE",
"441 555 CURVE SMOOTH",
"377 555 LINE",
"377 537 LINE",
"435 537 LINE SMOOTH",
"504.532 537 OFFCURVE {name = hr02;}",
"539 505.514 OFFCURVE",
"539 442 CURVE SMOOTH",
"539 378.486 OFFCURVE",
"504.532 347 OFFCURVE",
"435 347 CURVE SMOOTH",
"377 347 LINE",
"377 329 LINE"
);
},
{
closed = 1;
nodes = (
"411 149 LINE",
"411 555 LINE",
"359 555 LINE",
"359 149 LINE"
);
}
);
userData = {
com.fontlab.metricsLeft = O;
com.fontlab.metricsRight = O;
};
vertWidth = 0;
width = 888;
}
);
note = "";
unicode = 2117;
},
{
color = (153, 254, 255, 255);
glyphname = litre;
layers = (
{
guideLines = (
{
angle = 90;
position = "{385, 0}";
}
);
layerId = "879304B0-C0BD-4EE0-9B7F-878EED11B82D";
paths = (
{
closed = 1;
nodes = (
"264.196 340.734 OFFCURVE",
"354.024 426.067 OFFCURVE",
"354.024 553.399 CURVE SMOOTH",
"354.024 647.879 OFFCURVE",
"304.568 714.362 OFFCURVE",
"236.6 714.362 CURVE SMOOTH",
"164.184 714.362 OFFCURVE",
"118.944 642.894 OFFCURVE",
"118.944 527.652 CURVE SMOOTH",
"118.944 161.568 LINE SMOOTH",
"118.944 50.772 OFFCURVE",
"169.016 -14 OFFCURVE",
"254.667 -14 CURVE SMOOTH",
"302.279 -14 OFFCURVE",
"341.186 6.01525 OFFCURVE",
"385 53.0479 CURVE",
"372.818 66.946 LINE",
"333.151 36.6551 OFFCURVE",
"302.69 23.4107 OFFCURVE",
"272.655 23.4107 CURVE SMOOTH",
"213.665 23.4107 OFFCURVE",
"180.819 74.4976 OFFCURVE",
"180.816 166.305 CURVE SMOOTH",
"180.806 545.588 LINE SMOOTH",
"180.804 642.284 OFFCURVE",
"199.874 690.415 OFFCURVE",
"236.56 690.415 CURVE SMOOTH",
"270.658 690.415 OFFCURVE",
"288.187 649.105 OFFCURVE",
"288.103 567.71 CURVE SMOOTH",
"287.966 433.549 OFFCURVE",
"240.148 358.726 OFFCURVE",
"156.099 311.945 CURVE",
"156.253 289.739 LINE"
);
},
{
closed = 1;
nodes = (
"117.182 300.841 OFFCURVE",
"73.8919 285.241 OFFCURVE",
"22.2796 272.088 CURVE",
"26.247 253.588 LINE",
"69.1975 263.48 OFFCURVE",
"114.576 277.05 OFFCURVE",
"156.253 296.739 CURVE",
"155.099 321.945 LINE"
);
}
);
vertWidth = 0;
width = 427;
}
);
note = "";
unicode = 2113;
},
{
color = (153, 254, 255, 255);
glyphname = estimated;
layers = (
{
layerId = "879304B0-C0BD-4EE0-9B7F-878EED11B82D";
paths = (
{
closed = 1;
nodes = (
"572 693 OFFCURVE",
"656 660 OFFCURVE",
"720 599 CURVE SMOOTH",
"733 586 OFFCURVE",
"741 567 OFFCURVE",
"741 549 CURVE SMOOTH",
"741 370 LINE SMOOTH",
"741 364 OFFCURVE",
"736 360 OFFCURVE",
"730 360 CURVE SMOOTH",
"239 360 LINE SMOOTH",
"233 360 OFFCURVE",
"228 364 OFFCURVE",
"228 370 CURVE SMOOTH",
"228 549 LINE SMOOTH",
"228 567 OFFCURVE",
"236 586 OFFCURVE",
"249 599 CURVE SMOOTH",
"313 660 OFFCURVE",
"398 693 OFFCURVE",
"484 693 CURVE SMOOTH"
);
},
{
closed = 1;
nodes = (
"262 714 OFFCURVE",
"80 551 OFFCURVE",
"80 350 CURVE SMOOTH",
"80 149 OFFCURVE",
"262 -14 OFFCURVE",
"484 -14 CURVE SMOOTH",
"609 -14 OFFCURVE",
"727 38 OFFCURVE",
"804 127 CURVE",
"744 127 LINE",
"679 52 OFFCURVE",
"583 7 OFFCURVE",
"484 7 CURVE SMOOTH",
"398 7 OFFCURVE",
"312 40 OFFCURVE",
"249 101 CURVE SMOOTH",
"235 114 OFFCURVE",
"228 133 OFFCURVE",
"228 151 CURVE SMOOTH",
"228 329 LINE SMOOTH",
"228 335 OFFCURVE",
"233 341 OFFCURVE",
"239 341 CURVE SMOOTH",
"889 341 LINE",
"889 350 LINE SMOOTH",
"889 551 OFFCURVE",
"708 714 OFFCURVE",
"484 714 CURVE SMOOTH"
);
}
);
userData = {
com.fontlab.metricsLeft = O;
com.fontlab.metricsRight = O;
};
vertWidth = 0;
width = 969;
}
);
note = "";
unicode = 212E;
},
{
color = (153, 254, 255, 255);
glyphname = partialdiff;
layers = (
{
guideLines = (
{
angle = 90;
position = "{45, 0}";
}
);
layerId = "879304B0-C0BD-4EE0-9B7F-878EED11B82D";
paths = (
{
closed = 1;
nodes = (
"416 -14 OFFCURVE",
"515 113 OFFCURVE",
"515 315 CURVE SMOOTH",
"515 528 OFFCURVE",
"370 700 OFFCURVE",
"170 718 CURVE",
"168 700 LINE",
"334 679 OFFCURVE",
"442 534 OFFCURVE",
"442 336 CURVE SMOOTH",
"442 139 OFFCURVE",
"369 10 OFFCURVE",
"260 10 CURVE SMOOTH",
"183 10 OFFCURVE",
"135 71 OFFCURVE",
"135 172 CURVE SMOOTH",
"135 305 OFFCURVE",
"207 398 OFFCURVE",
"311.71 398 CURVE SMOOTH",
"366 398 OFFCURVE",
"427 373 OFFCURVE",
"469 333 CURVE",
"479 351 LINE",
"428 400 OFFCURVE",
"364 425 OFFCURVE",
"291 425 CURVE SMOOTH",
"154 425 OFFCURVE",
"62 330 OFFCURVE",
"62 190 CURVE SMOOTH",
"62 64 OFFCURVE",
"137 -14 OFFCURVE",
"258 -14 CURVE SMOOTH"
);
}
);
userData = {
com.fontlab.metricsWidth = zero.tnum;
};
vertWidth = 0;
width = 582;
}
);
note = "";
unicode = 2202;
},
{
color = (153, 254, 255, 255);
glyphname = Omega;
layers = (
{
guideLines = (
{
angle = 90;
position = "{81, 0}";
},
{
angle = 90;
position = "{778, 0}";
}
);
layerId = "879304B0-C0BD-4EE0-9B7F-878EED11B82D";
paths = (
{
closed = 1;
nodes = (
"222 714 OFFCURVE",
"79 589 OFFCURVE",
"79 405 CURVE SMOOTH",
"79 253 OFFCURVE",
"173 134 OFFCURVE",
"341 86 CURVE",
"344 103 LINE",
"219 175 OFFCURVE",
"155 278 OFFCURVE",
"155 406 CURVE SMOOTH",
"155 577 OFFCURVE",
"267 690 OFFCURVE",
"435 690 CURVE SMOOTH",
"603 690 OFFCURVE",
"715 577 OFFCURVE",
"715 406 CURVE SMOOTH",
"715 278 OFFCURVE",
"651 175 OFFCURVE",
"526 103 CURVE",
"529 86 LINE",
"697 134 OFFCURVE",
"791 253 OFFCURVE",
"791 405 CURVE SMOOTH",
"791 589 OFFCURVE",
"648 714 OFFCURVE",
"435 714 CURVE SMOOTH"
);
},
{
closed = 1;
nodes = (
"358 0 LINE",
"335 60 LINE",
"68 60 LINE",
"68 0 LINE"
);
},
{
closed = 1;
nodes = (
"358 0 LINE",
"344 103 LINE",
"318 106 LINE",
"327 39 LINE"
);
},
{
closed = 1;
nodes = (
"802 60 LINE",
"535 60 LINE",
"512 0 LINE",
"802 0 LINE"
);
},
{
closed = 1;
nodes = (
"552 106 LINE",
"526 103 LINE",
"512 0 LINE",
"543 39 LINE"
);
}
);
userData = {
com.fontlab.metricsRight = " |";
};
vertWidth = 0;
width = 870;
}
);
note = "";
unicode = "03A9,03C9";
},
{
color = (153, 254, 255, 255);
glyphname = Delta;
layers = (
{
layerId = "879304B0-C0BD-4EE0-9B7F-878EED11B82D";
paths = (
{
closed = 1;
nodes = (
"99 0 LINE",
"301 646 LINE",
"307 646 LINE",
"554 0 LINE",
"627 0 LINE",
"358 700 LINE",
"295 700 LINE",
"26 0 LINE"
);
},
{
closed = 1;
nodes = (
"571 0 LINE",
"571 28 LINE",
"61 28 LINE",
"61 0 LINE"
);
}
);
userData = {
com.fontlab.metricsLeft = A;
com.fontlab.metricsRight = A;
};
vertWidth = 0;
width = 659;
}
);
note = "";
unicode = "0394,2206,03B4";
},
{
color = (153, 254, 255, 255);
glyphname = product;
layers = (
{
guideLines = (
{
position = "{0, 350}";
}
);
layerId = "879304B0-C0BD-4EE0-9B7F-878EED11B82D";
paths = (
{
closed = 1;
nodes = (
"198 -145 LINE",
"198 700 LINE",
"130 700 LINE",
"130 -145 LINE"
);
},
{
closed = 1;
nodes = (
"686 -145 LINE",
"686 700 LINE",
"618 700 LINE",
"618 -145 LINE"
);
},
{
closed = 1;
nodes = (
"658 676 LINE",
"658 700 LINE",
"158 700 LINE",
"158 676 LINE"
);
}
);
userData = {
com.fontlab.metricsLeft = H;
com.fontlab.metricsRight = H;
};
vertWidth = 0;
width = 816;
}
);
note = "";
unicode = 220F;
},
{
color = (153, 254, 255, 255);
glyphname = summation;
layers = (
{
background = {
paths = (
{
closed = 1;
nodes = (
"112 680 LINE",
"35 680 LINE",
"291 256 LINE",
"339 303 LINE"
);
},
{
closed = 1;
nodes = (
"35 680 LINE",
"128 680 LINE",
"494 650 LINE",
"500 650 LINE",
"500 700 LINE",
"35 700 LINE"
);
},
{
closed = 1;
nodes = (
"309 303 LINE",
"22 -125 LINE",
"52 -125 LINE",
"339 303 LINE"
);
},
{
closed = 1;
nodes = (
"514 -145 LINE",
"514 -85 LINE",
"67 -85 LINE",
"22 -125 LINE",
"22 -145 LINE"
);
}
);
userData = {
com.schriftgestaltung.Glyphs.backgroundWidth = 554;
};
vertWidth = 0;
};
guideLines = (
{
position = "{0, -145}";
},
{
position = "{0, 278}";
},
{
angle = 90;
position = "{524, 0}";
},
{
angle = 90;
position = "{45, 0}";
}
);
layerId = "879304B0-C0BD-4EE0-9B7F-878EED11B82D";
paths = (
{
closed = 1;
nodes = (
"122 680 LINE",
"45 680 LINE",
"301 256 LINE",
"349 303 LINE"
);
},
{
closed = 1;
nodes = (
"319 303 LINE",
"32 -125 LINE",
"62 -125 LINE",
"349 303 LINE"
);
},
{
closed = 1;
nodes = (
"524 -145 LINE",
"524 -85 LINE",
"77 -85 LINE",
"32 -125 LINE",
"32 -145 LINE"
);
},
{
closed = 1;
nodes = (
"45 700 LINE",
"45 680 LINE",
"122 680 LINE SMOOTH",
"133.111 680 OFFCURVE",
"158.102 678.231 OFFCURVE",
"197 675 CURVE SMOOTH",
"510 649 LINE",
"510 700 LINE"
);
}
);
vertWidth = 0;
width = 574;
}
);
note = "";
unicode = 2211;
},
{
color = (153, 254, 255, 255);
glyphname = pi;
layers = (
{
guideLines = (
{
position = "{0, 444}";
},
{
angle = 90;
position = "{567, 0}";
}
);
layerId = "879304B0-C0BD-4EE0-9B7F-878EED11B82D";
paths = (
{
closed = 1;
nodes = (
"571 438 LINE",
"571 492 LINE",
"138 492 LINE SMOOTH",
"72 492 OFFCURVE",
"35 461 OFFCURVE",
"17 389 CURVE",
"34 383 LINE",
"50 423 OFFCURVE",
"76 438 OFFCURVE",
"129 438 CURVE SMOOTH"
);
},
{
closed = 1;
nodes = (
"188 0 LINE",
"188 444 LINE",
"166 444 LINE",
"122 0 LINE"
);
},
{
closed = 1;
nodes = (
"395.787 33.007 OFFCURVE",
"427 -8 OFFCURVE",
"482 -8 CURVE SMOOTH",
"522 -8 OFFCURVE",
"547 14 OFFCURVE",
"569 82 CURVE",
"552 89 LINE",
"541 61 OFFCURVE",
"525 48 OFFCURVE",
"502 48 CURVE SMOOTH",
"476 48 OFFCURVE",
"463 64 OFFCURVE",
"461 110 CURVE SMOOTH",
"450 444 LINE",
"410 444 LINE",
"398 97 LINE SMOOTH"
);
}
);
vertWidth = 0;
width = 616;
}
);
note = "";
unicode = 03C0;
},
{
color = (153, 254, 255, 255);
glyphname = mu;
layers = (
{
layerId = "879304B0-C0BD-4EE0-9B7F-878EED11B82D";
paths = (
{
closed = 1;
nodes = (
"105 53 OFFCURVE",
"164 -14 OFFCURVE",
"271 -14 CURVE SMOOTH",
"347 -14 OFFCURVE",
"402 20 OFFCURVE",
"469 108 CURVE",
"461 137 LINE",
"412 60 OFFCURVE",
"362 26 OFFCURVE {name = hr01;}",
"298 26 CURVE SMOOTH",
"215 26 OFFCURVE",
"167 83 OFFCURVE",
"167 180 CURVE SMOOTH",
"167 492 LINE",
"105 492 LINE",
"105 174 LINE SMOOTH"
);
},
{
closed = 1;
nodes = (
"446 23 OFFCURVE",
"475 -14 OFFCURVE",
"528 -14 CURVE SMOOTH",
"567 -14 OFFCURVE",
"588 5 OFFCURVE",
"607 56 CURVE",
"590 63 LINE",
"579 35 OFFCURVE",
"565 22 OFFCURVE {name = hr02;}",
"544 22 CURVE SMOOTH",
"519 22 OFFCURVE",
"508 42 OFFCURVE",
"508 87 CURVE SMOOTH",
"508 492 LINE",
"446 492 LINE",
"446 91 LINE SMOOTH"
);
},
{
closed = 1;
nodes = (
"181 -220 LINE",
"129 26 LINE {name = hr03;}",
"129 102 LINE",
"105 174 LINE",
"105 -220 LINE"
);
}
);
vertWidth = 0;
width = 629;
}
);
note = "";
unicode = "03BC,00B5";
},
{
color = (153, 254, 255, 255);
glyphname = plus;
layers = (
{
layerId = "879304B0-C0BD-4EE0-9B7F-878EED11B82D";
paths = (
{
closed = 1;
nodes = (
"523 313 LINE",
"523 343 LINE",
"59 343 LINE",
"59 313 LINE"
);
},
{
closed = 1;
nodes = (
"307 556 LINE",
"275 556 LINE",
"275 92 LINE",
"307 92 LINE"
);
}
);
userData = {
com.fontlab.metricsWidth = zero.tnum;
};
vertWidth = 0;
width = 582;
}
);
note = "";
unicode = 002B;
},
{
color = (153, 254, 255, 255);
glyphname = minus;
layers = (
{
layerId = "879304B0-C0BD-4EE0-9B7F-878EED11B82D";
paths = (
{
closed = 1;
nodes = (
"523 313 LINE",
"523 343 LINE",
"59 343 LINE",
"59 313 LINE"
);
}
);
userData = {
com.fontlab.metricsLeft = plus;
com.fontlab.metricsWidth = plus;
};
vertWidth = 0;
width = 582;
}
);
note = "";
unicode = 2212;
},
{
color = (153, 254, 255, 255);
glyphname = divide;
layers = (
{
components = (
{
name = minus;
}
);
guideLines = (
{
angle = 90;
position = "{291, 0}";
}
);
layerId = "879304B0-C0BD-4EE0-9B7F-878EED11B82D";
paths = (
{
closed = 1;
nodes = (
"248 143 OFFCURVE",
"266 125 OFFCURVE",
"291 125 CURVE SMOOTH",
"316 125 OFFCURVE",
"334 143 OFFCURVE",
"334 168 CURVE SMOOTH",
"334 193 OFFCURVE",
"316 211 OFFCURVE",
"291 211 CURVE SMOOTH",
"266 211 OFFCURVE",
"248 193 OFFCURVE",
"248 168 CURVE SMOOTH"
);
},
{
closed = 1;
nodes = (
"248 463 OFFCURVE",
"266 445 OFFCURVE",
"291 445 CURVE SMOOTH",
"316 445 OFFCURVE",
"334 463 OFFCURVE",
"334 488 CURVE SMOOTH",
"334 513 OFFCURVE",
"316 531 OFFCURVE",
"291 531 CURVE SMOOTH",
"266 531 OFFCURVE",
"248 513 OFFCURVE",
"248 488 CURVE SMOOTH"
);
}
);
userData = {
com.fontlab.metricsLeft = plus;
com.fontlab.metricsWidth = plus;
};
vertWidth = 0;
width = 582;
}
);
note = "";
unicode = 00F7;
},
{
color = (153, 254, 255, 255);
glyphname = multiply;
layers = (
{
guideLines = (
{
position = "{0, 324}";
}
);
layerId = "879304B0-C0BD-4EE0-9B7F-878EED11B82D";
paths = (
{
closed = 1;
nodes = (
"487 499 LINE",
"466 520 LINE",
"95 149 LINE",
"116 128 LINE"
);
},
{
closed = 1;
nodes = (
"116 520 LINE",
"95 499 LINE",
"466 128 LINE",
"487 149 LINE"
);
}
);
userData = {
com.fontlab.metricsWidth = plus;
};
vertWidth = 0;
width = 582;
}
);
note = "";
unicode = 00D7;
},
{
color = (153, 254, 255, 255);
glyphname = equal;
layers = (
{
layerId = "879304B0-C0BD-4EE0-9B7F-878EED11B82D";
paths = (
{
closed = 1;
nodes = (
"523 375 LINE",
"523 405 LINE",
"59 405 LINE",
"59 375 LINE"
);
},
{
closed = 1;
nodes = (
"523 205 LINE",
"523 235 LINE",
"59 235 LINE",
"59 205 LINE"
);
}
);
userData = {
com.fontlab.metricsLeft = plus;
com.fontlab.metricsWidth = plus;
};
vertWidth = 0;
width = 582;
}
);
note = "";
unicode = 003D;
},
{
color = (153, 254, 255, 255);
glyphname = notequal;
layers = (
{
components = (
{
name = equal;
}
);
layerId = "879304B0-C0BD-4EE0-9B7F-878EED11B82D";
paths = (
{
closed = 1;
nodes = (
"371 383 LINE",
"465 505 LINE",
"441 523 LINE",
"347 401 LINE"
);
},
{
closed = 1;
nodes = (
"242 210 LINE",
"372 379 LINE",
"348 397 LINE",
"218 228 LINE"
);
},
{
closed = 1;
nodes = (
"134 66 LINE",
"244 209 LINE",
"220 227 LINE",
"110 84 LINE"
);
}
);
userData = {
com.fontlab.metricsLeft = equal;
com.fontlab.metricsWidth = equal;
};
vertWidth = 0;
width = 582;
}
);
note = "";
unicode = 2260;
},
{
color = (153, 254, 255, 255);
glyphname = less;
layers = (
{
guideLines = (
{
position = "{0, 336}";
}
);
layerId = "879304B0-C0BD-4EE0-9B7F-878EED11B82D";
paths = (
{
closed = 1;
nodes = (
"523 107 LINE",
"523 140 LINE",
"97 316 LINE",
"523 492 LINE",
"523 525 LINE",
"59 332 LINE",
"59 300 LINE"
);
}
);
userData = {
com.fontlab.metricsLeft = plus;
com.fontlab.metricsWidth = plus;
};
vertWidth = 0;
width = 582;
}
);
note = "";
unicode = 003C;
},
{
color = (153, 254, 255, 255);
glyphname = asciicircum;
layers = (
{
guideLines = (
{
position = "{0, 313}";
}
);
layerId = "879304B0-C0BD-4EE0-9B7F-878EED11B82D";
paths = (
{
closed = 1;
nodes = (
"71 313 LINE",
"105 313 LINE",
"290 678 LINE",
"477 313 LINE",
"511 313 LINE",
"310 700 LINE",
"269 700 LINE"
);
}
);
userData = {
com.fontlab.metricsWidth = plus;
};
vertWidth = 0;
width = 582;
}
);
note = "";
unicode = 005E;
},
{
color = (153, 254, 255, 255);
glyphname = asciitilde;
layers = (
{
guideLines = (
{
position = "{0, 284}";
},
{
position = "{0, 327}";
}
);
layerId = "879304B0-C0BD-4EE0-9B7F-878EED11B82D";
paths = (
{
closed = 1;
nodes = (
"69 287 LINE",
"110 332 OFFCURVE",
"137 351 OFFCURVE",
"178 351 CURVE SMOOTH",
"208 351 OFFCURVE",
"236 341 OFFCURVE",
"288 311 CURVE SMOOTH",
"340 282 OFFCURVE",
"367 272 OFFCURVE",
"398 272 CURVE SMOOTH",
"438 272 OFFCURVE",
"482 289 OFFCURVE",
"533 349 CURVE",
"513 366 LINE",
"472 321 OFFCURVE",
"445 302 OFFCURVE",
"404 302 CURVE SMOOTH",
"374 302 OFFCURVE",
"346 312 OFFCURVE",
"294 342 CURVE SMOOTH",
"242 371 OFFCURVE",
"215 381 OFFCURVE",
"184 381 CURVE SMOOTH",
"144 381 OFFCURVE",
"100 364 OFFCURVE",
"49 304 CURVE"
);
}
);
userData = {
com.fontlab.metricsWidth = plus;
};
vertWidth = 0;
width = 582;
}
);
note = "";
unicode = 007E;
},
{
color = (153, 254, 255, 255);
glyphname = logicalnot;
layers = (
{
layerId = "879304B0-C0BD-4EE0-9B7F-878EED11B82D";
paths = (
{
closed = 1;
nodes = (
"523 313 LINE",
"523 343 LINE",
"59 343 LINE",
"59 313 LINE"
);
},
{
closed = 1;
nodes = (
"523 326 LINE",
"491 326 LINE",
"491 112 LINE",
"523 112 LINE"
);
}
);
userData = {
com.fontlab.metricsLeft = plus;
com.fontlab.metricsWidth = plus;
};
vertWidth = 0;
width = 582;
}
);
note = "";
unicode = 00AC;
},
{
color = (153, 254, 255, 255);
glyphname = radical;
layers = (
{
layerId = "879304B0-C0BD-4EE0-9B7F-878EED11B82D";
paths = (
{
closed = 1;
nodes = (
"301 -14 LINE",
"323 -14 LINE",
"576 837 LINE",
"514 837 LINE",
"328 88 LINE",
"322 88 LINE",
"199 395 LINE",
"141 381 LINE"
);
},
{
closed = 1;
nodes = (
"203 371 LINE",
"199 395 LINE",
"50 395 LINE",
"50 371 LINE"
);
}
);
userData = {
com.fontlab.metricsWidth = zero.tnum;
};
vertWidth = 0;
width = 582;
}
);
note = "";
unicode = 221A;
},
{
color = (153, 254, 255, 255);
glyphname = integral;
layers = (
{
layerId = "879304B0-C0BD-4EE0-9B7F-878EED11B82D";
paths = (
{
closed = 1;
nodes = (
"166 -57 OFFCURVE",
"149 -96 OFFCURVE",
"108 -96 CURVE SMOOTH",
"87 -96 OFFCURVE",
"67 -87 OFFCURVE",
"37 -44 CURVE",
"31 -44 LINE",
"26 -98 LINE",
"60 -115 OFFCURVE",
"84 -120 OFFCURVE",
"108 -120 CURVE SMOOTH",
"189 -120 OFFCURVE",
"234 -63 OFFCURVE",
"234 50 CURVE SMOOTH",
"234 678 LINE SMOOTH",
"234 757 OFFCURVE",
"251 796 OFFCURVE",
"292 796 CURVE SMOOTH",
"313 796 OFFCURVE",
"333 787 OFFCURVE",
"363 744 CURVE",
"369 744 LINE",
"374 798 LINE",
"340 815 OFFCURVE",
"316 820 OFFCURVE",
"292 820 CURVE SMOOTH",
"211 820 OFFCURVE",
"166 763 OFFCURVE",
"166 650 CURVE SMOOTH",
"166 22 LINE SMOOTH"
);
}
);
vertWidth = 0;
width = 400;
}
);
note = "";
unicode = 222B;
},
{
color = (153, 254, 255, 255);
glyphname = "infinity";
layers = (
{
guideLines = (
{
position = "{0, 324}";
}
);
layerId = "879304B0-C0BD-4EE0-9B7F-878EED11B82D";
paths = (
{
closed = 1;
nodes = (
"494 489 OFFCURVE",
"447 446 OFFCURVE",
"377 323 CURVE",
"448 206 OFFCURVE",
"492 161 OFFCURVE",
"566 161 CURVE SMOOTH",
"657 161 OFFCURVE",
"718 227 OFFCURVE",
"718 325 CURVE SMOOTH",
"718 423 OFFCURVE",
"657 489 OFFCURVE",
"566 489 CURVE SMOOTH"
);
},
{
closed = 1;
nodes = (
"637 461 OFFCURVE",
"684 407 OFFCURVE",
"684 325 CURVE SMOOTH",
"684 243 OFFCURVE",
"637 189 OFFCURVE",
"566 189 CURVE SMOOTH",
"514 189 OFFCURVE",
"478 218 OFFCURVE",
"412 328 CURVE",
"470 428 OFFCURVE",
"509 461 OFFCURVE",
"566 461 CURVE SMOOTH"
);
},
{
closed = 1;
nodes = (
"294 161 OFFCURVE",
"341 204 OFFCURVE",
"411 327 CURVE",
"340 444 OFFCURVE",
"296 489 OFFCURVE",
"222 489 CURVE SMOOTH",
"131 489 OFFCURVE",
"70 423 OFFCURVE",
"70 325 CURVE SMOOTH",
"70 227 OFFCURVE",
"131 161 OFFCURVE",
"222 161 CURVE SMOOTH"
);
},
{
closed = 1;
nodes = (
"151 189 OFFCURVE",
"104 243 OFFCURVE",
"104 325 CURVE SMOOTH",
"104 407 OFFCURVE",
"151 461 OFFCURVE",
"222 461 CURVE SMOOTH",
"274 461 OFFCURVE",
"310 432 OFFCURVE",
"376 322 CURVE",
"318 222 OFFCURVE",
"279 189 OFFCURVE",
"222 189 CURVE SMOOTH"
);
}
);
userData = {
com.fontlab.metricsRight = "|";
};
vertWidth = 0;
width = 788;
}
);
note = "";
unicode = 221E;
},
{
color = (153, 254, 255, 255);
glyphname = lozenge;
layers = (
{
guideLines = (
{
position = "{0, 350}";
}
);
layerId = "879304B0-C0BD-4EE0-9B7F-878EED11B82D";
paths = (
{
closed = 1;
nodes = (
"515 350 LINE",
"305 700 LINE",
"268 700 LINE",
"478 350 LINE",
"268 0 LINE",
"305 0 LINE"
);
},
{
closed = 1;
nodes = (
"305 0 LINE",
"95 350 LINE",
"305 700 LINE",
"268 700 LINE",
"58 350 LINE",
"268 0 LINE"
);
}
);
userData = {
com.fontlab.metricsRight = "|";
};
vertWidth = 0;
width = 573;
}
);
note = "";
unicode = 25CA;
},
{
color = (255, 255, 153, 255);
glyphname = Euro;
layers = (
{
background = {
userData = {
com.schriftgestaltung.Glyphs.backgroundWidth = 696;
};
vertWidth = 0;
};
guideLines = (
{
angle = 90;
position = "{650, 0}";
},
{
position = "{0, 350}";
},
{
angle = 90;
position = "{98, 0}";
}
);
layerId = "879304B0-C0BD-4EE0-9B7F-878EED11B82D";
paths = (
{
closed = 1;
nodes = (
"536 288 LINE",
"536 312 LINE",
"20 312 LINE",
"20 288 LINE"
);
},
{
closed = 1;
nodes = (
"536 394 LINE",
"536 418 LINE",
"20 418 LINE",
"20 394 LINE"
);
},
{
closed = 1;
nodes = (
"650 86 LINE",
"600 43 OFFCURVE",
"529 10 OFFCURVE",
"446 10 CURVE SMOOTH",
"282 10 OFFCURVE",
"174 143 OFFCURVE",
"174 350 CURVE SMOOTH",
"174 556.846 OFFCURVE",
"281.507 690 OFFCURVE",
"446 690 CURVE SMOOTH",
"520 690 OFFCURVE",
"590 665 OFFCURVE",
"639 621 CURVE",
"645 621 LINE",
"650 677 LINE",
"595 700 OFFCURVE",
"505 714 OFFCURVE",
"446 714 CURVE SMOOTH",
"249 714 OFFCURVE",
"98 558 OFFCURVE",
"98 350 CURVE SMOOTH",
"98 142 OFFCURVE",
"249 -14 OFFCURVE",
"446 -14 CURVE SMOOTH",
"505 -14 OFFCURVE",
"593 0 OFFCURVE",
"650 25 CURVE",
"656 86 LINE"
);
}
);
userData = {
com.fontlab.metricsRight = C;
};
vertWidth = 0;
width = 726;
}
);
note = "";
unicode = 20AC;
},
{
color = (255, 255, 153, 255);
glyphname = dollar;
layers = (
{
guideLines = (
{
position = "{0, -98}";
},
{
angle = 90;
position = "{264, 0}";
},
{
angle = 90;
position = "{461, 0}";
},
{
angle = 90;
position = "{60, 0}";
},
{
position = "{0, 790}";
}
);
layerId = "879304B0-C0BD-4EE0-9B7F-878EED11B82D";
paths = (
{
closed = 1;
nodes = (
"118 1 OFFCURVE",
"199 -14 OFFCURVE",
"253 -14 CURVE SMOOTH",
"377 -14 OFFCURVE",
"461 63 OFFCURVE",
"461 175 CURVE SMOOTH",
"461 296 OFFCURVE",
"364 351 OFFCURVE",
"266 406 CURVE SMOOTH",
"195 446 OFFCURVE",
"120 488 OFFCURVE",
"120 570 CURVE SMOOTH",
"120 643 OFFCURVE",
"178 690 OFFCURVE",
"264 690 CURVE SMOOTH",
"321 690 OFFCURVE",
"372 670 OFFCURVE",
"410 629 CURVE",
"416 629 LINE",
"421 684 LINE",
"387 701 OFFCURVE",
"317 714 OFFCURVE",
"264 714 CURVE SMOOTH",
"144 714 OFFCURVE",
"64 646 OFFCURVE",
"64 545 CURVE SMOOTH",
"64 441 OFFCURVE",
"151 391 OFFCURVE",
"245 336 CURVE SMOOTH",
"362 268 OFFCURVE",
"403 217 OFFCURVE",
"403 148 CURVE SMOOTH",
"403 64 OFFCURVE",
"343 10 OFFCURVE",
"253 10 CURVE SMOOTH",
"189 10 OFFCURVE",
"116 37 OFFCURVE",
"66 82 CURVE",
"60 82 LINE",
"54 22 LINE"
);
},
{
closed = 1;
nodes = (
"269 -98 LINE",
"269 354 LINE",
"243 354 LINE",
"243 -98 LINE"
);
},
{
closed = 1;
nodes = (
"272 378 LINE",
"272 790 LINE",
"246 790 LINE",
"246 378 LINE"
);
}
);
vertWidth = 0;
width = 513;
}
);
note = "";
unicode = 0024;
},
{
color = (255, 255, 153, 255);
glyphname = cent;
layers = (
{
guideLines = (
{
angle = 90;
position = "{494, 0}";
}
);
layerId = "879304B0-C0BD-4EE0-9B7F-878EED11B82D";
paths = (
{
closed = 1;
nodes = (
"494 69 LINE",
"451 32 OFFCURVE",
"397 10 OFFCURVE",
"337 10 CURVE SMOOTH",
"217.685 10 OFFCURVE",
"140 101.256 OFFCURVE",
"140 242 CURVE SMOOTH",
"140 383.093 OFFCURVE",
"218.39 474 OFFCURVE",
"337 474 CURVE SMOOTH",
"397 474 OFFCURVE",
"446 452 OFFCURVE",
"485 416 CURVE",
"490 416 LINE",
"494 465 LINE",
"442 486 OFFCURVE",
"388 498 OFFCURVE",
"337 498 CURVE SMOOTH",
"185 498 OFFCURVE",
"70 388 OFFCURVE",
"70 242 CURVE SMOOTH",
"70 96 OFFCURVE",
"185 -14 OFFCURVE",
"337 -14 CURVE SMOOTH",
"389 -14 OFFCURVE",
"458 -1 OFFCURVE",
"494 16 CURVE",
"499 69 LINE"
);
},
{
closed = 1;
nodes = (
"338 -98 LINE",
"338 582 LINE",
"312 582 LINE",
"312 -98 LINE"
);
}
);
userData = {
com.fontlab.metricsLeft = "C-10";
com.fontlab.metricsRight = "C-10";
};
vertWidth = 0;
width = 559;
}
);
note = "";
unicode = 00A2;
},
{
color = (255, 255, 153, 255);
glyphname = yen;
layers = (
{
components = (
{
name = Y;
}
);
guideLines = (
{
angle = 90;
position = "{304, 0}";
}
);
layerId = "879304B0-C0BD-4EE0-9B7F-878EED11B82D";
paths = (
{
closed = 1;
nodes = (
"506 156 LINE",
"506 180 LINE",
"102 180 LINE",
"102 156 LINE"
);
},
{
closed = 1;
nodes = (
"506 262 LINE",
"506 286 LINE",
"102 286 LINE",
"102 262 LINE"
);
}
);
userData = {
com.fontlab.metricsWidth = Y;
};
vertWidth = 0;
width = 617;
}
);
note = "";
unicode = 00A5;
},
{
color = (255, 255, 153, 255);
glyphname = sterling;
layers = (
{
guideLines = (
{
angle = 90;
position = "{57, 0}";
},
{
angle = 90;
position = "{487, 0}";
},
{
position = "{0, 350}";
}
);
layerId = "879304B0-C0BD-4EE0-9B7F-878EED11B82D";
paths = (
{
closed = 1;
nodes = (
"487 0 LINE",
"487 60 LINE",
"118 60 LINE",
"220 178 OFFCURVE",
"250 234 OFFCURVE",
"250 309 CURVE SMOOTH",
"250 350 OFFCURVE",
"241 385 OFFCURVE",
"214 438 CURVE SMOOTH",
"180 505 OFFCURVE",
"168 535 OFFCURVE",
"168 569 CURVE SMOOTH",
"168 642 OFFCURVE",
"223 690 OFFCURVE",
"305 690 CURVE SMOOTH",
"358 690 OFFCURVE",
"407 671 OFFCURVE",
"448 629 CURVE",
"454 629 LINE",
"459 684 LINE",
"425 701 OFFCURVE",
"355 714 OFFCURVE",
"305 714 CURVE SMOOTH",
"190 714 OFFCURVE",
"112 644 OFFCURVE",
"112 538 CURVE SMOOTH",
"112 498 OFFCURVE",
"123 459 OFFCURVE",
"152 402 CURVE SMOOTH",
"179 350 OFFCURVE",
"188 320 OFFCURVE",
"188 288 CURVE SMOOTH",
"188 219 OFFCURVE",
"147 139 OFFCURVE",
"57 18 CURVE",
"57 0 LINE"
);
},
{
closed = 1;
nodes = (
"403 327 LINE",
"403 351 LINE",
"63 351 LINE",
"63 327 LINE"
);
}
);
vertWidth = 0;
width = 545;
}
);
note = "";
unicode = 00A3;
},
{
color = (255, 255, 153, 255);
glyphname = turkishlira;
layers = (
{
guideLines = (
{
angle = 90;
position = "{179, 0}";
}
);
layerId = "879304B0-C0BD-4EE0-9B7F-878EED11B82D";
paths = (
{
closed = 1;
nodes = (
"205 0 LINE",
"205 700 LINE",
"137 700 LINE {name = hr01;}",
"137 0 LINE"
);
},
{
closed = 1;
nodes = (
"179 359.277 LINE",
"179 384.277 LINE",
"38 346 LINE",
"38 321 LINE"
);
},
{
closed = 1;
nodes = (
"179 465.277 LINE",
"179 490.277 LINE",
"38 452 LINE",
"38 427 LINE"
);
},
{
closed = 1;
nodes = (
"242 0 LINE SMOOTH",
"418 0 OFFCURVE",
"524 105 OFFCURVE",
"524 281.5 CURVE",
"458 281.5 LINE",
"458 122 OFFCURVE",
"375 24 OFFCURVE",
"239 24 CURVE SMOOTH",
"158 24 LINE",
"158 0 LINE"
);
},
{
closed = 1;
nodes = (
"399 416 LINE",
"399 441 LINE",
"179 381.277 LINE",
"179 356.277 LINE"
);
},
{
closed = 1;
nodes = (
"399 522 LINE",
"399 547 LINE",
"179 487.277 LINE",
"179 462.277 LINE"
);
}
);
vertWidth = 0;
width = 578;
}
);
note = "";
unicode = 20BA;
},
{
color = (255, 255, 153, 255);
glyphname = florin;
layers = (
{
layerId = "879304B0-C0BD-4EE0-9B7F-878EED11B82D";
paths = (
{
closed = 1;
nodes = (
"85.4165 -80.9292 OFFCURVE",
"37.0496 -184.609 OFFCURVE",
"-52.95 -220.95 CURVE",
"-50.7 -226.95 LINE",
"76.9024 -208.129 OFFCURVE",
"146.224 -108.392 OFFCURVE",
"170.324 89.5517 CURVE SMOOTH",
"229.05 571.9 LINE SMOOTH",
"238.67 650.91 OFFCURVE",
"272.25 689.9 OFFCURVE",
"321.329 689.9 CURVE SMOOTH",
"345.767 689.9 OFFCURVE",
"366.45 681.9 OFFCURVE",
"391.15 638.9 CURVE",
"397.15 638.9 LINE",
"408.8 691.9 LINE",
"376.714 708.999 OFFCURVE",
"349.259 713.9 OFFCURVE",
"320.69 713.9 CURVE SMOOTH",
"230.977 713.9 OFFCURVE",
"176.648 657.149 OFFCURVE",
"162.65 543.9 CURVE SMOOTH",
"105.624 82.5516 LINE SMOOTH"
);
},
{
closed = 1;
nodes = (
"338.893 407.561 LINE",
"341.84 431.561 LINE",
"59.84 431.561 LINE",
"56.8932 407.561 LINE"
);
}
);
vertWidth = 0;
width = 415;
}
);
note = "";
unicode = 0192;
},
{
color = (153, 254, 255, 255);
glyphname = currency;
layers = (
{
guideLines = (
{
position = "{0, 324}";
},
{
angle = 90;
position = "{291, 0}";
}
);
layerId = "879304B0-C0BD-4EE0-9B7F-878EED11B82D";
paths = (
{
closed = 1;
nodes = (
"95 209 OFFCURVE",
"176 128 OFFCURVE",
"291 128 CURVE SMOOTH",
"406 128 OFFCURVE",
"487 209 OFFCURVE",
"487 324 CURVE SMOOTH",
"487 439 OFFCURVE",
"406 520 OFFCURVE",
"291 520 CURVE SMOOTH",
"176 520 OFFCURVE",
"95 439 OFFCURVE",
"95 324 CURVE SMOOTH"
);
},
{
closed = 1;
nodes = (
"196 156 OFFCURVE",
"129 225 OFFCURVE",
"129 324 CURVE SMOOTH",
"129 423 OFFCURVE",
"196 492 OFFCURVE",
"291 492 CURVE SMOOTH",
"386 492 OFFCURVE",
"453 423 OFFCURVE",
"453 324 CURVE SMOOTH",
"453 225 OFFCURVE",
"386 156 OFFCURVE",
"291 156 CURVE SMOOTH"
);
},
{
closed = 1;
nodes = (
"176 461 LINE",
"99 538 LINE",
"77 516 LINE",
"154 439 LINE"
);
},
{
closed = 1;
nodes = (
"505 132 LINE",
"428 209 LINE",
"406 187 LINE",
"483 110 LINE"
);
},
{
closed = 1;
nodes = (
"154 209 LINE",
"77 132 LINE",
"99 110 LINE",
"176 187 LINE"
);
},
{
closed = 1;
nodes = (
"483 538 LINE",
"406 461 LINE",
"428 439 LINE",
"505 516 LINE"
);
}
);
userData = {
com.fontlab.metricsWidth = zero.tnum;
};
vertWidth = 0;
width = 582;
}
);
note = "";
unicode = 00A4;
},
{
color = (153, 254, 255, 255);
glyphname = Euro.tnum;
layers = (
{
background = {
userData = {
com.schriftgestaltung.Glyphs.backgroundWidth = 562;
};
vertWidth = 0;
};
guideLines = (
{
angle = 90;
position = "{541, 0}";
},
{
position = "{0, 350}";
}
);
layerId = "879304B0-C0BD-4EE0-9B7F-878EED11B82D";
paths = (
{
closed = 1;
nodes = (
"540 73 LINE",
"491 33 OFFCURVE",
"453 10 OFFCURVE",
"394 10 CURVE SMOOTH",
"262 10 OFFCURVE",
"184 134 OFFCURVE",
"184 350 CURVE SMOOTH",
"184 565.724 OFFCURVE",
"261.569 690 OFFCURVE",
"394 690 CURVE SMOOTH",
"450 690 OFFCURVE",
"499 669 OFFCURVE",
"534 634 CURVE",
"540 634 LINE",
"544 686 LINE",
"497 702 OFFCURVE",
"442 714 OFFCURVE",
"394 714 CURVE SMOOTH",
"225 714 OFFCURVE",
"108 565 OFFCURVE",
"108 350 CURVE SMOOTH",
"108 135 OFFCURVE",
"225 -14 OFFCURVE",
"394 -14 CURVE SMOOTH",
"442 -14 OFFCURVE",
"499 -2 OFFCURVE",
"541 16 CURVE",
"546 73 LINE"
);
},
{
closed = 1;
nodes = (
"446 288 LINE",
"446 312 LINE",
"30 312 LINE",
"30 288 LINE"
);
},
{
closed = 1;
nodes = (
"446 394 LINE",
"446 418 LINE",
"30 418 LINE",
"30 394 LINE"
);
}
);
userData = {
com.fontlab.metricsWidth = zero.tnum;
};
vertWidth = 0;
width = 582;
}
);
note = "";
},
{
color = (153, 254, 255, 255);
glyphname = cent.tnum;
layers = (
{
guideLines = (
{
angle = 90;
position = "{499, 0}";
}
);
layerId = "879304B0-C0BD-4EE0-9B7F-878EED11B82D";
paths = (
{
closed = 1;
nodes = (
"494 69 LINE",
"451 32 OFFCURVE",
"394 8 OFFCURVE",
"337 8 CURVE SMOOTH",
"221 8 OFFCURVE",
"140 104 OFFCURVE",
"140 242 CURVE SMOOTH",
"140 380 OFFCURVE",
"221 476 OFFCURVE",
"337 476 CURVE SMOOTH",
"395 476 OFFCURVE",
"446 452 OFFCURVE",
"485 416 CURVE",
"490 416 LINE",
"494 465 LINE",
"442 486 OFFCURVE",
"388 498 OFFCURVE",
"337 498 CURVE SMOOTH",
"185 498 OFFCURVE",
"70 388 OFFCURVE",
"70 242 CURVE SMOOTH",
"70 96 OFFCURVE",
"185 -14 OFFCURVE",
"337 -14 CURVE SMOOTH",
"389 -14 OFFCURVE",
"458 -1 OFFCURVE",
"494 16 CURVE",
"499 69 LINE"
);
},
{
closed = 1;
nodes = (
"338 -98 LINE",
"338 582 LINE",
"312 582 LINE",
"312 -98 LINE"
);
}
);
userData = {
com.fontlab.autolayer = 1;
com.fontlab.metricsLeft = "=70";
com.fontlab.metricsWidth = zero.tnum;
};
vertWidth = 0;
width = 582;
}
);
note = "";
},
{
color = (153, 254, 255, 255);
glyphname = yen.tnum;
layers = (
{
layerId = "879304B0-C0BD-4EE0-9B7F-878EED11B82D";
paths = (
{
closed = 1;
nodes = (
"498 156 LINE",
"498 180 LINE",
"94 180 LINE",
"94 156 LINE"
);
},
{
closed = 1;
nodes = (
"498 262 LINE",
"498 286 LINE",
"94 286 LINE",
"94 262 LINE"
);
},
{
closed = 1;
nodes = (
"332 0 LINE",
"332 300 LINE",
"563 700 LINE",
"487 700 LINE",
"317 324 LINE",
"311 324 LINE",
"96 700 LINE",
"20 700 LINE",
"260 286 LINE",
"260 0 LINE"
);
}
);
userData = {
com.fontlab.metricsWidth = zero.tnum;
};
vertWidth = 0;
width = 582;
}
);
note = "";
},
{
color = (153, 254, 255, 255);
glyphname = sterling.tnum;
layers = (
{
guideLines = (
{
angle = 90;
position = "{64, 0}";
},
{
angle = 90;
position = "{494, 0}";
},
{
position = "{0, 350}";
}
);
layerId = "879304B0-C0BD-4EE0-9B7F-878EED11B82D";
paths = (
{
closed = 1;
nodes = (
"494 0 LINE",
"494 60 LINE",
"125 60 LINE",
"227 178 OFFCURVE",
"257 234 OFFCURVE",
"257 309 CURVE SMOOTH",
"257 350 OFFCURVE",
"248 385 OFFCURVE",
"221 438 CURVE SMOOTH",
"187 505 OFFCURVE",
"175 535 OFFCURVE",
"175 569 CURVE SMOOTH",
"175 642 OFFCURVE",
"230 692 OFFCURVE",
"312 692 CURVE SMOOTH",
"365 692 OFFCURVE",
"414 671 OFFCURVE",
"455 629 CURVE",
"461 629 LINE",
"466 684 LINE",
"432 701 OFFCURVE",
"362 714 OFFCURVE",
"312 714 CURVE SMOOTH",
"197 714 OFFCURVE",
"119 644 OFFCURVE",
"119 538 CURVE SMOOTH",
"119 498 OFFCURVE",
"130 459 OFFCURVE",
"159 402 CURVE SMOOTH",
"186 350 OFFCURVE",
"195 320 OFFCURVE",
"195 288 CURVE SMOOTH",
"195 219 OFFCURVE",
"154 139 OFFCURVE",
"64 18 CURVE",
"64 0 LINE"
);
},
{
closed = 1;
nodes = (
"410 327 LINE",
"410 351 LINE",
"70 351 LINE",
"70 327 LINE"
);
}
);
userData = {
com.fontlab.autolayer = 1;
com.fontlab.metricsLeft = "=64";
com.fontlab.metricsWidth = zero.tnum;
};
vertWidth = 0;
width = 582;
}
);
note = "";
},
{
color = (153, 254, 255, 255);
glyphname = florin.tnum;
layers = (
{
layerId = "879304B0-C0BD-4EE0-9B7F-878EED11B82D";
paths = (
{
closed = 1;
nodes = (
"185.416 -80.9292 OFFCURVE",
"137.05 -184.609 OFFCURVE",
"47.05 -220.95 CURVE",
"49.3 -226.95 LINE",
"176.902 -208.129 OFFCURVE",
"246.224 -108.392 OFFCURVE",
"270.324 89.5517 CURVE SMOOTH",
"329.05 571.9 LINE SMOOTH",
"338.67 650.91 OFFCURVE",
"372.25 689.9 OFFCURVE",
"421.329 689.9 CURVE SMOOTH",
"445.767 689.9 OFFCURVE",
"466.45 681.9 OFFCURVE",
"491.15 638.9 CURVE",
"497.15 638.9 LINE",
"508.8 691.9 LINE",
"476.714 708.999 OFFCURVE",
"449.259 713.9 OFFCURVE",
"420.69 713.9 CURVE SMOOTH",
"330.977 713.9 OFFCURVE",
"276.648 657.149 OFFCURVE",
"262.65 543.9 CURVE SMOOTH",
"205.624 82.5516 LINE SMOOTH"
);
},
{
closed = 1;
nodes = (
"438.893 407.561 LINE",
"441.84 431.561 LINE",
"159.84 431.561 LINE",
"156.893 407.561 LINE"
);
}
);
userData = {
com.fontlab.metricsWidth = zero.tnum;
};
vertWidth = 0;
width = 582;
}
);
note = "";
},
{
color = (153, 254, 255, 255);
glyphname = numbersign.tnum;
layers = (
{
guideLines = (
{
angle = 90;
position = "{222, 0}";
}
);
layerId = "879304B0-C0BD-4EE0-9B7F-878EED11B82D";
paths = (
{
closed = 1;
nodes = (
"118 0 LINE",
"242 700 LINE",
"217 700 LINE",
"93 0 LINE"
);
},
{
closed = 1;
nodes = (
"500 203 LINE",
"500 259 LINE",
"17 259 LINE",
"17 203 LINE"
);
},
{
closed = 1;
nodes = (
"545 455 LINE",
"545 511 LINE",
"62 511 LINE",
"62 455 LINE"
);
},
{
closed = 1;
nodes = (
"342 0 LINE",
"466 700 LINE",
"441 700 LINE",
"317 0 LINE"
);
}
);
userData = {
com.fontlab.autolayer = 1;
com.fontlab.metricsWidth = zero.tnum;
};
vertWidth = 0;
width = 582;
}
);
note = "";
},
{
color = (154, 153, 255, 255);
glyphname = zero.tnum;
layers = (
{
guideLines = (
{
angle = 90;
position = "{289, 0}";
},
{
position = "{0, 615}";
}
);
layerId = "879304B0-C0BD-4EE0-9B7F-878EED11B82D";
paths = (
{
closed = 1;
nodes = (
"54 131 OFFCURVE",
"148 -14 OFFCURVE",
"291 -14 CURVE SMOOTH",
"434 -14 OFFCURVE",
"528 131 OFFCURVE",
"528 350 CURVE SMOOTH",
"528 569 OFFCURVE",
"434 714 OFFCURVE",
"291 714 CURVE SMOOTH",
"148 714 OFFCURVE",
"54 569 OFFCURVE",
"54 350 CURVE SMOOTH"
);
},
{
closed = 1;
nodes = (
"128 564.63 OFFCURVE",
"188.229 690 OFFCURVE",
"291 690 CURVE SMOOTH",
"394 690 OFFCURVE",
"454 565 OFFCURVE",
"454 350 CURVE SMOOTH",
"454 135 OFFCURVE",
"394 10 OFFCURVE",
"291 10 CURVE SMOOTH",
"188 10 OFFCURVE",
"128 135 OFFCURVE",
"128 350 CURVE SMOOTH"
);
}
);
vertWidth = 0;
width = 582;
}
);
note = "";
},
{
color = (154, 153, 255, 255);
glyphname = one.tnum;
layers = (
{
layerId = "879304B0-C0BD-4EE0-9B7F-878EED11B82D";
paths = (
{
closed = 1;
nodes = (
"342 10 LINE",
"342 714 LINE",
"322 714 LINE",
"103 582 LINE",
"111 566 LINE",
"274 642 LINE",
"274 10 LINE"
);
},
{
closed = 1;
nodes = (
"500 0 LINE",
"500 24 LINE",
"103 24 LINE",
"103 0 LINE"
);
}
);
userData = {
com.fontlab.metricsWidth = zero.tnum;
};
vertWidth = 0;
width = 582;
}
);
note = "";
},
{
color = (154, 153, 255, 255);
glyphname = two.tnum;
layers = (
{
background = {
guideLines = (
{
angle = 90;
position = "{492, 0}";
},
{
angle = 90;
}
);
userData = {
com.fontlab.autolayer = 1;
com.schriftgestaltung.Glyphs.backgroundWidth = 616;
};
vertWidth = 0;
};
guideLines = (
{
angle = 90;
position = "{457, 0}";
},
{
angle = 90;
position = "{5, 0}";
}
);
layerId = "879304B0-C0BD-4EE0-9B7F-878EED11B82D";
paths = (
{
closed = 1;
nodes = (
"495 0 LINE",
"495 60 LINE",
"119 60 LINE",
"350 315 LINE SMOOTH",
"444.568 419.393 OFFCURVE",
"475 489 OFFCURVE",
"475 549 CURVE SMOOTH",
"475 650 OFFCURVE",
"390 714 OFFCURVE",
"265 714 CURVE SMOOTH",
"201 714 OFFCURVE",
"135 697 OFFCURVE",
"88 671 CURVE",
"93 617 LINE",
"99 617 LINE",
"146 662 OFFCURVE",
"208 690 OFFCURVE",
"265 690 CURVE SMOOTH",
"346 690 OFFCURVE",
"401 634 OFFCURVE",
"401 544 CURVE SMOOTH",
"401 482 OFFCURVE",
"375.113 416.91 OFFCURVE",
"315 342 CURVE SMOOTH",
"55 18 LINE",
"55 0 LINE"
);
}
);
userData = {
com.fontlab.metricsWidth = zero.tnum;
};
vertWidth = 0;
width = 582;
}
);
note = "";
},
{
color = (154, 153, 255, 255);
glyphname = three.tnum;
layers = (
{
guideLines = (
{
angle = 90;
position = "{32, 0}";
},
{
angle = 90;
position = "{440, 0}";
},
{
position = "{0, 350}";
},
{
position = "{0, 190}";
},
{
angle = 90;
position = "{189, 0}";
},
{
position = "{0, -56}";
},
{
position = "{0, 384}";
}
);
layerId = "879304B0-C0BD-4EE0-9B7F-878EED11B82D";
paths = (
{
closed = 1;
nodes = (
"338 372 OFFCURVE",
"411 301 OFFCURVE",
"411 190 CURVE SMOOTH",
"411 80 OFFCURVE",
"348 10 OFFCURVE",
"251 10 CURVE SMOOTH",
"192 10 OFFCURVE",
"122 35 OFFCURVE",
"73 82 CURVE",
"67 82 LINE",
"73 22 LINE",
"119 0 OFFCURVE",
"195 -14 OFFCURVE",
"253 -14 CURVE SMOOTH",
"393 -14 OFFCURVE",
"485 66 OFFCURVE",
"485 187 CURVE SMOOTH",
"485 288 OFFCURVE",
"418 361 OFFCURVE",
"305 382 CURVE",
"305 388 LINE",
"401 411 OFFCURVE",
"453 469 OFFCURVE {name = hr01;}",
"453 549 CURVE SMOOTH",
"453 648 OFFCURVE",
"374 714 OFFCURVE",
"252 714 CURVE SMOOTH",
"195 714 OFFCURVE",
"121 700 OFFCURVE",
"78 680 CURVE",
"83 627 LINE",
"89 627 LINE",
"128 666 OFFCURVE",
"199 690 OFFCURVE",
"251 690 CURVE SMOOTH",
"329 690 OFFCURVE",
"381 633 OFFCURVE",
"381 544 CURVE SMOOTH",
"381 447 OFFCURVE",
"319 396 OFFCURVE",
"219 396 CURVE SMOOTH",
"198 396 LINE",
"198 372 LINE",
"223 372 LINE SMOOTH"
);
}
);
userData = {
com.fontlab.metricsWidth = zero.tnum;
};
vertWidth = 0;
width = 582;
}
);
note = "";
},
{
color = (154, 153, 255, 255);
glyphname = five.tnum;
layers = (
{
guideLines = (
{
position = "{0, 350}";
},
{
position = "{0, -11}";
},
{
angle = 90;
position = "{495, 0}";
},
{
angle = 90;
position = "{47, 0}";
}
);
layerId = "879304B0-C0BD-4EE0-9B7F-878EED11B82D";
paths = (
{
closed = 1;
nodes = (
"84 82 LINE",
"90 22 LINE",
"154 1 OFFCURVE",
"219 -14 OFFCURVE",
"274 -14 CURVE SMOOTH",
"405 -14 OFFCURVE",
"495 74 OFFCURVE",
"495 205 CURVE SMOOTH",
"495 329 OFFCURVE",
"414 419 OFFCURVE",
"272 445 CURVE SMOOTH",
"146 468 LINE",
"122 406 LINE",
"254 382 LINE SMOOTH",
"370 361 OFFCURVE",
"437 284 OFFCURVE",
"437 181 CURVE SMOOTH",
"437 78 OFFCURVE",
"371 10 OFFCURVE",
"273 10 CURVE SMOOTH",
"206 10 OFFCURVE",
"142 40 OFFCURVE",
"90 82 CURVE"
);
},
{
closed = 1;
nodes = (
"147 406 LINE",
"176 700 LINE",
"151 700 LINE",
"122 406 LINE"
);
},
{
closed = 1;
nodes = (
"467 640 LINE",
"467 700 LINE",
"151 700 LINE",
"151 640 LINE"
);
}
);
userData = {
com.fontlab.metricsWidth = zero.tnum;
};
vertWidth = 0;
width = 582;
}
);
note = "";
},
{
color = (154, 153, 255, 255);
glyphname = six.tnum;
layers = (
{
guideLines = (
{
position = "{0, 298}";
},
{
position = "{0, 42}";
},
{
angle = 90;
position = "{308, 0}";
}
);
layerId = "879304B0-C0BD-4EE0-9B7F-878EED11B82D";
paths = (
{
closed = 1;
nodes = (
"144 519 OFFCURVE",
"270 679 OFFCURVE",
"440 700 CURVE",
"438 718 LINE",
"224 699 OFFCURVE",
"70 516 OFFCURVE",
"70 279 CURVE SMOOTH",
"70 98 OFFCURVE",
"161 -14 OFFCURVE",
"308 -14 CURVE SMOOTH",
"436 -14 OFFCURVE",
"523 72 OFFCURVE",
"523 200 CURVE SMOOTH",
"523 323 OFFCURVE",
"445 405 OFFCURVE",
"330 405 CURVE SMOOTH",
"286 405 OFFCURVE",
"243 393 OFFCURVE",
"199 368 CURVE",
"208 352 LINE",
"239 368 OFFCURVE",
"274 377 OFFCURVE",
"305 377 CURVE SMOOTH",
"393 377 OFFCURVE",
"449 305 OFFCURVE",
"449 192 CURVE SMOOTH",
"449 82 OFFCURVE",
"392 8 OFFCURVE",
"308 8 CURVE SMOOTH",
"208 8 OFFCURVE",
"144 115 OFFCURVE",
"144 284 CURVE SMOOTH"
);
}
);
userData = {
com.fontlab.autolayer = 1;
com.fontlab.metricsLeft = "|nine.tnum";
com.fontlab.metricsWidth = zero.tnum;
};
vertWidth = 0;
width = 582;
}
);
note = "";
},
{
color = (154, 153, 255, 255);
glyphname = seven.tnum;
layers = (
{
guideLines = (
{
angle = 90;
position = "{217, 0}";
}
);
layerId = "879304B0-C0BD-4EE0-9B7F-878EED11B82D";
paths = (
{
closed = 1;
nodes = (
"464 640 LINE",
"154 0 LINE",
"228 0 LINE",
"508 680 LINE",
"508 700 LINE",
"67 700 LINE",
"67 640 LINE"
);
}
);
userData = {
com.fontlab.metricsWidth = zero.tnum;
};
vertWidth = 0;
width = 582;
}
);
note = "";
},
{
color = (154, 153, 255, 255);
glyphname = nine.tnum;
layers = (
{
guideLines = (
{
angle = 90;
position = "{157, 0}";
}
);
layerId = "879304B0-C0BD-4EE0-9B7F-878EED11B82D";
paths = (
{
closed = 1;
nodes = (
"438 201 OFFCURVE",
"332 21 OFFCURVE",
"162 0 CURVE",
"164 -18 LINE",
"378 1 OFFCURVE",
"512 204 OFFCURVE",
"512 421 CURVE SMOOTH",
"512 602 OFFCURVE",
"422 714 OFFCURVE",
"276 714 CURVE SMOOTH",
"148 714 OFFCURVE",
"62 630 OFFCURVE",
"62 505 CURVE SMOOTH",
"62 385 OFFCURVE",
"139 305 OFFCURVE",
"253 305 CURVE SMOOTH",
"297 305 OFFCURVE",
"339 317 OFFCURVE",
"383 342 CURVE",
"374 358 LINE",
"343 342 OFFCURVE",
"309 333 OFFCURVE",
"278 333 CURVE SMOOTH",
"191 333 OFFCURVE",
"136 403 OFFCURVE",
"136 513 CURVE SMOOTH",
"136 620 OFFCURVE",
"192 692 OFFCURVE",
"276 692 CURVE SMOOTH",
"375 692 OFFCURVE",
"438 585 OFFCURVE",
"438 416 CURVE SMOOTH"
);
}
);
userData = {
com.fontlab.autolayer = 1;
com.fontlab.metricsRight = "=70";
com.fontlab.metricsWidth = zero.tnum;
};
vertWidth = 0;
width = 582;
}
);
note = "";
},
{
color = (255, 153, 153, 255);
glyphname = zero.superior;
layers = (
{
guideLines = (
{
position = "{0, 352}";
},
{
position = "{0, 790}";
}
);
layerId = "879304B0-C0BD-4EE0-9B7F-878EED11B82D";
paths = (
{
closed = 1;
nodes = (
"62 439 OFFCURVE",
"124 352 OFFCURVE",
"217 352 CURVE SMOOTH",
"310 352 OFFCURVE",
"372 439 OFFCURVE",
"372 571 CURVE SMOOTH",
"372 703 OFFCURVE",
"310 790 OFFCURVE",
"217 790 CURVE SMOOTH",
"124 790 OFFCURVE",
"62 703 OFFCURVE",
"62 571 CURVE SMOOTH"
);
},
{
closed = 1;
nodes = (
"120 696.736 OFFCURVE",
"156 770 OFFCURVE",
"217 770 CURVE SMOOTH",
"278 770 OFFCURVE",
"314 696.736 OFFCURVE",
"314 571 CURVE SMOOTH",
"314 445.264 OFFCURVE",
"278 372 OFFCURVE",
"217 372 CURVE SMOOTH",
"156 372 OFFCURVE",
"120 445.264 OFFCURVE",
"120 571 CURVE SMOOTH"
);
}
);
userData = {
com.fontlab.metricsRight = "|";
com.fontlab.recipe = zero;
};
vertWidth = 0;
width = 434;
}
);
note = "";
unicode = 2070;
},
{
color = (255, 153, 153, 255);
glyphname = one.superior;
layers = (
{
guideLines = (
{
position = "{0, 362}";
},
{
position = "{0, 790}";
}
);
layerId = "879304B0-C0BD-4EE0-9B7F-878EED11B82D";
paths = (
{
closed = 1;
nodes = (
"191 362 LINE",
"191 790 LINE",
"175 790 LINE",
"37 710 LINE",
"43 697 LINE",
"139 739 LINE",
"139 362 LINE"
);
}
);
vertWidth = 0;
width = 293;
}
);
note = "";
unicode = 00B9;
},
{
color = (255, 153, 153, 255);
glyphname = two.superior;
layers = (
{
guideLines = (
{
position = "{0, 362}";
},
{
position = "{0, 790}";
},
{
angle = 90;
position = "{311, 0}";
},
{
angle = 90;
position = "{42, 0}";
}
);
layerId = "879304B0-C0BD-4EE0-9B7F-878EED11B82D";
paths = (
{
closed = 1;
nodes = (
"311 362 LINE",
"311 408 LINE",
"91 408 LINE",
"221 550 LINE SMOOTH",
"284.549 619.415 OFFCURVE",
"304 650 OFFCURVE",
"304 687 CURVE SMOOTH",
"304 749 OFFCURVE",
"251 790 OFFCURVE",
"170 790 CURVE SMOOTH",
"134 790 OFFCURVE",
"100 782 OFFCURVE",
"64 765 CURVE",
"67 726 LINE",
"71 726 LINE",
"104 755 OFFCURVE",
"139 770 OFFCURVE",
"170 770 CURVE SMOOTH",
"216 770 OFFCURVE",
"246 736 OFFCURVE",
"246 682 CURVE SMOOTH",
"246 646 OFFCURVE",
"231 616 OFFCURVE",
"193 568 CURVE SMOOTH",
"42 378 LINE",
"42 362 LINE"
);
}
);
userData = {
com.fontlab.metricsLeft = seven.superior;
};
vertWidth = 0;
width = 368;
}
);
note = "";
unicode = 00B2;
},
{
color = (255, 153, 153, 255);
glyphname = three.superior;
layers = (
{
guideLines = (
{
position = "{0, 352}";
},
{
position = "{0, 790}";
},
{
angle = 90;
position = "{156, 0}";
}
);
layerId = "879304B0-C0BD-4EE0-9B7F-878EED11B82D";
paths = (
{
closed = 1;
nodes = (
"205 578 OFFCURVE",
"247 539 OFFCURVE",
"247 473 CURVE SMOOTH",
"247 411 OFFCURVE",
"211 372 OFFCURVE",
"156 372 CURVE SMOOTH",
"120 372 OFFCURVE",
"82 387 OFFCURVE",
"52 416 CURVE",
"48 416 LINE",
"52 373 LINE",
"81 360 OFFCURVE",
"120 352 OFFCURVE",
"156 352 CURVE SMOOTH",
"245 352 OFFCURVE",
"305 399 OFFCURVE",
"305 471 CURVE SMOOTH",
"305 533 OFFCURVE",
"262 575 OFFCURVE",
"189 587 CURVE",
"189 591 LINE",
"251 605 OFFCURVE",
"285 640 OFFCURVE {name = hr01;}",
"285 688 CURVE SMOOTH",
"285 749 OFFCURVE",
"233 790 OFFCURVE",
"156 790 CURVE SMOOTH",
"122 790 OFFCURVE",
"82 782 OFFCURVE",
"55 770 CURVE",
"58 731 LINE",
"62 731 LINE",
"85 755 OFFCURVE",
"125 770 OFFCURVE",
"156 770 CURVE SMOOTH",
"200 770 OFFCURVE",
"229 737 OFFCURVE",
"229 686 CURVE SMOOTH",
"229 629 OFFCURVE",
"195 598 OFFCURVE",
"134 598 CURVE SMOOTH",
"113 598 LINE",
"113 578 LINE",
"136 578 LINE SMOOTH"
);
}
);
userData = {
com.fontlab.metricsRight = eight.superior;
};
vertWidth = 0;
width = 363;
}
);
note = "";
unicode = 00B3;
},
{
color = (255, 153, 153, 255);
glyphname = four.superior;
layers = (
{
guideLines = (
{
position = "{0, 362}";
},
{
position = "{0, 780}";
}
);
layerId = "879304B0-C0BD-4EE0-9B7F-878EED11B82D";
paths = (
{
closed = 1;
nodes = (
"356 477 LINE",
"356 497 LINE",
"64 497 LINE",
"226 780 LINE",
"164 780 LINE",
"40 493 LINE",
"40 477 LINE"
);
},
{
closed = 1;
nodes = (
"281 362 LINE",
"281 642 LINE",
"231 642 LINE",
"231 362 LINE"
);
}
);
userData = {
com.fontlab.recipe = four;
};
vertWidth = 0;
width = 396;
}
);
note = "";
unicode = 2074;
},
{
color = (255, 153, 153, 255);
glyphname = five.superior;
layers = (
{
guideLines = (
{
position = "{0, 520}";
},
{
position = "{0, 352}";
},
{
angle = 90;
position = "{292, 0}";
},
{
angle = 90;
position = "{55, 0}";
},
{
position = "{0, 780}";
}
);
layerId = "879304B0-C0BD-4EE0-9B7F-878EED11B82D";
paths = (
{
closed = 1;
nodes = (
"48 416 LINE",
"51 373 LINE",
"98 359 OFFCURVE",
"131 352 OFFCURVE",
"160 352 CURVE SMOOTH",
"241 352 OFFCURVE",
"297 405 OFFCURVE",
"297 482 CURVE SMOOTH",
"297 557 OFFCURVE",
"245 607 OFFCURVE",
"160 624 CURVE SMOOTH",
"85 639 LINE",
"69 591 LINE",
"145 576 LINE SMOOTH",
"211 563 OFFCURVE",
"257 524 OFFCURVE",
"257 464 CURVE SMOOTH",
"257 409 OFFCURVE",
"218 372 OFFCURVE",
"161 372 CURVE SMOOTH",
"125 372 OFFCURVE",
"86 388 OFFCURVE",
"51 416 CURVE"
);
},
{
closed = 1;
nodes = (
"89 591 LINE",
"109 771 LINE",
"90 780 LINE",
"69 591 LINE"
);
},
{
closed = 1;
nodes = (
"281 734 LINE",
"281 780 LINE",
"90 780 LINE",
"90 734 LINE"
);
}
);
userData = {
com.fontlab.metricsLeft = three.superior;
com.fontlab.metricsRight = zero.superior;
com.fontlab.recipe = five;
};
vertWidth = 0;
width = 359;
}
);
note = "";
unicode = 2075;
},
{
color = (255, 153, 153, 255);
glyphname = six.superior;
layers = (
{
guideLines = (
{
position = "{0, 352}";
},
{
position = "{0, 790}";
},
{
position = "{0, 780}";
}
);
layerId = "879304B0-C0BD-4EE0-9B7F-878EED11B82D";
paths = (
{
closed = 1;
nodes = (
"120 669 OFFCURVE",
"186 766 OFFCURVE",
"289 780 CURVE",
"287 794 LINE",
"154 782 OFFCURVE",
"62 672 OFFCURVE",
"62 530 CURVE SMOOTH",
"62 419 OFFCURVE",
"119 352 OFFCURVE",
"212 352 CURVE SMOOTH",
"293 352 OFFCURVE",
"347 403 OFFCURVE",
"347 481 CURVE SMOOTH",
"347 555 OFFCURVE",
"298 605 OFFCURVE",
"225 605 CURVE SMOOTH",
"202 605 OFFCURVE",
"176 600 OFFCURVE",
"154 588 CURVE",
"159 575 LINE",
"177 585 OFFCURVE",
"192 588 OFFCURVE",
"206 588 CURVE SMOOTH",
"257 588 OFFCURVE",
"289 546 OFFCURVE",
"289 479 CURVE SMOOTH",
"289 413 OFFCURVE",
"258 372 OFFCURVE",
"212 372 CURVE SMOOTH",
"157 372 OFFCURVE",
"120 433 OFFCURVE",
"120 533 CURVE SMOOTH"
);
}
);
userData = {
com.fontlab.metricsLeft = zero.superior;
com.fontlab.metricsRight = "|-2";
com.fontlab.recipe = six;
};
vertWidth = 0;
width = 407;
}
);
note = "";
unicode = 2076;
},
{
color = (255, 153, 153, 255);
glyphname = seven.superior;
layers = (
{
guideLines = (
{
position = "{0, 362}";
},
{
position = "{0, 780}";
}
);
layerId = "879304B0-C0BD-4EE0-9B7F-878EED11B82D";
paths = (
{
closed = 1;
nodes = (
"277 734 LINE",
"92 362 LINE",
"144 362 LINE",
"311 764 LINE",
"311 780 LINE",
"42 780 LINE",
"42 734 LINE"
);
}
);
userData = {
com.fontlab.recipe = seven;
};
vertWidth = 0;
width = 357;
}
);
note = "";
unicode = 2077;
},
{
color = (255, 153, 153, 255);
glyphname = eight.superior;
layers = (
{
guideLines = (
{
position = "{0, 352}";
},
{
position = "{0, 790}";
}
);
layerId = "879304B0-C0BD-4EE0-9B7F-878EED11B82D";
paths = (
{
closed = 1;
nodes = (
"199 575 LINE",
"142 555 OFFCURVE",
"111 513 OFFCURVE",
"111 460 CURVE SMOOTH",
"111 404 OFFCURVE",
"147 372 OFFCURVE",
"201 372 CURVE SMOOTH",
"254 372 OFFCURVE",
"293 403 OFFCURVE",
"293 453 CURVE SMOOTH",
"293 490 OFFCURVE",
"271 514 OFFCURVE",
"174 568 CURVE SMOOTH",
"108 605 OFFCURVE",
"75 647 OFFCURVE {name = hr01;}",
"75 693 CURVE SMOOTH",
"75 751 OFFCURVE",
"125 790 OFFCURVE",
"201 790 CURVE SMOOTH",
"275 790 OFFCURVE",
"327 753 OFFCURVE",
"327 701 CURVE SMOOTH",
"327 652 OFFCURVE",
"285 607 OFFCURVE",
"211 583 CURVE",
"202 595 LINE",
"249 612 OFFCURVE",
"275 650 OFFCURVE",
"275 696 CURVE SMOOTH",
"275 742 OFFCURVE",
"246 770 OFFCURVE",
"201 770 CURVE SMOOTH",
"157 770 OFFCURVE",
"125 743 OFFCURVE",
"125 701 CURVE SMOOTH",
"125 666 OFFCURVE",
"148 641 OFFCURVE",
"226 598 CURVE SMOOTH",
"307 554 OFFCURVE",
"344 512 OFFCURVE {name = hr02;}",
"344 459 CURVE SMOOTH",
"344 394 OFFCURVE",
"288 352 OFFCURVE",
"201 352 CURVE SMOOTH",
"115 352 OFFCURVE",
"58 392 OFFCURVE",
"58 455 CURVE SMOOTH",
"58 516 OFFCURVE",
"109 566 OFFCURVE",
"190 585 CURVE"
);
}
);
userData = {
com.fontlab.metricsLeft = "|";
com.fontlab.metricsRight = "zero.superior-4";
com.fontlab.recipe = eight;
};
vertWidth = 0;
width = 402;
}
);
note = "";
unicode = 2078;
},
{
color = (255, 153, 153, 255);
glyphname = nine.superior;
layers = (
{
guideLines = (
{
position = "{0, 790}";
}
);
layerId = "879304B0-C0BD-4EE0-9B7F-878EED11B82D";
paths = (
{
closed = 1;
nodes = (
"284 474 OFFCURVE",
"220 375 OFFCURVE",
"125 362 CURVE",
"127 348 LINE",
"253 360 OFFCURVE",
"342 470 OFFCURVE",
"342 612 CURVE SMOOTH",
"342 723 OFFCURVE",
"285 790 OFFCURVE",
"194 790 CURVE SMOOTH",
"114 790 OFFCURVE",
"60 740 OFFCURVE",
"60 663 CURVE SMOOTH",
"60 590 OFFCURVE",
"108 541 OFFCURVE",
"180 541 CURVE SMOOTH",
"202 541 OFFCURVE",
"228 546 OFFCURVE",
"250 558 CURVE",
"245 571 LINE",
"227 561 OFFCURVE",
"213 558 OFFCURVE",
"199 558 CURVE SMOOTH",
"150 558 OFFCURVE",
"118 600 OFFCURVE",
"118 665 CURVE SMOOTH",
"118 729 OFFCURVE",
"149 770 OFFCURVE {name = hr01;}",
"194 770 CURVE SMOOTH",
"247 770 OFFCURVE",
"284 709 OFFCURVE",
"284 609 CURVE SMOOTH"
);
}
);
userData = {
com.fontlab.metricsLeft = "|six.superior";
com.fontlab.metricsRight = "|six.superior";
com.fontlab.recipe = nine;
};
vertWidth = 0;
width = 404;
}
);
note = "";
unicode = 2079;
},
{
color = (255, 153, 153, 255);
glyphname = fraction;
layers = (
{
layerId = "879304B0-C0BD-4EE0-9B7F-878EED11B82D";
paths = (
{
closed = 1;
nodes = (
"-108 0 LINE",
"284 700 LINE",
"252 700 LINE",
"-140 0 LINE"
);
}
);
userData = {
com.fontlab.metricsRight = "|";
};
vertWidth = 0;
width = 144;
}
);
note = "";
unicode = 2044;
},
{
color = (255, 255, 153, 255);
glyphname = arrowleft;
layers = (
{
guideLines = (
{
position = "{0, 350}";
}
);
layerId = "879304B0-C0BD-4EE0-9B7F-878EED11B82D";
paths = (
{
closed = 1;
nodes = (
"120 350 LINE",
"325 116 LINE",
"308 99 LINE",
"60 347 LINE",
"60 353 LINE",
"308 601 LINE",
"325 584 LINE"
);
},
{
closed = 1;
nodes = (
"774 319 LINE",
"91 339 LINE",
"91 361 LINE",
"774 381 LINE"
);
}
);
vertWidth = 0;
width = 864;
}
);
note = "";
unicode = 2190;
},
{
color = (255, 255, 153, 255);
glyphname = arrowup;
layers = (
{
guideLines = (
{
angle = 90;
position = "{301, 0}";
},
{
position = "{0, 449}";
}
);
layerId = "879304B0-C0BD-4EE0-9B7F-878EED11B82D";
paths = (
{
closed = 1;
nodes = (
"301 654 LINE",
"535 449 LINE",
"552 466 LINE",
"304 714 LINE",
"298 714 LINE",
"50 466 LINE",
"67 449 LINE"
);
},
{
closed = 1;
nodes = (
"335 0 LINE",
"312 683 LINE",
"290 683 LINE",
"267 0 LINE"
);
}
);
userData = {
com.fontlab.metricsRight = "|";
};
vertWidth = 0;
width = 602;
}
);
note = "";
unicode = 2191;
},
